<mxfile host="Electron" modified="2023-11-16T09:29:56.978Z" agent="Mozilla/5.0 (Windows NT 10.0; Win64; x64) AppleWebKit/537.36 (KHTML, like Gecko) draw.io/22.0.2 Chrome/114.0.5735.289 Electron/25.8.4 Safari/537.36" etag="xA2e1TsZJ8FLoNPWUNgd" version="22.0.2" type="device">
  <diagram name="Side-1" id="5bq6fQ-ffcEf-TJmH8UZ">
    <mxGraphModel dx="6755" dy="1196" grid="1" gridSize="10" guides="1" tooltips="1" connect="1" arrows="1" fold="1" page="1" pageScale="1" pageWidth="4681" pageHeight="3300" math="0" shadow="0">
      <root>
        <mxCell id="0" />
        <mxCell id="1" parent="0" />
        <mxCell id="qFrpL7xLVj3GtX8HjoZw-3" value="" style="shape=image;verticalLabelPosition=bottom;labelBackgroundColor=default;verticalAlign=top;aspect=fixed;imageAspect=0;image=data:image/png,iVBORw0KGgoAAAANSUhEUgAABgAAAALyCAYAAAAc+x9qAAAAOXRFWHRTb2Z0d2FyZQBNYXRwbG90bGliIHZlcnNpb24zLjcuMSwgaHR0cHM6Ly9tYXRwbG90bGliLm9yZy/bCgiHAAAACXBIWXMAAA9hAAAPYQGoP6dpAAEAAElEQVR4nOzdeXxTVfrH8W9aoKXQFgq0KYpQEYGyCIhKFUdFELQiKi4gKIqCII4CgojDroDwGwUcRxhRUYfFwRk3QKuAuKBFEKxaWcUiCC3VMm3ZWrDJ749OAumatklucvN5v159QZPbm3OTm+Tc85zzPBa73W4XAAAAAAAAAAAwlRCjGwAAAAAAAAAAADyPAAAAAAAAAAAAACZEAAAAAAAAAAAAABMiAAAAAAAAAAAAgAkRAAAAAAAAAAAAwIQIAAAAAAAAAAAAYEIEAAAAAAAAAAAAMCECAAAAAAAAAAAAmBABAAAAAAAAAAAATIgAAAAAAAAAAAAAJkQAAAAAAAAAAAAAEyIAAAAAAAAAAACACREAAAAAAAAAAADAhAgAAAAAAAAAAABgQgQAAAAAAAAAAAAwIQIAAAAAAAAAAACYEAEAAAAAAAAAAABMiAAAAAAAAAAAAAAmRAAAAAAAAAAAAAATIgAAAAAAAAAAAIAJEQAAAAAAAAAAAMCECAAAAAAAAAAAAGBCBAAAAAAAAAAAADAhAgAAAAAAAAAAAJgQAQAAAAAAAAAAAEyIAAAAAAAAAAAAACZEAAAAAAAAAAAAABMiAAAAAAAAAAAAgAkRAAAAAAAAAAAAwIQIAAAAAAAAAAAAYEIEAAAAAAAAAAAAMCECAAAAAAAAAAAAmBABAAAAAAAAAAAATIgAAAAAAAAAAAAAJkQAAAAAAAAAAAAAEyIAAAAAAAAAAACACREAAAAAAAAAAADAhAgAAAAAAAAAAABgQgQAAAAAAAAAAAAwIQIAAAAAAAAAAACYEAEAAAAAAAAAAABMiAAAAAAAAAAAAAAmRAAAAAAAAAAAAAATIgAAAAAAAAAAAIAJEQAAAAAAAAAAAMCECAAAAAAAAAAAAGBCBAAAAAAAAAAAADAhAgAAAAAAAAAAAJgQAQAAAAAAAAAAAEyIAAAAAAAAAAAAACZEAAAAAAAAAAAAABMiAAAAAAAAAAAAgAkRAAAAAAAAAAAAwIQIAAAAAAAAAAAAYEIEAAAAAAAAAAAAMCECAAAAAAAAAAAAmBABAAAAAAAAAAAATIgAAAAAAAAAAAAAJkQAAAAAAAAAAAAAEyIAAAAAAAAAAACACREAAAAAAAAAAADAhAgAAAAAAAAAAABgQgQAAAAAAAAAAAAwIQIAAAAAAAAAAACYEAEAAAAAAAAAAABMiAAAAAAAAAAAAAAmRAAAAAAAAAAAAAATIgAAAAAAAAAAAIAJEQAAAAAAAAAAAMCECAAAAAAAAAAAAGBCBAAAAAAAAAAAADAhAgAAAAAAAAAAAJgQAQAAAAAAAAAAAEyIAAAAAAAAAAAAACZEAAAAAAAAAAAAABMiAAAAAAAAAAAAgAkRAAAAAAAAAAAAwIQIAAAAAAAAAAAAYEIEAAAAAAAAAAAAMCECAAAAAAAAAAAAmBABAAAAAAAAAAAATIgAAAAAAAAAAAAAJkQAAAAAAAAAAAAAEyIAAAAAAAAAAACACREAAAAAAAAAAADAhAgAAAAAAAAAAABgQgQAAAAAAAAAAAAwIQIAAAAAAAAAAACYUC2jGwAYxWaz6dChQ4qMjJTFYjG6OQAAwKTsdruOHj2qpk2bKiSE+Tf+jj4iAADwBfqI8BUCAAhahw4dUrNmzYxuBgAACBIHDhzQueeea3QzUAn6iAAAwJfoI8LbCAAgaEVGRkoq/qCNiooyuDUAAMCs8vPz1axZM2ffA/6NPiIAAPAF+ojwFQIACFqOJd1RUVFc3AEAAK8jnUxgoI8IAAB8iT4ivI0EUwAAAAAAAAAAmBABAAAAAAAAAAAATIgAAAAAAAAAAAAAJkQAAAAAAAAAAAAAEyIAAAAAAAAAAACACREAAAAAAAAAAADAhAgAAAAAAAAAAABgQgQAAAAAAAAAAAAwIQIAAAAAAAAAAACYEAEAAAAAAAAAAABMiAAAAAAAAAAAAAAmRAAAAAAAAAAAAAATIgAAAAAAAAAAAIAJEQAAAAAAAAAAAMCECAAAAAAAAAAAAGBCBAAAAAAAAAAAADAhAgAAAAAAAAAAAJgQAQAAAAAAAAAAAEyIAAAAAAAAAAAAACZUy+gGAADMr8hm1+aMI8o+WqDYyHBdmhCj0BCL0c0CAAAAAAAwNQIAAIISA9K+k5Keqemrtiszr8B5W3x0uKb2TVSf9vEGtgwAAAAAAMDcCAAACDoMSPtOSnqmRi7dJnuJ27PyCjRy6TYtHNyF5xwAAAAAAMBLqAEAIKg4BqTPHvyXzgxIp6RnSipeIZC6N0fvpR1U6t4cFdlKDmGjMkU2u6av2l5q8F+S87bpq7bz3HoB5y8AAAAAAJBYAQAgiFQ2IG1R8YC0zSY9tYYVAjW1OeNIqUDL2eySMvMKtDnjiJJaNvJdw0yOFS4AAAAAAMCBFQAAgoa7A9IPLa98hQAql320/Oe6Otuhcu6ucAEAAAAAAMGBAADgJ0jZ4X01GWgmZU3VxUaGe3Q7VIyUSwAAAAAAoCRSAAF+gJQdvlHTgWZS1lTNpQkxio8OV1ZeQZmD0hZJ1uhwXZoQ4+ummRIplwAAAAAAQEmsAAAMRsqO6qnOignHgHRNkbLGPaEhFk3tmyipeLD/bI7fp/ZNVGhIyXtRHf6WcolVTQAAAAAAGI8VAICB3C1K2yvRyiDpWaq7YiI0xKKbLorXPz7PqNHjk7LGfX3ax2vh4C6lXi8rK1w8zp9SLrGqCQAAAAAA/0AAADAQKTuqzrFiomTQxLFiYuHgLuUOMBbZ7Hr/u4pXVIRYJLtdpKzxoD7t49Ur0arNGUeUfbRAsZHFzyFBLc/yl5RLNXmPAgAAAAAAzyIFEGAgf0vZ4e9qWuS0soCLJNnsZ1ZfnI2UNTUTGmJRUstG6tfpHCW1bMRz6AX+kHKJQsSBhTRNAAAAAGB+rAAADORPKTsCQU1XTLgbSBl6RQt9mJ5FyhoEHKNTLrGqKXCQpgkAAAAAggMBAMBA/pKyI1DUdMWEu4GUXolW/SU5kZQ1CEhGplxiVVNgIE0TAAAAAAQPAgCAgRwpO0Yu3SaLXPPOk3KmtJqumKhKwMWRsgYIREadv0auaiqy2QnauYHi8wAAAAAQXKgBABjMkbLDGu06IGaNDmcWZgmOAfzyhqQsKk5hUd6KCX/IkQ6YWWXvUUlqULe2bHa7R/PNp6RnqvucTzRw8SY9+maaBi7epO5zPlFKesVFv4NRVdI0AQAAAAACHwEAwA/0aR+vjRN6aMWwblowoJNWDOumjRN6MPhfgicG8Am4AN5T0XvUIffkaQ16+WuPDdA70tmUHNR2pLMhCOCKNE0AAAAAEFxIAQT4CVLOuMcTRU6NzJEOmF1579GSPJFvnnQ2VUfxeQAAAAAILgQAAFSZ0bm2PTGAT8AF8B7He3TT3hyNWr5NuSdPl9rGEwP0VUlnw/u9GMXnAQAAACC4EAAAUCUp6ZmlZvbGV2H2vacwgA/4t9AQi0JCLGUO/jvUdICedDZVR/F5AAAAAAgu1AAA4DZybQOoCm8P0JPOpnqohQIAAAAAwYMVAADcQq5tAFXl7QF60tlUH7VQAAAAACA4sAIAgFuqkmsbAKQzA/TlDSlbVJxCrLoD9I50No59ldy3RDqbijhSqfXrdI6SWjbieQIAAAAAEyIAAMAt5NoGUFW+GKAnnY1/KLLZlbo3R++lHVTq3hwV2cpakwEAAAAA8DVSAAFwC7m2AVSHY4C+ZPFwqweLh5POxlj+UhweAAAAAFAaKwDgUS1atJDFYin1M2rUKElSQUGBRo0apUaNGql+/frq37+/Dh8+7LKP/fv3Kzk5WREREYqNjdX48eP1xx9/uGzz6aefqkuXLgoLC9MFF1yg1157zVeHGLS8ncoDgHn1aR+vjRN6aMWwblowoJNWDOumjRN6eHRwmHQ2xqA4PAAAAAD4NwIA8KgtW7YoMzPT+bN27VpJ0u233y5JGjNmjFatWqW33npLn332mQ4dOqRbb73V+fdFRUVKTk7WqVOn9NVXX+n111/Xa6+9pilTpji3ycjIUHJysq655hqlpaVp9OjReuCBB/TRRx/59mCDDLm2AdQEA/TmU1lxeKm4ODzpgAAAAADAOBa73c5VGbxm9OjRWr16tfbs2aP8/Hw1adJEy5cv12233SZJ2rlzp9q2bavU1FR169ZNH374oW688UYdOnRIcXFxkqRFixZpwoQJ+u2331SnTh1NmDBBa9asUXp6uvNxBgwYoNzcXKWkpLjdtvz8fEVHRysvL09RUVGePXATI9UDAECSUvfmaODiTZVut2JYNyW1bOSDFvkv+hyBhdcLAAD4An0O+Ao1AOA1p06d0tKlSzV27FhZLBZt3bpVp0+fVs+ePZ3btGnTRuedd54zAJCamqoOHTo4B/8lqXfv3ho5cqR+/PFHde7cWampqS77cGwzevToCttTWFiowsJC5+/5+fmeOdAgQ65tAPBfRTa7zz6fKQ4PAAAAAP6PAAC85t1331Vubq7uvfdeSVJWVpbq1KmjBg0auGwXFxenrKws5zZnD/477nfcV9E2+fn5OnnypOrWrVtme2bPnq3p06fX9LCgM6k8AAD+w9crtCgODwAAAAD+jxoA8JpXXnlF119/vZo2bWp0UyRJEydOVF5envPnwIEDRjcJAACPMKIYL8XhAQAAAMD/EQCAV/zyyy9at26dHnjgAedtVqtVp06dUm5ursu2hw8fltVqdW5z+PDhUvc77qtom6ioqHJn/0tSWFiYoqKiXH4AAAh0RhXjraw4vF3SgEuaafX3h5S6N4diwAAAAABgAAIA8IolS5YoNjZWycnJztsuvvhi1a5dW+vXr3fetmvXLu3fv19JSUmSpKSkJP3www/Kzs52brN27VpFRUUpMTHRuc3Z+3Bs49gHAADBZHPGkVIz/89ml5SZV6DNGUc8/th92sdr4eAuska7pvmJjqitBhG1NW/dHj36ZpoGLt6k7nM+8cpKBAAAAABA+agBAI+z2WxasmSJhgwZolq1zpxi0dHRuv/++zV27FjFxMQoKipKf/7zn5WUlKRu3bpJkq677jolJibq7rvv1ty5c5WVlaVJkyZp1KhRCgsLkySNGDFCL7zwgh5//HENHTpUn3zyiVauXKk1a9YYcrwAABjJ6GK8JYvD7/v9hOav211qRYIjHdHCwV28UpMAAAAAAFAaKwDgcevWrdP+/fs1dOjQUvfNmzdPN954o/r3768//elPslqtevvtt533h4aGavXq1QoNDVVSUpIGDx6se+65RzNmzHBuk5CQoDVr1mjt2rW66KKL9Oyzz+rll19W7969fXJ8AAD4E38oxusoDn9jx6Z6c8t+n6cjAgAAAACUzWK327kCQ1DKz89XdHS08vLyqAcAAKiRIpvdOQM+NrK48G1oSHnlcT3/2N3nfKKsvIIyB94tkqzR4do4oYfX25S6N0cDF2+qdLsVw7opqWUjr7bFn9DnCCy8XgAAwBfoc8BXSAEEAABQAynpmZq+artLHv746HBN7Zvok1Q3jmK8I5ducxbfdXAM90/tm+iTgITR6YgAAAAAAK5IAQQAAFBNKemZGrl0W6kivI58974qelteMV5rdLhPc+77QzoiAAAAAMAZrAAAAACohiKbXdNXbS83371FxfnueyVafTL7vmQxXl+nIpKkSxNiFB8dXmk6oksTYnzWJgAAAAAIZqwAAIAgVGSzK3Vvjt5LO6jUvTkU5ASqYXPGkVIz/89ml5SZV6DNGUd81iZHMd5+nc5RUstGPh38dzz+1L6Jks6kH3LwdToiAAAAAAArAAAg6BidrxwwC/Ldl82Rjqjk54yVzxkAAAAA8DkCAAAQRBz5ykvO93fkK/dlrnAg0JHvvnz+kI4IAAAAAEAAAACChr/lKwcCHfnuK+ZIRyQVf/4QDAAAAAAA3yMAAABBoir5yh2DdgDK58h3P3LpNlkklyAA+e7PIO0YAAAAABiHIsAAECTIVw54niPfvTXaNc2PNTqclFo6k3asZPDRkXYsJT3ToJYBAAAAQHBgBQAABAnylQPeQb77spF2DAAAAACMRwAAAIIE+coB7zk73z2KkXYMAAAAAIxHCiAAQaHIZlfq3hy9l3ZQqXtzVGQrawjc3Bz5yqUz+ckdgilfOecC4BukHQMAAAAA47ECAIDpUYDyDEe+8pLPhzVIng/OBcB3SDsGAAAAAMYjAADA1BwFKEvO8XYUoAzGIp3Bmq+ccwHwLdKOAQAAAIDxSAEEwLQqK0ApFRegDMYUMI585f06naOklo1MP/jPuQD4HmnHAAAAAMB4BAAAmFZVClDCf3kiZz/nAmAMR9oxa7Rrmh9rdDirbgAAAADAB0gBBMC0KEAZ+DyVs59zATBOsKYdAwAAAAB/QAAAgGlRgDKweTJnP+cCYCxH2jEAAAAAgG+RAgiAaTkKUJY3x9Si4tnkFKD0P57O2c+5AAAAAAAAghEBAACmRQHKwOXpnP2cCwAAAAAAIBgRAABgahSgDEzeyNnPuQAEN08UFAcAAACAQEMNAACmRwHKwOOtnP2cC0Bw8lRBcQAAAAAINAQAAAQFClAGFkfO/qy8gjLrAFhUPHO/Ojn7OReA4OLJguIAAAAAEGhIAQQA8Dvk7AfgCZ4uKA4AAAAAgYYAAADAL5GzH2ZHTnrv83RBcQAAAAAINKQAAgD4LXL2w6zISe8b3igoDgAAAACBhAAAAMCvkbMfZkNOet/xVkFxAAAAAAgUpAACAADwEXLS+5ajoHh5a4YsKl55UZ2C4gAAAAAQCAgAADAM+a8BBBty0vsWBcUBAAAABDtSAAEwBPmvAQQjctL7nqOgeMnvHCvfOQAAAACCAAEAAD5H/msAwYqc9MagoDgAAACAYEUAAIBPVZb/2qLi/Ne9Eq0MzAAwHUdO+qy8gjI/By0qnplOTnrPo6A4AAAAgGBEDQAAPkX+awDBzN9z0lObBQAAAADMhRUAgEkU2ewBkdqA/NcAgp2/5qSnNgsAAAAAmA8BAMAEAmnQhvzXAOB/OempzQIAAAAA5kQKICDAOQZtSqbVcQzapKRnGtSysjnyX5c3xGVRcfCC/NcAzM6Rk75fp3OU1LKRoWl/KqrNIhXXZiEdEAAAAAAEHgIAQAALxEEbf89/DQDBhtosAAAAAGBeBACAABaogzaO/NfWaNc0P9bocNJMAICPUZsFAAAAAMyLGgBAAAvkQRt/y38NAMGK2iwAAAAAYF4EAIAAFuiDNo781wAA4zhqs2TlFZSZUs6i4hVa1GYBAAAAgMBDCiAggFFQFwBQU9RmAQAAAADzIgAABDAGbQAAnkBtFgAAAAAwJ1IAAQHOMWgzfdV2l4LA1uhwTe2byKANAMAt1GYBAAAAAPMhAACYAIM2AABPoDYLAAAAAJgLAQDAJBi0AQAAAAAAAHA2AgAATKXIZmclBAAAAAAAACACAABMJCU9s1QthHhqIQAAAAAAACBIhRjdAADwhJT0TI1cus1l8F+SsvIKNHLpNqWkZxrUMgAAAAAAAMAYBAAABLwim13TV22XvYz7HLdNX7VdRbaytgAAAAAAAADMiQAAgIC3OeNIqZn/Z7NLyswr0OaMI75rFAAAAAAAAGAwagAACHjZR8sf/K/OdvBfFHkGAAAAAABwHwEAAAEvNjLco9vBP1HkGQAAAAAAoGpIAQQg4F2aEKP46HCVNw/couKB4ksTYnzZLHgQRZ4BAAAAAACqjhUAAAJeaIhFU/smauTSbbJILsWAHUGBqX0TSRUToCor8mxRcZHnXolWXmMAAAAf27Nnj44ePWp0M4Ke5Y8ChR/br4L658leq3ornyMjI9WqVSsPtwwAYDQCAABMoU/7eC0c3KVUihgrKWICXlWKPCe1bOS7hgGiLgUAILjt2bNHF154odHNgKTO1hBte7C+uvzjmL7NslV7P7t37yYIAAAmQwAAgGn0aR+vXolWBuNMhiLP8FfUpQAABDvHzP+lS5eqbdu2BrcmuNXN3S19/qCWLVumkw2qHpTZsWOHBg8ezGoOADAhAgAATCU0xMIscJOhyDP8kaMuRcnUVI66FAsHdyEIAAAIGm3btlWXLl2MbkZwOxQifS61bdNGatrJ6NYAAPwIRYABAH6NIs/wN5XVpZCK61IU2craAgAAAAAA3yEAAADwa44iz5JKBQEo8gwjVKUuBQAAAAAARiIAAASoIptdqXtz9F7aQaXuzWGmKUzNUeTZGu2a5scaHU6qFR/ic6cYdSkAAAAAAIGCGgBAAKLwJIIRRZ6NxefOGdSlAAAAAAAEClYAwOMOHjyowYMHq1GjRqpbt646dOigb775xnm/3W7XlClTFB8fr7p166pnz57as2ePyz6OHDmiQYMGKSoqSg0aNND999+vY8eOuWzz/fff68orr1R4eLiaNWumuXPn+uT4jOYoPFky/YSj8GRKeqZBLQO8z1HkuV+nc5TUshGD/z7C544r6lIAAAAAAAIFAQB41H//+19dccUVql27tj788ENt375dzz77rBo2bOjcZu7cuXr++ee1aNEiff3116pXr5569+6tgoIzA0uDBg3Sjz/+qLVr12r16tX6/PPPNXz4cOf9+fn5uu6669S8eXNt3bpV//d//6dp06bppZde8unx+poZCk+SQgQILGb43PE06lIAAAAAAAIFKYDgUXPmzFGzZs20ZMkS520JCQnO/9vtds2fP1+TJk1Sv379JElvvPGG4uLi9O6772rAgAHasWOHUlJStGXLFnXt2lWS9Le//U033HCD/vrXv6pp06ZatmyZTp06pVdffVV16tRRu3btlJaWpueee84lUGA2VSk8mdSyke8a5iZSiACBJ9A/d7zFUZei5Gealc80AJAknThxQjt37lSbNm0UERFhdHMAACbCdwxQNawAgEe9//776tq1q26//XbFxsaqc+fOWrx4sfP+jIwMZWVlqWfPns7boqOjddlllyk1NVWSlJqaqgYNGjgH/yWpZ8+eCgkJ0ddff+3c5k9/+pPq1Knj3KZ3797atWuX/vvf/5bZtsLCQuXn57v8BJpALjxJChEgMAXy54639Wkfr40TemjFsG5aMKCTVgzrpo0TejD4DwCSdu7cqYsvvlg7d+40uikAAJPhOwaoGgIA8Kiff/5ZCxcuVKtWrfTRRx9p5MiReuSRR/T6669LkrKysiRJcXFxLn8XFxfnvC8rK0uxsbEu99eqVUsxMTEu25S1j7Mfo6TZs2crOjra+dOsWbMaHq3vBWrhSVKIAIErUD93fIW6FAAAAAAAf0YAAB5ls9nUpUsXzZo1S507d9bw4cM1bNgwLVq0yOimaeLEicrLy3P+HDhwwOgmVVmgFp6sSgoRAP4lUD93AAAAAAAAAQB4WHx8vBITE11ua9u2rfbv3y9JslqtkqTDhw+7bHP48GHnfVarVdnZ2S73//HHHzpy5IjLNmXt4+zHKCksLExRUVEuP4EmUAtPkkIECFyB+rnj7yiIDgAAAADwBQIA8KgrrrhCu3btcrlt9+7dat68uaTigsBWq1Xr16933p+fn6+vv/5aSUlJkqSkpCTl5uZq69atzm0++eQT2Ww2XXbZZc5tPv/8c50+fdq5zdq1a9W6dWs1bNjQa8fnDxyFJ63Rruk2rNHhWji4i1/mniaFCBDYAvFzx5+lpGeq+5xPNHDxJj36ZpoGLt6k7nM+oRYKAAAAAMDjahndAJjLmDFjdPnll2vWrFm64447tHnzZr300kt66aWXJEkWi0WjR4/W008/rVatWikhIUGTJ09W06ZNdfPNN0sqXjHQp08fZ+qg06dP6+GHH9aAAQPUtGlTSdJdd92l6dOn6/7779eECROUnp6uBQsWaN68eUYduk/1aR+vXolWbc44ouyjBYqNLE6/4a8zcB0pRLLyCsqsA2BR8UAiKUQA/xVonzv+ylEQveRnoaMgOgEVwPyKior0xRdfKDMzU/Hx8bryyislqdRtoaGhBrcUAAD/d+rUKf3tb3/Txo0bFRERoU6dOik2NlabNm3SoUOHdOLECXXp0kWxsbGyWq3OrBHZ2dmKj4/X5Zdfrq+++koHDx7Ub7/9pkaNGiknJ8f5b5MmTXTOOefw3YyARgAAHnXJJZfonXfe0cSJEzVjxgwlJCRo/vz5GjRokHObxx9/XMePH9fw4cOVm5ur7t27KyUlReHhZ2aWLlu2TA8//LCuvfZahYSEqH///nr++eed90dHR+vjjz/WqFGjdPHFF6tx48aaMmWKhg8f7tPjNZKj8GQgcKQQGbl0myySy8AXKUSAwBFInzv+qLKC6BYVF0TvlWjl8xCogc8//1z/93//p61btyozM1PvvPOOc6KJ0d5++2099thj2rdvn/O22NhY2e12/fbbb87bWrRooWeffVa33nqrAa0EACAwLFiwQEuXLpXNZnPetnz58lLbrVu3rtx91KpVS3/88Uelj8V3MwIZKYDgcTfeeKN++OEHFRQUaMeOHRo2bJjL/RaLRTNmzFBWVpYKCgq0bt06XXjhhS7bxMTEaPny5Tp69Kjy8vL06quvqn79+i7bdOzYUV988YUKCgr066+/asKECV4/NlQfKUQABDsKogO+cfz4cV100UX6+9//bnRTXLz99tu67bbb1KFDB6Wmpuro0aOaPXu2srOz9dtvv2n27Nk6evSoUlNT1aFDB9122216++23jW42AAB+64033pDNZlPz5s1lsVjUuHFjl/vr1KkjSaVm7rdp08b5/3r16kkqTlktyVkv0vFv586dJUmNGzfmuxkBixUAAHyGFCIAghkF0QHfuP7663X99dcb3QwXRUVFeuyxx3TjjTfq3XffVUhIiIqKivSPf/xDN954oyTppZde0vjx49WtWze9++67uvnmmzVu3Dj169ePlAMAAJzl1KlTkqSQkBD16dNH27dv1w033KCUlBRZLBbZ7cVrbk+fPq24uDiFh4frwIEDstlsCgsLU0FBgcLDw2WxWNSgQQPn/cnJyfrxxx9Vt25dhYeH609/+pN+/PFH3XjjjUpPT1dycjLfzQhIBAAA1FiRze72oD4pRAAEKwqiA/6psLBQhYWFzt/z8/M9/hhffPGF9u3bpxUrVigkJKTUbXa7XZdffrm++OILXX311QoJCdHEiRNdbgs0J0+elCTt2LHD4JbAmxyvr+P1RuDiPYtA8sILL0iSbDabkpOT9cEHH6hfv34qKipy2c5ut2vw4MF69tlnnbcVFha6pOL75Zdf9Nhjj+nZZ5/VBRdcoDVr1uill17S8OHDNX78eK1evVqPPfaYVq9erXHjxmn16tUB+92M4EUAAECNpKRnavqq7S5pLeKjwzW1byJpfQDgLBREB/zT7NmzNX36dK8+RmZmpiSpffv2Zd7mmKnouO3sbc++LZA4BlcGDx5sbEPgE/v27dMVV1xhdDNQA7xnEajq1q0rqfxA5Pnnn1/pPhzbOPbhWJ3n2HfJfwP1uxnBiwAAgGpLSc/UyKXbSg1kZeUVaOTSbeT2B4CzUBAd8E8TJ07U2LFjnb/n5+erWbNmHn2M+Pji/lB6erq6detW6jZHAMBxm+P2krcFkhYtWkiSli5dqrZt2xrbGHjNjh07NHjwYOfrjcDFexaB5LnnntOyZcsknRm0dwzOl/Tzzz9Xuj/HNo59rF692mXfJf8N1O9mBC8CAACqpchm1/RV28ucxWpX8WDW9FXb1SvRymAWAPyPoyB6yZVTVlZOAYYJCwtTWFiYVx/jyiuvVIsWLTRr1ixnDQDHbTNnzpRUXHzwyiuvlFSc0mD27NkutwUaxyBK27Zt1aVLF4NbA28rb+ANgYP3LALJww8/rGXLlikkJERr1qxRixYt9NNPPyk0NFQ2m80ZWLdYLFq6dKmaN2/uUgMgPj5eWVlZslgsio2N1dKlS1WrVi399NNPatGihSZPnqzmzZsrJSVFCQkJSklJUYsWLZy/B+p3M4IXAQAA1bI544jL4FVJdkmZeQXanHGEnP8AcBYKogPBJzQ0VM8++6xuu+023XzzzZo4caLat2+v4cOH68knn5QkzZo1SydOnFB6erpmz56t1atX69///jdFBgEAKKFOnTqSigPmH3zwgZo3b64PPvhAMTExysnJcW5Xu3ZtHT582BkYkIprAISHh6ugoHg8Izc3V3l5eUpISNCaNWsUFRWl/Px8RUVFafXq1ercubNWr16trl27as2aNXw3IyARAABQLdlHyx/8r852ABBMKIgOeM+xY8f0008/OX/PyMhQWlqaYmJidN555xnWrltvvVX//ve/9dhjj+nyyy933h4bGyu73a4nn3zSGQxISEjQv//9b916661GNRcAAL93zz33aOnSpfrll18kyWXwX5JOnTolSaWKA+/cudP5/+PHj0sq7i9IxakAz/7322+/de6b72YEKgIAANxSZLO7zFZtXN+9pfKxkeFebhnMqOT5xuxoAIC7vvnmG11zzTXO3x35/YcMGaLXXnvNoFYVu/XWW9WvXz998cUXyszMVHx8vDONQMnbmF0IAEDFHn30US1evFh/+9vftHHjRkVERKhTp06KjY3Vpk2bdOjQIZ04cUJdunRRbGysrFarrFarJCk7O1vx8fG6/PLL9dVXX+ngwYP67bff1KhRI+Xk5Dj/bdKkic455xy+mxHQCAAAqFRKembpfNVRYWoQUVt5J06XWQfAouKc1pcmxPisnTCHss63ePKjAwDcdPXVVztz//qj0NBQXX311aVuL+s2AABQsTp16uixxx7TY4895nL7kCFD3N4H38EwuxCjGwDAv6WkZ2rk0m2l8v0fzi9U7v8G/0vOy3b8PrVvIrO2USXlnW9ZeQUauXSbUtIzDWoZAAAAAABA4CEAAKBcRTa7pq/aXuYMf8fAf4OI2oqLck3zY40O18LBXZitjSqp7HyTpOmrtqvI5r+zOgEAAAAAAPwJKYAAlGtzxpFSM7HPZpeUe+K0lt3fRSEhFvK1o0bcOd8y8wq0OeMIxVMBAAAAAADcQAAAQLmyj5Y/GHu2348Xql+nc7zcGpidu+ebu9sB8F8U+gYAAAAA3yAAAKBcsZHhlW9Uhe2AinC+AcGBQt9AcGjTpo22bt2qNm3aGN0UAIDJ8B0DVA01AACU69KEGMVHh5cq8utgUfGgzaUJMb5sFkyK8w0wPwp9A8EjIiJCXbp0UUREhNFNAQCYDN8xQNUQAABQrtAQi6b2TZSkUoOyjt+n9k0MmrQNRTa7Uvfm6L20g0rdm0MxWg/jfAPMjULfAAAAAOB7pAACUKE+7eO1cHCXUukarEGWroGUFb7B+YaaIK+8f6PQNwAAAAD4HgEAAJXq0z5evRKtQTuw5khZUXJOqiNlxcLBXao8MM1AZfmC/XxD9RCk838U+gYAAAAA3yMAAMAtoSGWoJyRWVnKCouKU1b0SrS6PUDNQGXlgvV8Q/V4I0gHz3O3gHfjemFK3ZtDABAAAAAAPIAAAABUwNMpKxioBDzLG0E6eIej0HdWXkGZr5dFUnREbT321nfKyidACgAAAACeQBFgAKiAJ1NWUAAT8LyqBOlgrMoKfdsl5Z447TL4L50JkKakZ/qknQAAAABgJqwAAIAKuJuywp3tKIAJeB555QNLeYW+46LCVPCHTbknTpf6G1ZyAID/OnHihCRp27ZtBrcEdXN3q62kHTt36mSWrcp/v2PHDs83CgDgFwgAAEAF3ElZYY0uzlFdGQYqAc/zZJAOvlFWoW+b3a5BL39d7t8QIAUA/7Rz505J0rBhwwxuCTpbQ7TtwfoaNGiQvq1GAMAhMjLSg60CAPgDAgAAUAFHyoqRS7c5U1Q4OOagTu2b6NaMVAYqAc/zZJAOvlOy0Pd7aQfd+jsCpADgX26++WZJUps2bRQREWFsY4Kc5Y8C7Ti2X6/ccJ7stap3PREZGalWrVp5uGUAAKMRAACASpSXssJaxcKUDFQCnufJIB2MQ4AUAAJT48aN9cADDxjdDDhdbnQDAAB+iAAAALihrJQVlybEVGlQkYFKwDs8FaSDcQiQAgAAAIB3EAAAADeVTFlRHQxUAt7hiSAdjEOAFAAAAAC8gwAAAPgYA5WAd3giSAfjECAFAAAAAM8jAAAABmCgEgBKI0AKAAAAAJ5FAAAAAAB+gwApAAAAAHhOiNENAAAAAAAAAAAAnkcAAAAAAAAAAAAAEyIAAAAAAAAAAACACREAAAAAAAAAAADAhAgAAAAAAAAAAABgQgQAAAAAAAAAAAAwIQIAAAAAAAAAAACYEAEAAAAAAAAAAABMiAAAAAAAAAAAAAAmRAAAAAAAAAAAAAATIgAAAAAAAAAAAIAJEQAAAAAAAAAAAMCECAAAAAAAAAAAAGBCBAAAAAAAAAAAADAhAgAAAAAAAAAAAJgQAQAAAAAAAAAAAEyIAAAAAAAAAAAAACZEAAAAAAAAAAAAABMiAAAAAAAAAAAAgAkRAAAAAAAAAAAAwIQIAAAAAAAAAAAAYEIEAAAAAAAAAAAAMCECAAAAAAAAAAAAmBABAAAAAAAAAAAATIgAAAAAAAAAAAAAJkQAAAAAAAAAAAAAEyIAAAAAAAAAAACACREAAAAAAAAAAADAhAgAAAAAAAAAAABgQgQAAAAAAAAAAAAwIQIAAAAAAAAAAACYEAEAeNS0adNksVhcftq0aeO8v6CgQKNGjVKjRo1Uv3599e/fX4cPH3bZx/79+5WcnKyIiAjFxsZq/Pjx+uOPP1y2+fTTT9WlSxeFhYXpggsu0GuvveaLwwMAAAAAAACAgEEAAB7Xrl07ZWZmOn82btzovG/MmDFatWqV3nrrLX322Wc6dOiQbr31Vuf9RUVFSk5O1qlTp/TVV1/p9ddf12uvvaYpU6Y4t8nIyFBycrKuueYapaWlafTo0XrggQf00Ucf+fQ4AQAAAAAAAMCf1TK6ATCfWrVqyWq1lro9Ly9Pr7zyipYvX64ePXpIkpYsWaK2bdtq06ZN6tatmz7++GNt375d69atU1xcnDp16qSnnnpKEyZM0LRp01SnTh0tWrRICQkJevbZZyVJbdu21caNGzVv3jz17t3bp8cKAAAAAAAAAP6KFQDwuD179qhp06Y6//zzNWjQIO3fv1+StHXrVp0+fVo9e/Z0btumTRudd955Sk1NlSSlpqaqQ4cOiouLc27Tu3dv5efn68cff3Ruc/Y+HNs49gEAAAAAAAAAYAUAPOyyyy7Ta6+9ptatWyszM1PTp0/XlVdeqfT0dGVlZalOnTpq0KCBy9/ExcUpKytLkpSVleUy+O+433FfRdvk5+fr5MmTqlu3bpltKywsVGFhofP3/Pz8Gh0rAAAAAAAAAPgzAgDwqOuvv975/44dO+qyyy5T8+bNtXLlynIH5n1l9uzZmj59uqFtAAAAAAAAAABfIQUQvKpBgwa68MIL9dNPP8lqterUqVPKzc112ebw4cPOmgFWq1WHDx8udb/jvoq2iYqKqjDIMHHiROXl5Tl/Dhw4UNPDAwAAAAAAAAC/RQAAXnXs2DHt3btX8fHxuvjii1W7dm2tX7/eef+uXbu0f/9+JSUlSZKSkpL0ww8/KDs727nN2rVrFRUVpcTEROc2Z+/DsY1jH+UJCwtTVFSUyw8AAAAAAAAAmBUBAHjUuHHj9Nlnn2nfvn366quvdMsttyg0NFQDBw5UdHS07r//fo0dO1YbNmzQ1q1bdd999ykpKUndunWTJF133XVKTEzU3Xffre+++04fffSRJk2apFGjRiksLEySNGLECP388896/PHHtXPnTr344otauXKlxowZY+ShAwAAAAAAAIBfoQYAPOrXX3/VwIEDlZOToyZNmqh79+7atGmTmjRpIkmaN2+eQkJC1L9/fxUWFqp379568cUXnX8fGhqq1atXa+TIkUpKSlK9evU0ZMgQzZgxw7lNQkKC1qxZozFjxmjBggU699xz9fLLL6t3794+P14AAAAAAAAA8FcWu91uN7oRgBHy8/MVHR2tvLw80gEBAACvoc8RWHi9AACAL9DngK+QAggAAAAAAAAAABMiAAAAAAAAAAAAgAkRAAAAAAAAAAAAwIQIAAAAAAAAAAAAYEIEAAAAAAAAAAAAMCECAAAAAAAAAAAAmBABAAAAAAAAAAAATIgAACRJBw4c0K+//ur8ffPmzRo9erReeuklA1sFAAAAAAAAAKguAgCQJN11113asGGDJCkrK0u9evXS5s2b9Ze//EUzZswwuHUAAAAAAAAAgKoiAABJUnp6ui699FJJ0sqVK9W+fXt99dVXWrZsmV577TVjGwcAAAAAAAAAqDICAJAknT59WmFhYZKkdevW6aabbpIktWnTRpmZmUY2DQAAAAAAAABQDQQAIElq166dFi1apC+++EJr165Vnz59JEmHDh1So0aNDG4dAAAAAAAAAKCqCABAkjRnzhz94x//0NVXX62BAwfqoosukiS9//77ztRAAAAAAAAAAIDAUcvoBsA/XH311fr999+Vn5+vhg0bOm8fPny4IiIiDGwZAAAAAAAAAKA6CADAKTQ01GXwX5JatGhhTGMAAAAAAAAAADVCAACSpJycHE2ZMkUbNmxQdna2bDaby/1HjhwxqGUAAAAAAAAAgOogAABJ0t13362ffvpJ999/v+Li4mSxWIxuEgAAAAAAAACgBggAQJL0xRdfaOPGjc7ivwAAAAAAAACAwBZidAPgH9q0aaOTJ08a3QwAAAAAAAAAgIcQAIAk6cUXX9Rf/vIXffbZZ8rJyVF+fr7LDwAAAAAAAAAgsJACCJKkBg0aKD8/Xz169HC53W63y2KxqKioyKCWAQAAAAAAAACqgwAAJEmDBg1S7dq1tXz5cooAAwAAAAAAAIAJEACAJCk9PV3ffvutWrdubXRTAAAAAAAAAAAeQA0ASJK6du2qAwcOGN0MAAAAAAAAAICHsAIAkqQ///nPevTRRzV+/Hh16NBBtWvXdrm/Y8eOBrUMAAAAAAAAAFAdBAAgSbrzzjslSUOHDnXeZrFYKAIMAAAAAAAAAAGKAAAkSRkZGUY3AQAAAAAAAADgQQQAIElq3ry50U0AAAAAAAAAAHgQRYABAAAAAAAAADAhAgAAAAAAAAAAAJgQAQAAAAAAAAAAAEyIAAAAAAAAAAAAACZEEWC4OHXqlLKzs2Wz2VxuP++88wxqEQAAAAAAAACgOggAQJK0Z88eDR06VF999ZXL7Xa7XRaLRUVFRQa1DAAAAAAAAABQHQQAIEm69957VatWLa1evVrx8fGyWCxGNwkAAAAAAAAAUAMEACBJSktL09atW9WmTRujmwIAAAAAAAAA8AACAJAkJSYm6vfffze6GQAA1EiRza7NGUeUfbRAsZHhujQhRqEhrGoDAAAAAAQnAgCQJM2ZM0ePP/64Zs2apQ4dOqh27dou90dFRRnUMgAA3JOSnqnpq7YrM6/AeVt8dLim9k1Un/bxBrYMAAAAAABjEACAJKlnz56SpGuvvdbldooAAwACQUp6pkYu3SZ7iduz8go0cuk2LRzchSAAAAAAACDoEACAJGnDhg1GNwEAgGopstk1fdX2UoP/kmSXZJE0fdV29Uq0kg4IAAAAABBUCABAknTVVVcZ3QRUATmuAeCMzRlHXNL+lGSXlJlXoM0ZR5TUspHvGgYAAAAAgMEIAASx77//Xu3bt1dISIi+//77Crft2LGjj1qFypDjGgBcZR8tf/C/OtsBAAAAAGAWBACCWKdOnZSVlaXY2Fh16tRJFotFdnvpBArUAPAf5LgGgNJiI8M9uh0AAAAAAGZBACCIZWRkqEmTJs7/w7+R4xoAynZpQozio8OVlVdQ5mekRZI1ujhdGgAAAAAAwYQAQBBr3rx5mf+HfyLHNQCULTTEoql9EzVy6TZZJJcggCMcOrVvIsFRAAAAAEDQCTG6AQDcQ45rAChfn/bxWji4i6zRrml+rNHhpk6PVmSzK3Vvjt5LO6jUvTkqspW1BgIAAAAAEKxYAQAECHJcA0DF+rSPV69EqzZnHFH20QLFRhan/THrzH+KwgMAAAAAKkMAAAgQ5LgGgMqFhliCIg0aReEBAAAAAO4gBRAQIBw5rqUzOa0dyHENAMGjsqLwUnFReNIBAQAAAAAIAMApNzdXL7/8siZOnKgjR45IkrZt26aDBw8a3DI4BGuOa5xBvm8AVSkKDwAAAAAIbqQAgiTp+++/V8+ePRUdHa19+/Zp2LBhiomJ0dtvv639+/frjTfeMLqJ+J9gy3GNM8j3DUCiKDwAAAAAwH2sAIAkaezYsbr33nu1Z88ehYefmV1+ww036PPPPzewZSiLI8d1v07nKKllIwb/g4Aj33fJWb+OfN8p6ZkGtQyAr1EUHgAAAADgLgIAkCRt2bJFDz74YKnbzznnHGVlZRnQIgAO5PsGcDZHUfjyQr8WFa8Ooig8AAAAAIAAACRJYWFhys/PL3X77t271aRJEwNaBMCBfN8AzkZReAAAAACAuwgAQJJ00003acaMGTp9+rQkyWKxaP/+/ZowYYL69+9vcOuA4Ea+bwAlURQeAAAAAOAOigBDkvTss8/qtttuU2xsrE6ePKmrrrpKWVlZSkpK0syZM41uHhDUyPcNoCxGFIUvstkpQg8AAAAAAYQAACRJ0dHRWrt2rTZu3Kjvv/9ex44dU5cuXdSzZ0+jmwYEPUe+76y8gjLrAFhUPOuXfN9A8HEUhfeFlPRMTV+13SUlWXx0uKb2TWTFAQAAAAD4KQIAcNG9e3d1797d6GYAOIsj3/fIpdtkkVyCAOT7BuALKemZGrl0W6kgZFZegUYu3UbaIQAAAADwUwQA4LRlyxZt2LBB2dnZstlsLvc999xzBrUKgHQm33fJ2bdWZt8C8LIim13TV20vcwWSXcWByOmrtqtXopVAJAAAAAD4GQIAkCTNmjVLkyZNUuvWrRUXFyeL5cwF/Nn/B2AcI/J9A8DmjCMugceS7JIy8wq0OeOIz9IRAQAAAADcQwAAkqQFCxbo1Vdf1b333mt0UwBUwJf5vgFAkrKPlj/4X53tAAAAAAC+QwAAkqSQkBBdccUVRjcDAAD4mdjIcI9u5w1FNjuro+Axdntxwqv8/HyDWwIAAMzM0ddw9D0AbyEAAEnSmDFj9Pe//13z58/36H6feeYZTZw4UY8++qhz3wUFBXrsscf05ptvqrCwUL1799aLL76ouLg459/t379fI0eO1IYNG1S/fn0NGTJEs2fPVq1aZ07ZTz/9VGPHjtWPP/6oZs2aadKkSaxgAIAaYiAVJV2aEKP46HBl5RWUWQfAouJ6JJcmxPi6aZKKCxSXrI8ST30U1MDRo0clSc2aNTO4JQAAIBgcPXpU0dHRRjcDJkYAAJKkcePGKTk5WS1btlRiYqJq167tcv/bb79d5X1u2bJF//jHP9SxY0eX28eMGaM1a9borbfeUnR0tB5++GHdeuut+vLLLyVJRUVFSk5OltVq1VdffaXMzEzdc889ql27tmbNmiVJysjIUHJyskaMGKFly5Zp/fr1euCBBxQfH6/evXtX81lAWRgMBIIHA6koS2iIRVP7Jmrk0m2ySC5BAMe3wdS+iYZ8N6SkZ2rk0m2lAhNZeQUauXSbFg7uwrmLKmvatKkOHDigyMjIKtXCys/PV7NmzXTgwAFFRUV5sYX+J1iPPViPW+LYg/HYg/W4peA99mA9bsl3x26323X06FE1bdrUa48BSJLFzjoTSHr44Yf18ssv65prrilVBFiSlixZUqX9HTt2TF26dNGLL76op59+Wp06ddL8+fOVl5enJk2aaPny5brtttskSTt37lTbtm2Vmpqqbt266cMPP9SNN96oQ4cOOVcFLFq0SBMmTNBvv/2mOnXqaMKECVqzZo3S09OdjzlgwADl5uYqJSXFrTbm5+crOjpaeXl5Qfdl5i4GA4HgUd5AquPbgIFU+Nt3QpHNru5zPim3QLFjZcLGCT0MD1zT5wgOwfw6B+uxB+txSxx7MB57sB63FLzHHqzHLQX3scOcWAEASdLrr7+u//znP0pOTvbI/kaNGqXk5GT17NlTTz/9tPP2rVu36vTp0+rZs6fztjZt2ui8885zBgBSU1PVoUMHl5RAvXv31siRI/Xjjz+qc+fOSk1NddmHY5vRo0eX26bCwkIVFhY6fyeva8WYVQkEjyKbXdNXbS8zvYtdxQOp01dtV69Eq+EDqTBOn/bx6pVo9ZtVYZszjpQ7+C8Vn7uZeQXanHGE4ukAAAAAghYBAEiSYmJi1LJlS4/s680339S2bdu0ZcuWUvdlZWWpTp06atCggcvtcXFxysrKcm5z9uC/437HfRVtk5+fr5MnT6pu3bqlHnv27NmaPn16tY8rmDAYCAQXBlK9w4wp1EJDLH5zDmQfLf+crc52AAAAAGBGBAAgSZo2bZqmTp2qJUuWKCIiotr7OXDggB599FGtXbtW4eHhHmxhzU2cOFFjx451/u7I6YbSGAwEggsDqZ7nb+lyzCg20r1+hrvbATUVFhamqVOnKiwszOim+FywHnuwHrfEsQfjsQfrcUvBe+zBetxScB87zIkAACRJzz//vPbu3au4uDi1aNGiVBHgbdu2ubWfrVu3Kjs7W126dHHeVlRUpM8//1wvvPCCPvroI506dUq5ubkuqwAOHz4sq9UqSbJardq8ebPLfg8fPuy8z/Gv47azt4mKiipz9r9U/AHOh7d7GAwEggsDqZ5FCjXfuDQhRvHR4crKKyhzxZqjBsClCTG+bhqCVFhYmKZNm2Z0MwwRrMcerMctcezBeOzBetxS8B57sB63FNzHDnMiAABJ0s033+yR/Vx77bX64YcfXG6777771KZNG02YMEHNmjVT7dq1tX79evXv31+StGvXLu3fv19JSUmSpKSkJM2cOVPZ2dmKjY2VJK1du1ZRUVFKTEx0bvPBBx+4PM7atWud+0DNMBgIBBcGUj2HFGq+Expi0dS+iRq5dJsskstz7nhmp/ZN5HkGAAAAENQIAECSNHXqVI/sJzIyUu3bt3e5rV69emrUqJHz9vvvv19jx45VTEyMoqKi9Oc//1lJSUnq1q2bJOm6665TYmKi7r77bs2dO1dZWVmaNGmSRo0a5ZzBP2LECL3wwgt6/PHHNXToUH3yySdauXKl1qxZ45HjCHYMBgLBhYFUzyGFmm/1aR+vhYO7lEq3ZCXdEgAAAABIIgAAA8ybN08hISHq37+/CgsL1bt3b7344ovO+0NDQ7V69WqNHDlSSUlJqlevnoYMGaIZM2Y4t0lISNCaNWs0ZswYLViwQOeee65efvll9e7d24hDMh0GA4Hgw0CqZ5BCzff6tI9Xr0Sr6QouAwAAAIAnWOx2e1kTfBEEYmJitHv3bjVu3FgNGzaUxVL+hfKRI0d82DLfyM/PV3R0tPLy8hQVFWV0c/wSRSyB4FNkszOQWgOpe3M0cPGmSrdbMawbKwCCCH0OAAAAAEYJMboBMM68efMUGRnp/H9FPwhOfdrHa+OEHloxrJsWDOikFcO6aeOEHgz+AwYrstmVujdH76UdVOreHBXZPBfLDw2xKKllI/XrdI6SWjZi8L+KHCnUynvWLCoOpJJCDTCHZ555RhaLRaNHj3beVlBQoFGjRqlRo0aqX7+++vfvr8OHDxvXSC8p69ivvvpqWSwWl58RI0YY10gPmTZtWqnjatOmjfN+s77mlR23WV9vh4MHD2rw4MFq1KiR6tatqw4dOuibb75x3m+32zVlyhTFx8erbt266tmzp/bs2WNgiz2jsuO+9957S73uffr0MbDFntGiRYtSx2WxWDRq1ChJ5n2fS5Ufu1nf60VFRZo8ebISEhJUt25dtWzZUk899ZTOnidt1vc5gg8pgILYkCFDnP+/9957jWsI/JpjMBCAf2Bljn8jhRoQPLZs2aJ//OMf6tixo8vtY8aM0Zo1a/TWW28pOjpaDz/8sG699VZ9+eWXBrXU88o7dkkaNmyYS+rOiIgIXzbNa9q1a6d169Y5f69V68yltJlf84qOWzLv6/3f//5XV1xxha655hp9+OGHatKkifbs2aOGDRs6t5k7d66ef/55vf7660pISNDkyZPVu3dvbd++XeHh4Qa2vvrcOW5J6tOnj5YsWeL83VGrL5Bt2bJFRUVFzt/T09PVq1cv3X777ZLM/T6v7Nglc77X58yZo4ULF+r1119Xu3bt9M033+i+++5TdHS0HnnkEUnmfJ8jOBEAgKTivPuZmZmKjY11uT0nJ0exsbEuXwYAAGOkpGdq5NJtpYpzZ+UVaOTSbVo4uAtBAD9APQXA/I4dO6ZBgwZp8eLFevrpp5235+Xl6ZVXXtHy5cvVo0cPSdKSJUvUtm1bbdq0Sd26dTOqyR5T3rE7REREyGq1GtAy76pVq1aZx2X217y843Yw6+s9Z84cNWvWzGWQOyEhwfl/u92u+fPna9KkSerXr58k6Y033lBcXJzeffddDRgwwOdt9oTKjtshLCzMdK97kyZNXH5/5pln1LJlS1111VWmf59XdOwOZnyvf/XVV+rXr5+Sk5MlFa+EWLFihTZv3izJvO9zBCdSAEGSVF4piMLCQtWpU8fHrQEAlFRks2v6qu2lBv+lM7PMp6/a7tF0QKg+UqgB5jZq1CglJyerZ8+eLrdv3bpVp0+fdrm9TZs2Ou+885SamurrZnpFecfusGzZMjVu3Fjt27fXxIkTdeLECR+30Dv27Nmjpk2b6vzzz9egQYO0f/9+SeZ/zcs7bgezvt7vv/++unbtqttvv12xsbHq3LmzFi9e7Lw/IyNDWVlZLq97dHS0LrvssoB+3Ss7bodPP/1UsbGxat26tUaOHKmcnBwDWus9p06d0tKlSzV06FBZLBbTv8/PVvLYHcz4Xr/88su1fv167d69W5L03XffaePGjbr++uslmfd9juDECoAg9/zzz0uSLBaLXn75ZdWvX995X1FRkT7//HOXPI8AvI8irCjL5owjLrPJS7JLyswr0OaMI6Tt8hOkUAPM6c0339S2bdu0ZcuWUvdlZWWpTp06atCggcvtcXFxysrK8lELvaeiY5eku+66S82bN1fTpk31/fffa8KECdq1a5fefvttH7fUsy677DK99tprat26tTIzMzV9+nRdeeWVSk9PN/VrXtFxR0ZGmvb1lqSff/5ZCxcu1NixY/Xkk09qy5YteuSRR1SnTh0NGTLE+drGxcW5/F2gv+6VHbdUnP7n1ltvVUJCgvbu3asnn3xS119/vVJTUxUaGmrwEXjGu+++q9zcXGeqZDO/z0sqeeySeT/bn3jiCeXn56tNmzYKDQ1VUVGRZs6cqUGDBkmSad/nCE4EAIKco8Cv3W7XokWLXL6w69SpoxYtWmjRokVGNQ8IOuR3R3myj5Y/+F+d7QAAVXfgwAE9+uijWrt2bdDl/nXn2IcPH+78f4cOHRQfH69rr71We/fuVcuWLX3VVI9zzAaVpI4dO+qyyy5T8+bNtXLlStWtW9fAlnlXRcd9//33m/b1liSbzaauXbtq1qxZkqTOnTsrPT1dixYtcqmlZzbuHPfZaU86dOigjh07qmXLlvr000917bXXGtJuT3vllVd0/fXXq2nTpkY3xefKOnazvtdXrlypZcuWafny5WrXrp3S0tI0evRoNW3a1NTvcwQnUgAFuYyMDGVkZOiqq67Sd9995/w9IyNDu3bt0kcffaTLLrvM6GYCQcGR373kLG9HfveU9EyDWgZ/EBvp3kCTu9sBAKpu69atys7OVpcuXVSrVi3VqlVLn332mZ5//nnVqlVLcXFxOnXqlHJzc13+7vDhwwGfO7myYy+rZpjjOuKnn37ydXO9qkGDBrrwwgv1008/yWq1mvY1L+ns4y6LmV7v+Ph4JSYmutzWtm1bZwokx2t7+PBhl20C/XWv7LjLcv7556tx48ameN0l6ZdfftG6dev0wAMPOG8Llvd5WcdeFrO818ePH68nnnhCAwYMUIcOHXT33XdrzJgxmj17tiTzvs8RnAgAQJK0YcMGNWzY0OhmAEGL/O4oS5HNrtS9OXov7aBsNrusUeEqLxmURcWrRS5NiPFlEwEgqFx77bX64YcflJaW5vzp2rWrBg0a5Px/7dq1tX79euff7Nq1S/v371dSUpKBLa+5yo69rNQfaWlpkooHFc3k2LFj2rt3r+Lj43XxxReb9jUv6ezjLouZXu8rrrhCu3btcrlt9+7dat68uaTiwrhWq9Xldc/Pz9fXX38d0K97Zcddll9//VU5OTmmeN2l4uK+sbGxzsKwkoLmfV7WsZfFLO/1EydOKCTEdVg0NDRUNptNknnf5whOpAACAD9AfneUVFY6qAYRtWVX8WD/2aEgR1Bgat9E6kUAgBdFRkaqffv2LrfVq1dPjRo1ct5+//33a+zYsYqJiVFUVJT+/Oc/KykpSd26dTOiyR5T2bHv3btXy5cv1w033KBGjRrp+++/15gxY/SnP/1JHTt2NKjVnjFu3Dj17dtXzZs316FDhzR16lSFhoZq4MCBio6ONu1rXtFxm/n1lqQxY8bo8ssv16xZs3THHXdo8+bNeumll/TSSy9JKq6hN3r0aD399NNq1aqVEhISNHnyZDVt2lQ333yzsY2vgcqO+9ixY5o+fbr69+8vq9WqvXv36vHHH9cFF1yg3r17G9z6mrPZbFqyZImGDBmiWrXODJeZ+X3uUN6xm/m93rdvX82cOVPnnXee2rVrp2+//VbPPfechg4dKsm873MEJwIAAOAHyO+OsznSQZVc75F34rQkKTqitnL/939JslInAgD8xrx58xQSEqL+/fursLBQvXv31osvvmh0s7yuTp06WrdunebPn6/jx4+rWbNm6t+/vyZNmmR002rs119/1cCBA5WTk6MmTZqoe/fu2rRpk5o0aSLJvK95RcddUFBg2tdbki655BK98847mjhxombMmKGEhATNnz/fWRxUkh5//HEdP35cw4cPV25urrp3766UlJSArg9S2XGHhobq+++/1+uvv67c3Fw1bdpU1113nZ566imFhYUZ3PqaW7dunfbv3+8cAD6bWd/nDuUdu5k/2//2t79p8uTJeuihh5Sdna2mTZvqwQcf1JQpU5zbmPF9juBksdvt5JNAUMrPz1d0dLTy8vIUFRVldHMQ5FL35mjg4k2VbrdiWDdWAJhckc2u7nM+KXdFiEVSXFSYnr2jk34/VqjYyOK0P8z8B/wXfQ4AAAAARmEFAAD4gUsTYhQfHa6svIIy6wBYVDzLm/zu5udOOqis/EKFWCzq1+kc3zUMAAAAAAAEHAIAcMrNzdXmzZuVnZ3tLHricM899xjUKpytyGbX5owjyj5awKxfkwkNsWhq30SNXLqN/O5BjnRQAAAAAADAUwgAQJK0atUqDRo0SMeOHVNUVJQsljODjBaLhQCAHyirIGg8eb9NpU/7eC0c3KXU60x+9+ASG+lePkl3twMAAAAAAMGLGgCQJF144YW64YYbNGvWLEVERBjdHJ8IpHy85RUEdYRpFg7uwuCwibDSI7g5agBUlg5q44QenBdAgAikPgcAAAAAcwkxugHwDwcPHtQjjzwSNIP/gaTIZtf0VdvLHAh03DZ91XYV2YjlmUVoiEVJLRupX6dzlNSyEYO8QcaRDko6E+RzIB0UAAAAAACoCgIAkCT17t1b33zzjdHNQBncKQiamVegzRlHfNcoAF7lSAdljXZN82ONDmfFDwAAAAAAcBs1ACBJSk5O1vjx47V9+3Z16NBBtWvXdrn/pptuMqhloCAoEJz6tI9Xr0Qr6aAAAAAAAEC1EQCAJGnYsGGSpBkzZpS6z2KxqKioyNdNwv9QEBQIXo50UAAAAAAAANVBCiBIkmw2W7k/DP4b69KEGMVHh5fKBe5gkRQfXTwzGAAAAACC0bRp09SpU6ca7+e1115TgwYNaryfQHrsffv2yWKxKC0tzeePDQDwPgIAgJ+jICgAAAAAb7BYLBX+TJs2zegmum3cuHFav359jfdz5513avfu3R5oUcVatGih+fPnG/LYJTVr1kyZmZlq3769zx8bAOB9BADg9Nlnn6lv37664IILdMEFF+imm27SF198YXSzIAqCAgAAAPC8zMxM58/8+fMVFRXlctu4ceOc29rtdv3xxx8GtrZi9evXV6NGNU+dWLduXcXGxnqgRYHz2KGhobJarapViyzRAGBGBAAgSVq6dKl69uypiIgIPfLII3rkkUdUt25dXXvttVq+fLnRzYOKgwAbJ/TQimHdtGBAJ60Y1k0bJ/Rg8N8Eimx2pe7N0XtpB5W6N0dFNrvRTUKQ4RwEACA4Wa1W5090dLQsFovz9507dyoyMlIffvihLr74YoWFhWnjxo3au3ev+vXrp7i4ONWvX1+XXHKJ1q1b57LfFi1aaNasWRo6dKgiIyN13nnn6aWXXnLef+rUKT388MOKj49XeHi4mjdvrtmzZzvvt1gs+sc//qEbb7xRERERatu2rVJTU/XTTz/p6quvVr169XT55Zdr7969zr8pmQLo008/1aWXXqp69eqpQYMGuuKKK/TLL79Ikr777jtdc801ioyMVFRUlC6++GJ98803kspOw7Nw4UK1bNlSderUUevWrfXPf/7T5X6LxaKXX35Zt9xyiyIiItSqVSu9//775T7vV199tX755ReNGTPGudqirMd2HNOrr76q8847T/Xr19dDDz2koqIizZ07V1arVbGxsZo5c6bL/nNzc/XAAw+oSZMmioqKUo8ePfTdd9+V256SKYA+/fRTWSwWrV+/Xl27dlVERIQuv/xy7dq1q9J9rFy5UldeeaXq1q2rSy65RLt379aWLVvUtWtX1a9fX9dff71+++03599V9DoBADyDAAAkSTNnztTcuXP1r3/9yxkA+Ne//qVnnnlGTz31lNHNw/84CoL263SOklo2Iu2PCaSkZ6r7nE80cPEmPfpmmgYu3qTucz5RSnqm0U1DkOAcBAAAFXniiSf0zDPPaMeOHerYsaOOHTumG264QevXr9e3336rPn36qG/fvtq/f7/L3z377LPq2rWrvv32Wz300EMaOXKkcwD5+eef1/vvv6+VK1dq165dWrZsmVq0aOHy90899ZTuuecepaWlqU2bNrrrrrv04IMPauLEifrmm29kt9v18MMPl9nmP/74QzfffLOuuuoqff/990pNTdXw4cOdA+2DBg3Sueeeqy1btmjr1q164oknVLt27TL39c477+jRRx/VY489pvT0dD344IO67777tGHDBpftpk+frjvuuEPff/+9brjhBg0aNEhHjhwpc59vv/22zj33XM2YMcO52qI8e/fu1YcffqiUlBStWLFCr7zyipKTk/Xrr7/qs88+05w5czRp0iR9/fXXzr+5/fbblZ2drQ8//FBbt25Vly5ddO2115bbnvL85S9/0bPPPqtvvvlGtWrV0tChQyv9m6lTp2rSpEnatm2batWqpbvuukuPP/64FixYoC+++EI//fSTpkyZIqny1wkA4Bms74Ik6eeff1bfvn1L3X7TTTfpySefNKBFgPmlpGdq5NJtKjnXOiuvQCOXbiO9E7yOcxAAAFRmxowZ6tWrl/P3mJgYXXTRRc7fn3rqKb3zzjt6//33XQbkb7jhBj300EOSpAkTJmjevHnasGGDWrdurf3796tVq1bq3r27LBaLmjdvXupx77vvPt1xxx3Ov09KStLkyZPVu3dvSdKjjz6q++67r8w25+fnKy8vTzfeeKNatmwpSWrbtq3z/v3792v8+PFq06aNJKlVq1blHv9f//pX3Xvvvc5jGTt2rDZt2qS//vWvuuaaa5zb3XvvvRo4cKAkadasWXr++ee1efNm9enTp9Q+Y2JiFBoaqsjISFmt1nIfW5JsNpteffVVRUZGKjExUddcc4127dqlDz74QCEhIWrdurXmzJmjDRs26LLLLtPGjRu1efNmZWdnKywszHkM7777rv79739r+PDhFT7e2WbOnKmrrrpKUnEgKDk5WQUFBQoPDy/3b8aNG+fyGg0cOFDr16/XFVdcIUm6//779dprr0mq/HUCAHgGKwAgqbjoT1kFk9atW6dmzZoZ0CLA3Ipsdk1ftb3UwKsk523TV20nFQu8hnMQvkB6KQAIfF27dnX5/dixYxo3bpzatm2rBg0aqH79+tqxY0epFQAdO3Z0/t+RWig7O1tS8WB5WlqaWrdurUceeUQff/xxqcc9++/j4uIkSR06dHC5raCgQPn5+aX+NiYmRvfee6969+6tvn37asGCBS6z7MeOHasHHnhAPXv21DPPPOOSSqikHTt2OAevHa644grt2LGj3PbWq1dPUVFRzuOtiRYtWigyMtL5e1xcnBITExUSEuJym+OxvvvuOx07dkyNGjVS/fr1nT8ZGRkVHmdZzj6m+PjiSSGVHZM7r5tjH5W9TgAAzyAAAEnSY489pkceeUQjR47UP//5T/3zn//UiBEjNHr0aJfCTwA8Y3PGEWXmFZR7v11SZl6BNmdUbZku4C7OQTh4a5Ce9FIAYA716tVz+X3cuHF65513NGvWLH3xxRdKS0tThw4ddOrUKZftSqbUsVgsstlskqQuXbooIyNDTz31lE6ePKk77rhDt912W7l/70gJU9Ztjn2WtGTJEqWmpuryyy/Xv/71L1144YXatGmTpOLc+j/++KOSk5P1ySefKDExUe+8847bz0lZKjpeT++3osc6duyY4uPjlZaW5vKza9cujR8/vtqPXdnzXdHflLzt7H1U9DoBADyDFECQJI0cOVJWq1XPPvusVq5cKal46d2//vUv9evXz+DWAeaTfbT8gdfqbAdUFecgpOJB+umrtrsEg+KjwzW1b2KN0j+RXgoAzOvLL7/Uvffeq1tuuUVS8YDzvn37qryfqKgo3Xnnnbrzzjt12223qU+fPjpy5IhiYmI81tbOnTurc+fOmjhxopKSkrR8+XJ169ZNknThhRfqwgsv1JgxYzRw4EAtWbLEeUxna9u2rb788ksNGTLEeduXX36pxMTEGrWtTp06KioqqtE+ytKlSxdlZWWpVq1apeoq+KuKXicAQM0RAIDTLbfcUmaHB4DnxUaWnzezOtsBVcU5CG8N0leWXsqi4vRSvRKtFLMHgADUqlUrvf322+rbt68sFosmT55c5Znuzz33nOLj49W5c2eFhITorbfektVqVYMGDTzSxoyMDL300ku66aab1LRpU+3atUt79uzRPffco5MnT2r8+PG67bbblJCQoF9//VVbtmxR//79y9zX+PHjdccdd6hz587q2bOnVq1apbffflvr1q2rURtbtGihzz//XAMGDFBYWJgaN25co/059OzZU0lJSbr55ps1d+5cXXjhhTp06JDWrFmjW265pVRKJyNV9DoBADyHAABgckU2uzZnHFH20QLFRobr0oQYBlz8wKUJMYqPDldWXkGZg2QWSdbo4tcL8AbOweDmzUH6qqSXSmrZqEr7BgAY77nnntPQoUN1+eWXq3HjxpowYUKZefgrEhkZqblz52rPnj0KDQ3VJZdc4ixq6wkRERHauXOnXn/9deXk5Cg+Pl6jRo3Sgw8+qD/++EM5OTm65557dPjwYTVu3Fi33nqrpk+fXua+br75Zi1YsEB//etf9eijjyohIUFLlizR1VdfXaM2zpgxQw8++KBatmypwsJC2e2eScFnsVj0wQcf6C9/+Yvuu+8+/fbbb7JarfrTn/7kzMnvLyp6nQAAnmOxe+pbBgEnJiZGu3fvVuPGjdWwYUNnfr6yHDlivhzQ+fn5io6OVl5enqKiooxujld4K7UDPMMx+1aSyyCc451Iigx4G+dg8Erdm6OBiyvPr7tiWLcqD9K/l3ZQj76ZVul2CwZ0Ur9O51Rp34EqGPocAAAAAPwTKwCC2Lx58xQZGen8f0UBAAQe8i/7vz7t47VwcJdSQRprFYI0rPBATXjiHERg8mYNCNJLAQAAAID/IAAQxM4uYnTvvfca1xB4HPmXA0ef9vHqlWit1iA+KzzgCTU5BxG4vDlIT3opAAAAAPAfnkmwh4C3bds2/fDDD87f33vvPd1888168sknderUKQNbhuqoSv5lGC80xKKklo3Ur9M5SmrZyO3B/5FLt5V6nR0rPFLSM73VXJhQdc5BBDbHIH15r7RFxQHF6gzSh4ZYNLVvonM/JfcrSVP7JnKeAQAAAIAPEACAJOnBBx/U7t27JUk///yz7rzzTkVEROitt97S448/bnDrUJkim12pe3P0XtpBpe7NUVa+91I7wHiVrfCQild4FNko8QKgbN4epHekl7JGu64gsEaHk4IOAAAAAHyIFECQJO3evVudOnWSJL311lu66qqrtHz5cn355ZcaMGCA5s+fb2j7UL6y0sDE1Kvt1t+SfzkwVWWFR1WLdwIIHt6uAUF6KQAAAAAwHgEASJLsdrtsNpskad26dbrxxhslSc2aNdPvv/9uZNNQgfIK/R45frrCvyP/cmDzZvFOAGcEQ5Ftbw/SO9JLAQAAAACMQQAAkqSuXbvq6aefVs+ePfXZZ59p4cKFkqSMjAzFxcUZ3DqUpaI0MGezSC7bkH858HmzeKdDMAx8AhUJpiLbDNIDAAAAgHkRAIAkaf78+Ro0aJDeffdd/eUvf9EFF1wgSfr3v/+tyy+/3ODWoSyVpYFxaFivjo4cP1PI2VOpHWAcR/HOrLyCMgNANV3hEUwDn0BZyltd5SiyTQ57AAAAAECgsNjtdqpEolwFBQUKDQ1V7dru5ZQPJPn5+YqOjlZeXp6ioqKMbk6VvZd2UI++mVbpdvPuuEjW6LrM5DYZxwClVPYKj+oOUJY38FnT/QKBoshmV/c5n5QbYHUE2DZO6MFnKdwW6H0Of3P06FFNnjxZ77zzjrKzs9W5c2ctWLBAl1xyiaTi1JZTp07V4sWLlZubqyuuuEILFy5Uq1atDG45AAAA4HshRjcA/uHAgQP69ddfnb9v3rxZo0eP1htvvGHKwX8zcDe9izW6rpJaNlK/TucoqWUjBqxMwlG80xrteh5Yo8OrPUhfUVopx23TV21XkY24McyrKkW2ARjjgQce0Nq1a/XPf/5TP/zwg6677jr17NlTBw8elCTNnTtXzz//vBYtWqSvv/5a9erVU+/evVVQQG0cAAAABB9SAEGSdNddd2n48OG6++67lZWVpV69eqldu3ZatmyZsrKyNGXKFKObiBK8nQYG/s/TxTurMvBJvnCYFUW2Af928uRJ/ec//9F7772nP/3pT5KkadOmadWqVVq4cKGeeuopzZ8/X5MmTVK/fv0kSW+88Ybi4uL07rvvasCAAZU+hs1m06FDhxQZGSmLhYkTAADAO+x2u44ePaqmTZsqJIQ52vAeAgCQJKWnp+vSSy+VJK1cuVLt27fXl19+qY8//lgjRowgAOCHQkMsmto3USOXbqPQbxDzZPFOBj6BqhfZpmA24Ft//PGHioqKFB7u+l6tW7euNm7cqIyMDGVlZalnz57O+6Kjo3XZZZcpNTW1zABAYWGhCgsLnb8fPHhQiYmJ3jsIAACAsxw4cEDnnnuu0c2AiREAgCTp9OnTCgsLkyStW7dON910kySpTZs2yszMNLJpqIAjDUzJgq0U+kV1VHXgEzCjqqyuomA24HuRkZFKSkrSU089pbZt2youLk4rVqxQamqqLrjgAmVlZUmS4uLiXP4uLi7OeV9Js2fP1vTp00vdfuDAAWo2eNHa7Vl65sOdOpx/JvgSFxWmJ65vo16JVgNbBsDMimx2XTfvM5fPnrNZJMVGhenjMVcxqQNel5+fr2bNmikyMtLopsDkCABAktSuXTstWrRIycnJWrt2rZ566ilJ0qFDh9SoEak+/Jmn08AgeJFWquqY/W0+7q6uWrs9q8yC2Vl5BRq5dBsFswEv+uc//6mhQ4fqnHPOUWhoqLp06aKBAwdq69at1drfxIkTNXbsWOfvjovxqKgoAgBekpKeqXHv7pFdoQoJi3De/nuhNO7dPVpYP5LPUMDD6LcWS92bo98KXT97SvqtUNqZ8wdpT+EzpByEtxEAgCRpzpw5uuWWW/R///d/GjJkiC666CJJ0vvvv+9MDQT/5ck0MAhepJWqGmZ/m1dlq6t6JVrVfc4n5RbMtqi4YHavRCvvF8ALWrZsqc8++0zHjx9Xfn6+4uPjdeedd+r888+X1Vo8c/zw4cOKjz/zWXz48GF16tSpzP2FhYU5V8LC+4psdk1ftZ3PUMCH6LeeQdpTAMGIAAAkSVdffbV+//135efnq2HDhs7bhw8froiI8iPjCF7MIDEn0kq5JyU9k9nfJlfR6qrUvTkUzAb8QL169VSvXj3997//1UcffaS5c+cqISFBVqtV69evdw745+fn6+uvv9bIkSONbTAkSZszjvAZCvgQ/VZXpD0FEIwIAMApNDTUZfBfklq0aGFMY+DXmEFibqSVqhgzF4NHeaurmDkGGOujjz6S3W5X69at9dNPP2n8+PFq06aN7rvvPlksFo0ePVpPP/20WrVqpYSEBE2ePFlNmzbVzTffbHTTIT5DAV+i31oaaU8BBCMCAEGsS5cuWr9+vRo2bKjOnTtXmHNs27ZtPmwZ/BkzSIIDaaXKx8xFMHMMMFZeXp4mTpyoX3/9VTExMerfv79mzpyp2rVrS5Ief/xxHT9+XMOHD1dubq66d++ulJQUhYfznvQHfIYCvkO/tTTSngIIRgQAgli/fv2c+U6ZEQV3MIMEpH5i5iKYOVZdfH7AU+644w7dcccd5d5vsVg0Y8YMzZgxw4etgrv4DAV8h35r2Uh7CiDYEAAIYlOnTi3z/0B5mEES3Ej9VIyZi2DmWNXx+QHAgc9QwHeCtd/qzqQD0p4CCCYEAFDKsWPHZLPZXG6LiooyqDXwJ8wgCV6kfjqDmYuQgmfmmCdm7fP5AaCkYPkMBYwWjP3Wqkw6IO0pgGBBAACSpIyMDD388MP69NNPVVBw5ovSbrfLYrGoqKjIwNbBX9ImBOsMkmBH6idXzFyEg9lnjnli1j6fHwDKY/bPUMAfBFu/lUkHAFA2AgCQJA0ePFh2u12vvvqq4uLiKiwIDN/yp7QJwTiDBKR+KgszF+Fg1pljnrqA5vMDQEXM+hkK+JNg6bcy6QAAykcAAJKk7777Tlu3blXr1q2NbgrO4m8zGIJtBgmKkfqpbMxchFl58gKazw8AAIwXDP1WJh0AQPkIAECSdMkll+jAgQMEAPyIv85gCJYZJDiD1E/lY+YizMiTF9B8fgAAzuYvqU2Dkdn7rUw6AIDyEQCAJOnll1/WiBEjdPDgQbVv3161a9d2ub9jx44GtSx4+fMMhmCYQYIzSP0EBBdPXkDz+QEAcPCn1KYwHyYd+BeCfYB/IQAASdJvv/2mvXv36r777nPeZrFYKAJsIH+fwWD2GSQ4g9RPnkNHGIHA3Qvj348W6r20gxWey3x+AAAk/0ttCvNh0oH/INgH+B8CAJAkDR06VJ07d9aKFSsoAuwnmMEAf0Lqp5qjI4xAUdkFtCSFWKSn1uxw/l7RucznBwAEN39NbQpzYdKBfyDYB/gni91uL+/aDkGkXr16+u6773TBBRcY3RSfyc/PV3R0tPLy8hQVFWV0c0opstnVfc4nlc5g2DihB50Y+Awz2KunvI6w45mjIwx/4zhnJZUbBDibO+dyMH9++HufA6785fUK5vcMzCV1b44GLt5U6XYrhnVjhTFqjEk3xnGMYZSXypgxjNL8pc8B82MFACRJPXr0CLoAgL9jBgP8Eamfqo5ZbwhE5c3aD7FItjJOZnfOZT4/APcxgAUz8ffUpjAX6tUZx5/rGALBLsToBsA/9O3bV2PGjNG0adP0n//8R++//77Lj7sWLlyojh07KioqSlFRUUpKStKHH37ovL+goECjRo1So0aNVL9+ffXv31+HDx922cf+/fuVnJysiIgIxcbGavz48frjjz9ctvn000/VpUsXhYWF6YILLtBrr71Wo+P3V44BGGu0a5ofa3Q4M4YBgxTZ7Erdm6P30g4qdW+OisoaDT1LVTrCgD/p0z5eGyf00Iph3bRgQCdNTm5b5uC/A+cy4BmOFTglvzsc6RNS0jMNahlQPaQ2ha85Jh3063SOklo2YvDfRwj2Af6LFQCQJI0YMUKSNGPGjFL3VaUI8LnnnqtnnnlGrVq1kt1u1+uvv65+/frp22+/Vbt27TRmzBitWbNGb731lqKjo/Xwww/r1ltv1ZdffilJKioqUnJysqxWq7766itlZmbqnnvuUe3atTVr1ixJUkZGhpKTkzVixAgtW7ZM69ev1wMPPKD4+Hj17t3bQ8+I//D0DAaWkwPVV50ZmXSEEcjOnrX/XtpBt/6GcxmoPlaNwYwozgoEB4J9gP8iAABJks1m88h++vbt6/L7zJkztXDhQm3atEnnnnuuXnnlFS1fvlw9evSQJC1ZskRt27bVpk2b1K1bN3388cfavn271q1bp7i4OHXq1ElPPfWUJkyYoGnTpqlOnTpatGiREhIS9Oyzz0qS2rZtq40bN2revHmmDABInkubwHJyoPqqW9CKjjDMgnMZ8D7SJ8CMSG0Ks2OSXTGCfYD/IgUQypWbm1ujvy8qKtKbb76p48ePKykpSVu3btXp06fVs2dP5zZt2rTReeedp9TUVElSamqqOnTooLi4OOc2vXv3Vn5+vn788UfnNmfvw7GNYx/lKSwsVH5+vstPMGE5OVB9lc3IlIpnZJaVDsjRES7vEsCi4kAcHWH4O85lwPtYNQazIrUpzColPVPd53yigYs36dE30zRw8SZ1n/NJUF5fO4J9kkr1Fwn2AcYiAABJ0pw5c/Svf/3L+fvtt9+umJgYnXPOOfruu++qtK8ffvhB9evXV1hYmEaMGKF33nlHiYmJysrKUp06ddSgQQOX7ePi4pSVlSVJysrKchn8d9zvuK+ibfLz83Xy5Mly2zV79mxFR0c7f5o1a1al4wpkNRm8BHytqjn2faEmefzpCMMsOJcB72OlDTzJ3/pUJWvLrBjWTRsn9GDwPwj427noKUyyK41gH+CfSAEESdKiRYu0bNkySdLatWu1bt06paSkaOXKlRo/frw+/vhjt/fVunVrpaWlKS8vT//+9781ZMgQffbZZ95qutsmTpyosWPHOn/Pz88PmiAAy8kRKPw1TVVNZ2Q6OsIlj83qB8cWzFiuXXWcy4B3kT4BnuKvfSpPpTZF4PDXc7GmqNlSPk/XMQRQcwQAIKl4Vr1jMHz16tW64447dN1116lFixa67LLLqrSvOnXq6IILLpAkXXzxxdqyZYsWLFigO++8U6dOnVJubq7LKoDDhw/LarVKkqxWqzZv3uyyv8OHDzvvc/zruO3sbaKiolS3bt1y2xUWFqawsLAqHYtZsJwcgaC6OfZ9wRMzMukI+xezXoz6Aucy4D2eyJVOcBP+3KcKBLyHPMfM5yKT7CpGsA/wLwQAIElq2LChDhw4oGbNmiklJUVPP/20JMlut6uoqKhG+7bZbCosLNTFF1+s2rVra/369erfv78kadeuXdq/f7+SkpIkSUlJSZo5c6ays7MVGxsrqXhFQlRUlBITE53bfPDBBy6PsXbtWuc+UBrLyeHv/H0GjadmZNIR9g9mvhj1Fc5lwHtqstKG4Cb8vU/l73gPeY7Zz0Um2ZkTAUCYFQEASJJuvfVW3XXXXWrVqpVycnJ0/fXXS5K+/fZb52x+d0ycOFHXX3+9zjvvPB09elTLly/Xp59+qo8++kjR0dG6//77NXbsWMXExCgqKkp//vOflZSUpG7dukmSrrvuOiUmJuruu+/W3LlzlZWVpUmTJmnUqFHO2fsjRozQCy+8oMcff1xDhw7VJ598opUrV2rNmjWef2JMguXk8Hf+PoPGEzMy4Rk17ZSb/WIUgDm4s9Km5Ofhf4+f0qjlBDeDnb/3qbzh1B82/TN1n345ckLNYyJ0d1IL1alV9XKHTBDwLLOfi0yyMx8CgDAzAgCQJM2bN08tWrTQgQMHNHfuXNWvX1+SlJmZqYceesjt/WRnZ+uee+5RZmamoqOj1bFjR3300Ufq1auX83FCQkLUv39/FRYWqnfv3nrxxRedfx8aGqrVq1dr5MiRSkpKUr169TRkyBDNmDHDuU1CQoLWrFmjMWPGaMGCBTr33HP18ssvq3fv3h56NsyHwcvgEMizFQJhBg25z43niU65ry5GA/n9CMA/VLTSpqzPwxCLCG4iIPpUnjT7g+1a/EWGzq4pO/ODHRp2ZYIm3pDo9n6YIOB5Zj8XqzPJjv6h/yIACLMjAABJUu3atTVu3LhSt48ZM6ZK+3nllVcqvD88PFx///vf9fe//73cbZo3b14qxU9JV199tb799tsqtS3YMXhpboE+WyFQZtCQ+9w4nuqU++JiNNDfjwD8W3mfh7ayRqD+J9Bn2sJ9gdKn8oTZH2zXPz7PKHW7zS7n7e4GAcw+W7083hyQNvu5WNVJdvQP/RcBQAQDAgBw2rNnjzZs2KDs7GzZbDaX+6ZMmWJQq+BJDF6akxlmKwRSmipyn/ueJzvl3r4YNcP7EYD/qujz0B2BOtMW7gukPlVNnPrDpsVflB78P9viLzL02HVt3EoHZPbZ6mXx9oB0MJyL7k6yo3/o34I1AIjgQgAAkqTFixdr5MiRaty4saxWqyyWMwMoFouFAICJMHhpLmaZrUCaKlTEk51yb16MmuX9CMB/VfZ5WJlAnWkL9wVLn+qfqfsqXPUiFa8E+GfqPt1/5fmV7s/ss9VL8sWAdEXnov73+4BLmtXoMfxBZZPs6B/6v2AMACL4VL0yDkzp6aef1syZM5WVlaW0tDR9++23zp9t27YZ3TzA44psdqXuzdF7aQeVujdHRZVdQfipqgyM+jvHDBprtOuFlTU6nFkxQc6TnXLHxah0ZiDEoaYDI2Z6PwLwT9UdfLCoeGZvIM+0hfuCoU/1y5ETHt3OMUGgvG//QHoPVXadU9mAtFQ8IO2J66PyzkWHeev2qPucT5SSnlnjxzKSY5Jdv07nKKllI5d+JP3D8vnLNXmwBQARnFgBAEnSf//7X91+++1GNwPwCTPlXzTbbAXSVKEsnu6Ue6smitnejwD8T3UGH8w06xvuM3ufqnlMhEe3M8vKCXeuc3yd7sRxLr7wyU+at253qfvPXnVgxnN23fYst7YLtv6hP12TB0O6KoAAACRJt99+uz7++GONGDHC6KYAXmW2/ItmnK1AmiqU5I1OuTcGRsz4fgTgXyr7PJSkEItrQeCaBjcRuMzcp7o7qYVmfrCjwjRAIZbi7dzlrQkCvuLudY5RExbe3LK/zNsdaXCeePsHTXt/u7LyjR8QLkt1CiYX2ex6J+2gW/sP5P5hVZ8bb1yT16SgtVkCgEBFCABAknTBBRdo8uTJ2rRpkzp06KDatWu73P/II48Y1DLAc8yYf5HZCsarSWcT7vFWp9zTAyO8HwF4mzufhy8M7KyG9cL4XkJAcrdfVadWiIZdmaB/fF5+IeBhVya4VQD4bIG6cqIq1zlGTFhwZ9VB7onTkk673O4vk7SqO1t9c8YRHTl+utz7HRrVqxOw/cOqPjfeuCb3xGqCQA8AApUhAABJ0ksvvaT69evrs88+02effeZyn8ViIQAAU/D1cldfMGq2AoPexfxp6arZBUKnnNlDAHwhED4Pgeqoar/q8T5tdTC3QGu+z3T5zg2xFA/+T7whsVrtCMSVE1W5znFMWKhoe0/XO6juagJ/mKRVk9nq7h53v05NA7J/WJ3nxtPX5J5cTRCoAUDAHQQAIEnKyCh/5gRgFmbNz+3rgQAGvYuZLZ1UIAiETjkDcwB8IRA+D4GqqGq/qqz+aETtUN3QwapZt3as8sz/QFeV65zQEItuuii+wtUTN10U79HPk5qsJjByklZNZ6u7e9y9Eq01aqcRqvvcePKa3BurCQIxAAi4gwAAgKBh5vzcvhoIYNC7mBnTSQWKQOiUMzAHwBcC4fMQcEdV+1Xl9UdPni7Sf7YdVM/EuKDoj56tKtc5RTa73v8us8Lt3v8uU4/3aeuxvos79UsqY8QkrZrOVnfnuD292sJXqvvcePKa3Iwr/AFvIQAAp19//VXvv/++9u/fr1OnTrnc99xzzxnUKsBzzJ6f29sDAQx6n0FnE5VhYA4AAPdUNX0N/dHSqnKdU9nzLXm+H3t2msTq8uQkLXfTmdZ0trqZ00NW97nx5DW5WVf4A95AAACSpPXr1+umm27S+eefr507d6p9+/bat2+f7Ha7unTpYnTzAI8wcwfMFwJ50NvTNQvobFaOOhGew3MJADCzqvSrArk/6k1Vuc4xqh/bp328hv8pQYu/yJDtrAZaJEXUCdWJU0UenaRVXv+prPRRMfVq6+l+7XVDx6Yu+3A36LDv9xPl3mfW9JDVncnvyWtyM6/wBzyNAAAkSRMnTtS4ceM0ffp0RUZG6j//+Y9iY2M1aNAg9enTx+jmAR5j1g6YLwTqoLc3ahbQ2awYdSI8h+cScFVUVKRp06Zp6dKlysrKUtOmTXXvvfdq0qRJsliKBwvsdrumTp2qxYsXKzc3V1dccYUWLlyoVq1aGdx6AGWpSr/KX/qj/hicd/c6x6h+bEp6pl76PKPMQf7jp4okyWOTtMrrP910UXyZbThy/LQeWv6tHvw116V4tLupi+av263W1vrl9s3MmB6yJjP5PXVNbvYV/oAnEQCAJGnHjh1asWKFJKlWrVo6efKk6tevrxkzZqhfv34aOXKkwS0EPMeMHTBfCMRBb2/VLKCzWT7qRHgOzyVQ2pw5c7Rw4UK9/vrrateunb755hvdd999io6O1iOPPCJJmjt3rp5//nm9/vrrSkhI0OTJk9W7d29t375d4eH+8x2FmvHHAVhUT1XT17jDm/1Rfw7Ou3OdY0Q/1p1UotERtRVeK1RZ+TWbpFVe/ykzr6DCwseS9I/PM3TRuQ11Q8fix3PMVh/hRuqiylJPmS09ZE1n8nvimpwV/oD7CABAklSvXj1n3v/4+Hjt3btX7dq1kyT9/vvvRjYN8AqzdcB8IdAGvb1Zs4DOZtmoE+E5PJdA2b766iv169dPycnJkqQWLVpoxYoV2rx5s6Ti2f/z58/XpEmT1K9fP0nSG2+8obi4OL377rsaMGCAYW13stulE+Wni0Dl1v6YpVkf7lBWXqHzNmt0mJ68vq16tbMa2DJUR6ikGde20KNvpkkqu18149o2Cj15QpfGhimhrl2H8wrL7Y/GRYfp0tgw6fhxj7d17Y9ZGvtmmuyS6p51e95vBRr76lcKHdDJ8HMwVFKSNVyy/i8IcvJEqfvdfb495Zufc5T7W67Lc1ZS4akCLRzSVSEhFv12rFBN6oepa4v/DQi7+VoW2eya85+tCj9VWPnG5Zi64ms1VGddmtBIoSEW9UmI0vgrztELG/ZW+He5vxXomx8P6LLzg+cas09ClF66tU35n8cJURW+dpWdq75og9siIiQLfW4ELgIAkCR169ZNGzduVNu2bXXDDTfoscce0w8//KC3335b3bp1M7p5APxAoA16eztHLOmkSiMvr+fwXAJlu/zyy/XSSy9p9+7duvDCC/Xdd99p48aNeu655yRJGRkZysrKUs+ePZ1/Ex0drcsuu0ypqallBgAKCwtVWHhm0CA/P9+7B3HihFS/vncfw+R6/e+nlGm+bQc8p5ek7RVtMK/4n1BJG9zZ4bQaNqgc7rbT3/n6OC6TtMOdDWv4uG6fH5V5xvXXUf/7qVSAvP6e5A+fxz5pw7FjUr16Htwh4FsEACBJeu6553Ts2DFJ0vTp03Xs2DH961//UqtWrZwXVAD8ixFL3wNp0NsXOWJJJ+XKX/LymgHPJVC2J554Qvn5+WrTpo1CQ0NVVFSkmTNnatCgQZKkrKwsSVJcXJzL38XFxTnvK2n27NmaPn26dxsOAAAAGIQAAFRUVKRff/1VHTt2lFScDmjRokUGtwpARYzMPeqJQW9fBC98VbOAdFJnBGKdCH/FcwmUbeXKlVq2bJmWL1+udu3aKS0tTaNHj1bTpk01ZMiQau1z4sSJGjt2rPP3/Px8NWvWzFNNLi0iongmYRWR9kb6+ucc3btkS6XbvXbfJaZPw8H5UNyf/GbfkdLpYrxk9feHNP6t7yvd7v9u76gbOzb1WjvKs/bHLD36v/REZ3M8IwsMTE9UZLOr53OfVpq6ad3YqxUaYqn2+e3uZ4S7HO36aPRV6j3/s3LbL0khFum52zupd4fgeP/5kq/f62WKiPDt4wEeRgAACg0N1XXXXacdO3aoQYMGRjcHQCX8oTBoTQa9fRW8CLSaBWbAc+45PJdA2caPH68nnnjCmcqnQ4cO+uWXXzR79mwNGTJEVmvxwMvhw4cVH3/mO+Xw4cPq1KlTmfsMCwtTWFiY19vuZLFUOY1ASnqmRr69U3ZZpDpnAn/7TkrD396phRERfrUKz1uyinJ1sk7lgc+solBTp2rgfCgWKumyDp5Jp+XO5JRGsTFunX+NYmN8fv4V2eyasn6fTpTTPoukKev3qUfX8w1ZqRoqaUL/izXyf8V0y0olOqF/F4VG1tcH32fqobd3Ft9TxfO7a7sINWiyp9z+U3VknJS2/n7K2f6K9vvguzs15liRWjSuF/Qrgz3Fn4tuA4EkxOgGwD+0b99eP//8s9HNAFCJygqDSsWFQYtsnuryepYjeFEyt7kjeJGSnumxx3LULJDOXFg4+GPNAjMI5Oe8yGZX6t4cvZd2UKl7cwx/DwXycwl404kTJxQS4noJExoaKpvNJklKSEiQ1WrV+vXrnffn5+fr66+/VlJSkk/b6imB/t3vSayO4nzwhpT0THWf84kGLt6kR99M08DFm9R9ziel+qWO4Hx537wWFQ9MGhGcr0rtIKM4Uolao13fn9bocOcEpg++P6SHV2wr8+/dOb8r6z9ZJPVKjK1y27OPFqhP+3j9/a7OqqzrNW/dngrPI7jPl9eOgNkRAIAk6emnn9a4ceO0evVqZWZmKj8/3+UHgH8IhM59eYy4YHXnQgOeFYjPubsX/r4WiM8l4G19+/bVzJkztWbNGu3bt0/vvPOOnnvuOd1yyy2SJIvFotGjR+vpp5/W+++/rx9++EH33HOPmjZtqptvvtnYxldTIH/3e5o/D8D6CueDZ1VlgNGfg/OBUjuoT/t4bZzQQyuGddOCAZ20Ylg3bZzQQ33axyslPVMPLf9WFV0KuHN+V9Z/WnzPJXrxri6KqVfH7XY7gooN64VV2L6SGKiuPiODnf42MQjwBFIABbkZM2boscce0w033CBJuummm2SxnOmw2O12WSwWFRUVGdVEAGcJlM59WapywerJnPoU6vW9QHrO/SGlVkUC6bkEynPgwAFZLBade+65kqTNmzdr+fLlSkxM1PDhw6u0r7/97W+aPHmyHnroIWVnZ6tp06Z68MEHNWXKFOc2jz/+uI4fP67hw4crNzdX3bt3V0pKisLDA3NWeCB/93uaYwB25NJtsqjsNCJmXx3F+eA5lQ0wWlQ8wNgr0eo8pxyDyyVTklgNTkkSSKtjykol6ngt3FXZ+V1Z/+mGjvHq3d6qTXtzNGr5NuWePF3mfkqmXKzq+6q88wiVM+rakZRDMCsCAEFu+vTpGjFihDZs2GB0UwC4IZA69yUZecFKoV7fC4TnvDoX/gCq7q677tLw4cN19913KysrS7169VK7du20bNkyZWVluQzeVyYyMlLz58/X/Pnzy93GYrFoxowZmjFjhgdab7xA/u73Bn8dgPUVzgfPqe4Aoz8G5wO9dlBlr0VJ7pzflfVFQ0MsuqJVYz3Tv0OFtQnODipW533lrYFqszPi2tHfJwYBNUEAIMjZ7cUfbVdddZXBLQHgDn/p3LtTKK0kLljhb4yaWVQVzEKCGaSnp+vSSy+VJK1cuVLt27fXl19+qY8//lgjRoyoUgAgGHnyu78639/+yB8HYH3FX/qCZlCTAUZ/m+gQ6KtjqjKI6+k0X1UJKlb2/qsIq3KqxtfXjkwMgtkRAIBLyh8A/s0fOvfVHZAMhgtWswysBAt/T6PALCSYxenTpxUWFiZJWrdunW666SZJUps2bZSZSV7kynjqu9+bAUUjvv/8bQDWV/yhL2gWZpucEsirY6ryHHvj/HY3qFjR+68yRp1HgXp94utrx0CYGATUBAEA6MILL6w0CHDkCEWkEHgCtbNTGSM79zUZkDT7BSsztQOPP1/4MwsJZtKuXTstWrRIycnJWrt2rZ566ilJ0qFDh9SoUfBdRFenf1LT735vBhT5/vO9QB7o9SdmnJwSqKtj3JlZH2KRXhjovckP7gYVy3v/lcfI8yiQP599fe3o7xODgJqy2B05YBCUQkJCNH/+fEVHR1e43ZAhQ3zUIt/Jz89XdHS08vLyFBUVZXRz4GGB3Nlxl68DHEU2u7rP+aTcjq6jc7txQo8K22HG16a8gRXHs8BMbf/kOKcru/Cv7Jz2htS9ORq4eFOl260Y1o1ZSAEg2Pscn376qW655Rbl5+dryJAhevXVVyVJTz75pHbu3Km3337b4Ba68ubrVdPvwOp893vq+7us/b7wyU+at253mfuU+P7zNrNOdvElRx9OKnuAkXPYd8p7LRxeGNBJjSLD/eZ8P/v9t+/3E5r/v89CfzmPzHJ94qtrR6P63sHeR4TvEAAIciEhIcrKylJsbKzRTfE5PmjNyyydHX/jyU6RmS5YvTWw4qm2meV59hZ/vfB/L+2gHn0zrdLtFgzopH6dzvF+g1Aj9DmkoqIi5efnq2HDhs7b9u3bp4iICL/rh3rr9TKqf+KNQY2U9ExNe/9HZeUXlruNkd9/QFW4O8BIv8r7ynstbrooXu9/l+nXE4j8aZKTP1+fVIcv3ntGTQyijwhfIQVQkCP/P8yGtBne48llkWbK2+uv+SL96SLEn/lrGgV/Tk8EVEdoaKjL4L8ktWjRwpjGGMAb/RN3B0Q8ndagvEBGSWbMl8wAsDm5kzaHfpVvlPVa/Pf4KY1a7v81kfwp/ZK/Xp9Uly+uHc2erhYgABDkWAACs6lJZ8fbF3WBftHIgGTZ/DFfJMVjq8afLtgczJiXGMErJydHU6ZM0YYNG5SdnS2bzeZyfzDUmvL0YExVBiM9+f1dUSCjPGbJl8wAsDmV7J/f2LFpqe//qvaratLnD/TrBU84e7DXMSs7UCZ3+cskJ3+8PgkE/joxCPAEAgBBruQFGBDoqtvZ8fZFnRkuGhmQLJu3AyNVvRBkFUz1+MsFm0MgzUJisAKVufvuu/XTTz/p/vvvV1xcXFCuQPXkYExVByM9+f1dWSCjLGaYGEBg3Zzc6Z9XtV9Vkz6/P18vGPVdb7aZ7L7CxK3q88eJQYAnEAAAYCrV6ex4+6LOLBeNgTQg6UveDIxU50KQCyXzCIRZSP48WAH/8cUXX2jjxo266KKLjG6KYarTPylrwE1SlYO8nvz+rspsUbNMDCCwbk7u9s+r0q/KO3mq2n1+f75eMPK7npns1cPErZrxt4lBgCeEGN0AAPAkR2envMsvi4o7rI7OTmUXdVLxRV2RrXrpsry9f19zDEhao10HMqzR4QETyPA0x8CKpFLnXU0CI44LwZIXnY4LwZT0zDL/jgslc+nTPl4bJ/TQimHdtGBAJ60Y1k0bJ/Twi/dadc9RBJ82bdro5MmTRjfDUFXtn6SkZ6r7nE80cPEmPfpmmgYu3qTucz7RC5/scXsw8mye+v6u6mxRM0wMqMoAMAJDVfrn7vaXsvJOVqnPX2SzK3Vvjt5LO6gv9/yuae/75/WC0d/17n7mNK4X5nw+U/fmBMy1lbd46/oEQOBiBQAAU6nqLDdvz5Y242xsf10WaWQaEk/P1D71h01PvpNerdmGLPk1H3+chcSMWFTFiy++qCeeeEJTpkxR+/btVbt2bZf7o6KiDGqZ71Slf1LRTOB56/a49XhlDVp64vu7slmlDmZaCURg3Xyq0j93t7905PipKq0UKNlnrIhR1wv+8F3vzkz26Ijaeuyt75SVz2rEs9Xk+oT0joD5EAAAYDpV6ex4+6LOny4aPdmR87cBSX9IQ+KpwEhKeqaefOcHHTl+utxtKroQNOuSXy5E/IsZg5vwngYNGig/P189evRwud1ut8tisaioqMiglvmWO/0Td2Ymu6O8Qcuafn9XFMhwGNOzlR7u0co0n9GBFFjnu9I9Vemf39ixqVv9qpj6YW7tc+32LC35cl+V3s9nt8eX/OG7vrLgqV1S7onTklz7zf6QOskfVOf6xB+uqwB4HgEAAKbkbmfH2xd1/nLRaOaOnD/lTK3pwEp5x1Kesi4EzVirwcznb6Dyp+Am/N+gQYNUu3ZtLV++PGiLADtU1j+pTpHds/kiyFteIMOsn8uBEljnu9J9Vemfu9uviq5bx619vpt2qFqD/472+FJNv+trEpAq+bd/v6uLnlrjen7HRYWp4A/b/wIArliNeEZVrk/86boKgGcRAABgWu50drx9UecPF41m7sj5w9JkT6noWMpT3oVgIBSPdZeZz99A5i/BTQSG9PR0ffvtt2rdurXRTfELFfVPqlpk16ggr7+mA/SGQAis811ZvrIGoavaP3d39U5l+2xYr7aOHD9V5WMwKshUk+/6mgSkyvrbmHq11e+ipjq3YYRi6ofJGhUum92uQS9/Xe5+/Gk1ojdX53hq32a6rgJQGgEAAEGtsqXsdkkDLmnmlf374qLRHzpy3uzw+sPSZE+pyqxPdy4EzTA44w/nL8rmD8FNBI6uXbvqwIEDBADc4O6A25ieF+rNLfsNDfJ6Oh2gP6ev8efAOt+V5atoELqq/fPK+lXu9Plv6XSOXvlyX5WOwcggU3W/62sSkCrvb48cP60lX/0i6cxrWPiHza3jMHo1ojdX53hy32a4rvLn7xHAaAQAAAS98i7qHOat26M3txyodifNyItGozty3l6ObqY0JFVtozsXgv5Wq6GqjD5/UT6jg5sILH/+85/16KOPavz48erQoUOpIsAdO3Y0qGX+x90Bt4d7XKCHe1xgmoGOQEhf48nAuicHqfiuLJs7g9BV7Z9X1q+qrM8fXbdOlQMARgaZqvNdX5OAlLurYR2v4eierdw6DiNXI3pzdY6n9x3o11VV+R4hUIBgRAAAAHTmou6FT37SvHW7S91f006aUbOxjezI+WI5uj+nIalqx9LdNjaqV0czb2nvNwMi3hToFyJm588zYuFf7rzzTknS0KFDnbdZLJagKwLsjqoMuBXZqptJ3L8EUvoaTwTWPR3s4LuyNHeKaT/5zg+afGM7/fW2iySL9PuxQo/0zyvq87uTJiguKkzP3tHJY+2pqap+19ckIOXualhHIGHF5v2yRoXrcL5/rkb05uocb+zbn6+rKlOV75FACDgD3kAAAADO8uaW/WXe7okl1EbMxjaqI+er5ej+mobE3Y7l2UGCxvXCKryIkYrzn6ZOvFZ1aoV4+Qj8QyBfiAQLM6SagvdlZGQY3YSA4s6Am1kGMLzdX/DFLE93HsOxzdrtWXq1jBngmXkFGrF0mxZVI9jBd2Vp7gwkHzl+WmP+lSbpzHvHU/308vr87gT4pv0/e2ceHkWVtv27u9PpJB3SSRNJBwUSIQohQABFmDAuMQwICiqjAy6f2+sKLjgqojKiuKHvDOiLoqLCOAqOCwoKZiSAIjEIAwSIQYGQAGI6mB2yk+7vj1BNL7Wcqq7qLc/vurwk3dVVp06dOnXqfrbJg5EzIFlw38HwXJbzrPfHICXHSOUEYG9sw6y887CoYH9IRiOyGkMWrt+PnAHJktfS/dpXn2hTPfKHe68S229qiKR39H6HmreG7TmyvtQeNgZnglAbMgAQBBGyBHqBG4kh1MESyAPVl6GYhoTVA4VPvEmMM7oWqnzn8sI1Q7qN+A+EroGH8CTcU00R2tOvX79gNyHsEBPcwsljXgot1wtyjSRK1p0sx+DbRojHV+2VbewIx2el1mt8udEOgbx3/ImeEyqOe0322cjLtGn6rsT6rPfHIKXESJWWHBey0Yis43DxpoNYvOmg6PwkZx5xp/Dg78z3mUGvw+RhqXhrs7DRfvKw1KA7ecjtC+45srWshuqlEN0aMgAQBBGSBMOzLRJDqIMlkAeyL0MpDQmrJ6PDAcxY4SveNDR3AAAscUbUn/43EBovMcEgFA08BEEQgYJPcAt2wVe1hVut1gtyjST5JZWYt6YU9ka3dURCDOZNFn72shwDAO82QtQ3d2DxxoN4kDG3ORB6z0qpMRKINb5cITnQ4p/c6LlOh1MwTWltUwfeLazAu4UVQYkC8r7eI/slKTZISRmz+KiobsaDeRkhGY1YUd0ka3v3ucP9fCqqm7GoYD9zn7izeFOZ699S46PT4cSa3ZWi+1uzuxKPTRgUtL4VmndZKDpUHXHOfgQhBzIAEAQRcgTLsy1SQ6iDIZAHui9DJQ0JqyfjU6tLRMWbmCg9Pvyfi0Im/2swCSUDD0EQRLAJZrSiFsKtFuuFTocTj6/ay2wkyS+pxD0f7PTZ1t4onJaHxRAzb81PAHSyhaplP5RjZu4AV874beW1sDe0oLapHdb4rnSB3uuCUHlWSo2RQK3xlQjJgRb/WD3qu4xTP8He2Ca5baCjgISu9+RhqXh7c7kig9S0C/vyGjqEWFSwH+fb4jEhK5W3P4NV7LXT4cTKbfypZYXg5o7HV+31MUiqgdT4YEmdFUyBnLVItDBs1z2cnP0IQg5kACAIIqQIpmdbOIZQsxJogTwYfRkKaUhYF4y1Te2C33E5TfU6HaZkn61Sy8KbUDHwEARBqIVSUcofj3l/hDAthNtOhxMOhxOJsUbUt3TwbqNkvbB44wGPKDpv3IXeUelWPL5qr+j+5vCk5WExxLAItnzUN3dgW3ktGlraBYVfPsNLsJ+VUmPk9RuGY/7afQFZ44tFRUjhj/inttgs19uZtR/VaKfY9X57cznuujgda3ZXMhuklKa4AYTPVyhl0nNTsjBxaG/RffrbR9vKaxXNAU7g9PwlPIcpRWp8hHI0fKfDieWF5YrGBwDodcBF6VYs3iS9bbg5+xEEK2QAIAgipAimZ1uohVCrTSAF8kjvSyHUXDCS94knoWDgIQiCUAMxL2kpAVepx7w/3vtaOGewiH1K1gudDieW8RTZ5eP4iVZsPVQjaiwAgLrmDmw9VONRmFXrZ7RQsWCOSgHDi9xnpVqCNcsYeWp1CWqbpA0zrAVRpRCKipBC6VpO7QgZpd7OUu9KarST5Xqv2V2J7x69DDsO10mOL3/Sugidr9A+a5s6cN+KXbj713rMmZjJu081+ihU1/Fi4yNUo+H9MQ5xOJyAXqeTjAzS64A6EUctgghnyABAEERIEWzPg1AJoY4EumNfskQ+JJmNoi/AHOR9EjkEK/ycIEKN9vZ2HD9+HA6Hw+Pzvn37BqlFgUfMa/aeD3Yi0asGjLfopCTCzl/vfbWdM1jFPiXrhW3ltYLRBN706hGDwoPVTNsWlXkaALR+Rn/831+ZtvPHY15NwZpljLCsfQC2gqisuEdF2BtaMH/tPtQ1tasenbpuTyXuW8GTRsqPCBmWdCxirC+1+9yPQvdeZYNwuislbePmhB2H6yTnBP/TunTh/m7Iss+3Npdj2DlJmDjU83zVinYK9Dp+7qRBSO5hwoGqk1i86aDk9nzv0qEYDe+Pccib6qY2l4OaEA5nV522JfrApNEiiEBCBgCCIEKKUPA8CHYIdSTR3fqSJfLhuSlZmL92X0gtrgntCEZB83CGjCWRyYEDB3D77bfjhx9+8Pjc6XRCp9Ohs7MzSC0LLFJeswB8vNH5ikJOGJyCZT8c9tkHn8c8yzGf+HwvLjmvF4qP1vPee2o6Z7AIc4mxRrx+4wiMPren7Pufta2JcUaMSrei8ODvjHv2bPGodKuPscablB7R0On0qGpkz0OvA5AYF4W65lNMLZLymBeaU9VO6aSFY45QlINc3KMiYqMNqkenrtvzG2au3MX7nVCEDMuzzt8+fa+wAqPSra6+Y7n3HudJd8WHmnOCv4YODvd3Q9Z9PvXFXljijK6aWyP7JakW7aSkDoUSuPeGW3PSYdDrUFRWw2QAqD7Rhk6H0+M8AhnBzXIPqGUc4ujVIwZj+vfE6zcMx8yVu+AQ2XGgCoITRCAhAwBBEAGBVdQJFc8DSjeiHt2tL1kiH/R6XbdLj9QdCVZB83CFjCWRy6233oqoqCh89dVXSE1NhU7XPec3JUKX3KKQVw61oe2UA0VlNRiVbmU6Zm1TBzKfzofTbbJyv/dYnS4OVJ10HVfoGcbSnvqWDuh1OkXPQda2jjm3J7aV1+Ki9J5YvKlMcvsovd5jLVtR3SyZOqit04m/XMBfDJUP7mzHnNsT60qqmM4DOOMxnxhrxG05aZiZm+ES+fnm1LmTBuGJL0okCxj3iPEURsVSuWjlmOOEukKc2tGp+SWVuG8Fv/jP4R0hw3ddvK8d4H+feovVTPdecwduW7YN14w4h7fYNAdr2yqqmyW3UcN45J22hbkmV3MHbnznR9ffVokoXTnRTga9DnMnZfJGhqgF33sDq+Fh/tp9eGdLOW8tEa0juFnXe2oZh7z1gySzSVT8D3RBcIIIFGQAIAhCc+SIOt01dzwRWUhFPnTH9EjdjWAWNA9HyFgS2RQXF2PHjh0YOHBgsJsSVJQKXaxFIZ0Avtxjx5d77AC61loTs2xsx/C6+dzvvdyBKbCao0UL2ANsqVv89RyWcihhFb++LrHj6xI7bAkmxEUb0NwuHoWyaMMBLC+qkBT93Wlo7hAshhpvMiDKoPfYH7cGKDnWCIDdAMBR39KBhQUHsOyHCvzlgnPw9uZy3jmVRbC2N7Z5CKN6HTwEM++aFfaGFljN0YLpdfyhsqEVW8tqkJORLL2xG95jhTNitJ1y4H//PAzQwWXgUBJtxj3nWTl+olXwWed+7V66dggmZKW6xrJSAdRbxGS99zYfqMbmA12psYTuZZYIGABYVLAf59viRZ/fahiPvNO2KN0na5oqlr7ML6nE/LX84yPVEoPJw1J95gW5CL03TLuwLxYW7Jf8PZf6aVZehofxyfs9Jtlsct0vQkZeVmc/Oes9NYxDfPpBsFMOE0SwIAMAQRCaokTUIXGUiASkIh+6W3qk7kYwC5qHG2QsiXwyMzNRXc2Waz2SCXROaHtDK95lLIjrDXc/PvzxbsQYDZLiv/dxhdZ4/qR65HMoSYqLwi1j0pB+VrzrOSrkSMJHVWMbs2AtR/yH27HX7K7EExMH4ek1P7n68WRbJ2wJUZiVl4G0ZLPHGqBHjJEphYdYO9/aXC7aJrl4e8sK1azQivtW7MSCqUN8xpNYiiPvsSJkxFD6DJbrnZxsNuGRT3eLXoP65g6Pe+fpqzJxj0i+cha+LqnsOn68SfZvOYH4jRuGY+LQ3q7P15fama+71PNbzVQ53LFGpVslvfn9QSqyQSpv/dxJgzBxaG88NmEQFq7fL+t+55sz3I+rpFjuwoIDWLntKOZNPvOezb3H5JdU4pFPd4s68rE6+7GmpGvpcMCWEKNozHqTGGfEi9d6zh2s+1Xj+AQRSpABgCAIzfBH1GEVRylfNBHOdLf0SN0J8i5ih4wlkc+CBQvw2GOP4YUXXsCQIUNgNBo9vk9ISAhSywJLoHJCc3DH0Ou6PPyVHLO5vVPSO17ouHxrPKWpHoUEtbrmU1i04Yx4xolOfI4kQm3VAYgzGdDUpk0tisqGVtzPkyO+qrENiwoOYMlNIzzmttHn9gyYsK4UoZoVWtHQ0uFjVBISHScPS+WNfuAzYnjvU857hZznt9VshMPpZBJm3dMeTchKxR05aYoNeQDwftFhvF90mDnahY+ZK3dhMXSYODRVVuQD9/xeXliOm8ek8aaREov+dkduep5nr8rCzI/Eo12U8tH2I5iZO4D3vXRrWQ0e/ljY0KNDV/qd8VmpMOh1MBrY3lt7mqPx/DVZgo5w/hbLtTf63g9SRetn5WWgoaUD7/GMT77C0qwp6Wb9uxgAYEswITHOiIbmDsXnZYrSY1ymVyQc684C8aAmiABCBgCCIDTDX1FHShylfNEEQYQqoVDQPFwgY0nkk5eXBwC4/PLLPT7vbkWAOaHLX49euYjlOtYSvjUeS6rHuZMG+aRuYS0E6S7qbpmdi23ltSg8+Ltonn8noJn4LwZ3PnNW7YE5Ogq1ze0uYfSla4cEfJyoiTnagD8M6In1pcdV3S8njK8vtfMKk5UNrYLRD964OyPlDkzBkm/LsKywHPUtZ0RmsfcKOc/v2qYOXiOQEO73Tl6mzS8DAIe9sU3xbx3OriiMN/UjYImNlu1hPn/tPjy/bh9vBMaErFTB6G+r2Yhrss9GXqYN9sZWlzAsBpdq6fmv98lqoxz45jZW73v3999R6Vas+NG3oLs3OgBbZuciNtrA+72axXK5e4z7t5i3/sKCA5L7cy8sLXcd5x6hxRLRxYe9sc3nWlU3sd0LrNsRRLhABgCCIDRDS1GH8kUTBBHKhEpB83CAjCWRz6ZNm4LdhJBhXKYtKN7dV2SlYPP+ajQp8P71h/Wldh9nDrFUj5OHpWL+2n0+IiBrKg9uvn38s73oEWPE6HN7ShZODjZ1zadw83vbXH9zwuibN43wKfxsjjYE/Boqoam9U3XxnxNOt5bVqCZ2cvscMX89Trad8vle7L1CbkSPu2GBBe79KNCRQ2I882UpHpugrJaLUBop95Q23z16mWCx6aKyGqbjVFQ3Y1HBfs37yt7Q4vq3Eu/74ye6jABVJ6TTqzkBFB+tF3SMU6tYrrtxAqf/7S/1zR1YvPEgHszLkL2O44x0ljgjYqIMiudyb62B1p1Ed4UMAARBaIZWD1fKF60dlFKJINSBCpqzQ8aSyOeSSy4JdhNChm3ltbLEf0788Ndg8HWJ/KKyarC6+Dc8Ocl3ruNL9VjX1I4ZK3xFNCV5vOtbOnDjOz8iMc6Ijk4H02+0KmIrF3fRufDxXJ9oiItf3hTyRg0tKTpUrYow6Q6f+A+Ip7NiTV2jFO79SOvjyKGyoRW1J9XxiubzIreajXhuShamZJ/tsz3LWiElwYSV244EpI+4eh5Kve979YhBQamdefvf6ppRVAbedzS1IyTV3t+yH8oxM3eAosLWTnQZEZ6c2B91ze14v+gwTsqM2PLWGmjdSXRX9MFuAEEQkQv3cBWSt3To8nKS+3CVk1qIYCe/pBJjF2zE9KVb8eBHxZi+dCvGLtiI/NPFwwiCkAfn5WqzeL542CwxFKXkBiduAPB5XpCxJHzZs2cPHA6H699i/3Un5AorTgC3jEnTpC2BoKapXXA9xqV6nJJ9NkalWzF/rTpe3e7UN3dIpvfh1qPPTclS+ejKcBedAbj6aEz/ntj4cxVaT7GLX5E5awb+rLj3ik6HE0VlNVhdfAxFZTUYl2nDXRenQ6dyk/Q6oM6t8Da3nkhJiPHZLtAkxkWLvt/5Q21TB+5bsQt3LN+GorIadLqFDbivFbzh2jJ9VN+AGcespwvEKvG+T4wzoq6pXVZqp0c+2yP4jqa2p3qy2YTqE+qlv6lv7sC28lrRayjF8+t+xhvfHpIl/gtpDbTuJLorFAFAEIRmaOUBS/mi1YdSKhGENrAWNO/uiKUEobou4Ul2djbsdjt69eqF7Oxs6HQ6OJ2+8m53qgEAKBNqOh1sHuz+oNdpVyuAZT2mVgoLubivRydkpWKJfgSe+HyvrKiDa4f3xqpdv6naLr46WaxpRrhzuuvidKzZXRmUftUCzit3TP+eWLzpoOT2avNNqR0Pf1zs0Z9apfNyOIEZK3Ziid57/e159c+Kj8YNF/VDWrIZB6pOBqRf6pvbNY9I2PDz79jw8++8NRj4IqIS44x48dohaDul/VzJYTttjFHyvnnLmDTMX8tWSJnD+/Hp/o42LtMmmSYqMTYKpigDqiSE/cQ4I/76yW7VDSlcP03ISsXlA8/Chp9/V3X/fDghrDVMyErF6zeMwFOrS1zRHIDnupMi44lIgyIACILQFC08YClvn7pIpVQCurzQOoNVRZAgwhx3L9cx/XvSy4MAE7JSsWV2LlbeORqvTsvGyjtHY8vsXBL/w5Ty8nKcddZZrn8fOnQI5eXlPv8dOnRI1n7T0tKg0+l8/psxYwYAoLW1FTNmzEDPnj0RHx+PqVOnoqoqOOlv+BiVboUtwSTzV9rNGTMvG4CVd47Gz/OvwId3XITEWKPqx2BZjwXLaaNHTBRev2G4a56ZkJWKuVcOlrWPQakJWjQNAPB1SSWKymrQfsrBnGaEW2PPmZiJLbNz8dDlGZq1L5BwYt7oc3si1SI9ptS+a5YVVvgYU7Su5cGtvznjj3ch3+Mn2rGo4ABMUXrkDEjWtC0cVnO04Ptdjxj+IrVK4UTu/JJKVx/w9Xnd6c8C9e7n7lUu95iJcUaMSrf6bZjzjhQS8mh3odNhcnZvxJvEfYDrmzs0iaLg+qnT4cSuo/Wq75+PxDij65jukTudDifW7an0Ef+tZiPmThqECVmpFBlPRCQUAUAQhOao7QEbCnn7IskjQE5KJaHiUwRBaEskzTlicMYSIvzp168f77/9Zfv27R4RAyUlJRg3bhyuu+46AMCsWbOwdu1afPLJJ7BYLJg5cyauvfZaFBYWqtYGfzDodZg+qq9H3msxUjX2eM5IiXfdczkZyXhp6hBZxSyj9DqcknAQcE9l4g03tx2oOsHaZFVpbD2F+Wv3Qa/XuYwAtgR5gt7RuhbpjRTyftFhvF90mLkQ8txJg3BrTrrr+fCfkkq8tpFtrLFw6XnJ+HZ/tWr7k0NinNGVh3/ysFS8tblccNtxmb1QcqwxrKMfWIoeu9c+++7Ry2TnV1eCzRKLTocTlthoPDb+fNQ2tcMab4ItoatGxSWvbFKtYDG3j6dXl0Cn0wvu07sPtCqYzBfBLrdI80vXDsFxlQR293c0zijz+Kq9vEaS+uYOLP1e+J7RCq42g8PpxOriY6g+0aaorosSGpo7cM8HOxFvivKo8xEXbUAzTzH12qYOzFixC3f9Wo+3N5dTZDwRcZABgCCCDIk6Z2Dti2AX18wvqfRJU8EXohouUEolgghtIm3OIQh/4KIKOF566SX0798fl1xyCRoaGvDuu+9ixYoVyM3NBQAsW7YMgwYNwtatWzF69OhgNNmHtGQz87buHs9aiFre3quciPTop7txolU6NZOU+A8A89eWYnyWzWddxje3BQNvUWdkvyRYzdEenqFi9LPGadxC9kLIdc3t+GrPb66iyvet2KVqO/Yca1D0u3hTFOJNUX55FnN5xEelW7Fmt7gXbsmxRnz36GV4bcOBoKQLUpN/FvlGHrjDicA7Dte53o+0itlNtXSNq7ELNvKuSaKj9JqkB6o6IX4v8vUB3zuiE4BO55tOhxW+tIQsBinAc9327vfyIt+k4N7RxmXaMG9NKYDACOxScH3eesqBG9/5MeDH5y6zd5FvPvHf/TdLv/cV/7nvOGOTd1FwgggHKAUQQQQRCi07g9y+CFZxTS781Hsh7h6iGm5QSiWCCF0icc4hCLVob2/HBx98gNtvvx06nQ47duxAR0cH8vLyXNsMHDgQffv2RVFRkeB+2tra0NjY6PGflrA+T2flnYcJWakw6HWYOylTVVFPqDgi0LXGmneVegVxOQ9Vd4TmtmDgPP3fM1+WYt2eSlzyyiZm8V+vA1J6xCAuWt3UJ0pZvKnMtY6euXKn6vuvbeqA1Rwt+3fXX3AOCh/PxdxJg/w6vr2hBcsLyyXHTWVDK7aX1yIpTv2UVoHmm1K2FGbHT7S63o+8UyRZzUbc+cd0V0oUd6IN7CLm5GGpmLFCfE1ypmCxZ6qzQGil7n3A9444Ky9Dsfg/d9Ig3rSE+SWVeFtE/L984Fk+KQ25AsJqwT1TtpXXBqwIMguW0+NNSaqsm0f3Vbs5zIjZtd2jLggi3KAIAIIIElR09QxK+yLQxTWlcuWHq0dAKKRUIgjCl0idcwhCLb744gvU19fj1ltvBQDY7XZER0cjMTHRY7uUlBTY7XbB/bz44ot45plnNGypJywpI2wJJszMHQCga50kt2CkFE4A0y7sI/h978RYVY/nHkUoNrcFk8qGVty3Qp5o7nACMz9S18teLbQq3XR1dm+8V1gh6zfcc+rWnHS8s0VawBdi7uqffLx5hZixYifqW0LDEzoQVFQ3AxB+P1pfasc7PClg2julB4rZZMArU4di/tp9TGuSLjzXJWfFm3DDRX2RlmzGod+b8OoG9VJTcUj1wVd7lBfrTu5h8llrscxlpZUnfN5Pj9Q0KW6HO97vaAWlws+5QJDSIxr/+MtwVJ9sQ7LZhBkKjZCplhjMvXIwCvYdF31O6gBcnJGM7w4EPi0ZRcYT4QhFABBEEKCiq2fwty8CWVxTTq78cIJLqQT4Fo4KREolgiD4idQ5R2v4ir0Rkcm7776LK664Ar179/ZrP3PmzEFDQ4Prv6NHj6rUQn6knrs6APMmD4ZBr5P0lPf26I2LNvgUeRR6fC8sOICxCzZi3Z7ffO4ZzkihFu5RD1JzGxHaXD4wBbPy2AsLu0eacGNf6YqSVfwH0K3EfwD4aPsR1/PO+/0IgF9Gt4cuPw+WuGimNcnijQdPFyz23Pb4iTZXweJBqT0UtkQcsT4w6HWoqFYuvPNFbrHMZd7rtE6HEyt+PKK4Hd5w72idDic+Lz6m2n6V0NbpxInWDkzJPhv/PVwr2/Ofe/65p5MSwwkERfwHKDKeCE/IAECoyosvvogLL7wQPXr0QK9evXD11Vfjl19+8dimtbUVM2bMQM+ePREfH4+pU6eiqsoztPHIkSOYNGkS4uLi0KtXLzz66KM4dcpzwfftt99ixIgRMJlMGDBgAJYvX6716akGiTpnCKe+iORc+cFKqUQQhDCRPOdoBaXWC13q6+vxzjvvYM6cOait7Xqm79y5E8eOKRMsDh8+jIKCAvzP//yP6zObzYb29nbU19d7bFtVVQWbzQYhTCYTEhISPP7TGqHnbkqCCQ/lZaDtlAOFB6oxb42waKcDEBOlx4f/cxFenZaNlXeOxt5547H76T/hwzsuwszL+mPmZQPwz9tG4aHL+QXbLq/3XT73zPpSu19CrXsbvVMN0ZwV5uiAmbkZzMWSvSNNhNLUEP4h9r7kr9Ht+XX7MONDNm/uZYXC+dOdAB7+dzH++sluxW0RQ6wP8ksqmYuvuyOWLk3JOm3xxgOoOtEmux3e6HXA6zeceUfbVl4bsOK6QjQ0d+DeD3Zi3Z7fsExmlBDg+945ISsVr98wXDJ9lF7na0z3B7H9iY0Hggh1KAUQoSrfffcdZsyYgQsvvBCnTp3CE088gT/96U8oLS2F2dxV8GzWrFlYu3YtPvnkE1gsFsycORPXXnstCgsLAQCdnZ2YNGkSbDYbfvjhB1RWVuL//b//B6PRiBdeeAEAUF5ejkmTJuGee+7Bhx9+iA0bNuB//ud/kJqaivHjxwft/FkJV1FHi4LF4dQXkZ4rP9AplQiCECfS5xy1odR6ocuePXuQl5cHi8WCiooK3HnnnbBarVi1ahWOHDmC999/X/Y+ly1bhl69emHSpEmuz0aOHAmj0YgNGzZg6tSpAIBffvkFR44cwZgxY1Q7H7Xwfu5WVDdj5bYjzCKVE4C9sQ16nQ5Tss92fe5dXHfxJnn5t93vmSU3jfCrUK8TXbmz3dcSNGeFJuMzU/Afhnzzx0+0waDXYd7krmKrgHix14UFB/DR9qMexVMnZKUid2AKZny4A+v3HVej+QSE35fUeI9ijaiQ2q65w+F3W8T4ra4ZRWVd55xsNgE64HhjK+av3adof3xzGAfrXFZ9og2ri4+horpZkRGCD4cT+KL4GCobWnDzmLSQeFfmUkE9tbpEUQTO9Rf08VmnJZlNkunMuO/VKjx9x9h0vPN9OW8haYAi44nwhQwAhKrk5+d7/L18+XL06tULO3bswMUXX4yGhga8++67WLFiBXJzcwF0vcANGjQIW7duxejRo/HNN9+gtLQUBQUFSElJQXZ2NubPn4/Zs2dj3rx5iI6Oxptvvon09HT8/e9/BwAMGjQIW7ZswcKFC8PCABCOoo73yyTQZf12X8wrIZz6ojvkyufCZQmCCD7dYc5RC6qXENo8/PDDuPXWW/Hyyy+jR48zqR8mTpyIG264Qfb+HA4Hli1bhltuuQVRUWdeZywWC+644w48/PDDsFqtSEhIwP33348xY8Zg9OjRqpyL2nDP3fySSiwq2K9IvHAXfoQMYXIyYXGbzlvzEwofv9xlpLA3tODZr0pRJzOtw/y1+6DX61zrRW5u0yoNkF6nXf77SMWWYMJZPdgKk9ae7PJeHpdpw0N55+GtzWVobu8U/Y23IZbvvSJSCeR4rD7Rhk6H0+c5F6j3qDijAc0d4mNBax75bI/iQr9CPLW6BDsO1yEv0+Zac3FzotUcjbqmduFILR0UGx+k+Ka0Ct+UVuH5dfswaYhwlFsgcQKKIxH+WVSBBy7P8Bi/rIaN23PS8HWJ3e85ZWS/RGSdbcFDeedh5bYjHqmsbCpoHwQRTMgAQGhKQ0MDAMBq7XpQ7tixAx0dHcjLy3NtM3DgQPTt2xdFRUUYPXo0ioqKMGTIEKSkpLi2GT9+PO6991789NNPGD58OIqKijz2wW3z0EMPCbalra0NbW1nwu0aGxvVOEVFhJuoI8erUm6UQDj1BZe39N4PdpJHAEEQmkNzDjty0smRkTPwbN++HW+99ZbP52effbZocV4hCgoKcOTIEdx+++0+3y1cuBB6vR5Tp05FW1sbxo8fjzfeeENRuwOFv0VxOXFP7eK69sY2LN54EA/mZbjum9hoA+75QF5hR+/1Ije3yd2PFDMvG4CcAcmoa2rHjBXSnunEGVpPOfABY17yX+uaZQv47oZYh6OrQG+4X5t4UxSa2k4JnofZZMCbN47EidZTARuP89fuwztbyn1EylHpVtgSYnzy8quN1uJ/YpwRDc0dov2otvgPdAna7xZW4N3CClfdFdb89lq0xxuHE/hyjx3maAOa2zvD9t6qb+7wWaexGq/GZdrw5KRMj4g6JUb1HYfrseNwMYAuw+isvAykJZspMp6ICKgGAKEZDocDDz30EHJycpCVlQUAsNvtiI6ORmJiose2KSkprhdAu93uIf5z33PfiW3T2NiIlpYW3va8+OKLsFgsrv/69OnDu10gCKeiq3KK9CrJvRxOfQFQrnwpqPgmQagLzTlshFM6ue6IyWTidbzYv38/zjrrLNn7+9Of/gSn04nzzjvP57uYmBi8/vrrqK2tRVNTE1atWiWa/z8U8Cc/d2KsEQ6n0+WAobZH9cKC/R7ruAlZqXjjhuHQyViWea8Xuf3IKSQrRWKsEWP698SodCsmDu2aN1MS2DzauzPcZZRTrHPZD4dxj0hhaiE4Q+xjn+0JW4GSw5ZgwstThwIQzhXe1NaJxz7bA70evM9xreAMbu737fpSO1pPBdcz3x90OuDui9Px0rVDgt0U1Dd3yC5uqwQlb75SkTjhgPc6jXMWZMnJ7174+XxbPCynjTVKqWo8U7iaKyRNEOEMGQAIzZgxYwZKSkrw0UcfBbspAIA5c+agoaHB9d/Ro0cDdmw+UTRcRB1Wr8rFGw/iXp6XAb5FqDfh0hccE7JSsWV2LlbeOdpVdG/L7NyQa2egoeKbBKENNOdIE07p5LojkydPxrPPPouOji7RRKfT4ciRI5g9e7YrV393xh/DVH1LB25850eMXbAR3/ykzfPWXbgHunIyy/VqdY/C4ZAqJKsDYI5me11174d1e36DJTYa2X0S5TWyG+KvQKaEk22nAn5MtZk3ebDL0CQm7Fc2tOKeD3bC4XBi7qTMgLSNz0Hr3g92BkS01gqnE3h7czmALmOK1Rz4cRtolBjJnACmjjg7rAtse6/TlDgLqjXm+YzXBBHOUAogQhNmzpyJr776Cps3b8Y555zj+txms6G9vR319fUeUQBVVVUu7yybzYZt27Z57K+qqsr1Hfd/7jP3bRISEhAbG8vbJpPJBJMp8J5AUrnzQ73oKutL6bLCcr9yL4dDX7hDufI9oeKbBKEtNOeIE07p5Lojf//73/HnP/8ZvXr1QktLCy655BLY7XaMGTMGzz//fLCbF1Q6HU5Un2iT3lACe0Mrlv1wWIUW+eKdPssfg4W9oQVFZTWutd7frszkTQfDpT1zyvSDrWxoxX0rdiluX3fiqqE2fLlHfgqu7kxSnBEvXjvEp5jx6Bc3oLapXfB3963YhXhT4KQXzuD2w4FqPPF5SdhHXHA882UptszORUuHA7P+XRzs5oQkcaYobJmdi61lNbht+Ta0d4bH1Rdap3U6nLDERuO2nDR8Ufybx33mnpOfi4KzN7Rg/tp9qo15SiFJRBJkACBUxel04v7778fnn3+Ob7/9Funp6R7fjxw5EkajERs2bHB5fP3yyy84cuQIxowZAwCul8Hjx4+jV69eAID169cjISEBmZmZrm3WrVvnse/169e79hEqsIqiofwwYfWWrG8RtrCzPjhJ4ApPqPgmQRDBhuolhDYWiwXr16/Hli1bsGfPHpw8eRIjRozwqefU3VCzEKrWEo+76O9PJM38tfs8BJzEOCNiT+etdicxzohb/5CGhQUHFB9LDRJjo1DfEv4e63xsPlAd7CaEDVdk2XDT6H4Yfa5vGpAdh+tExX+OYEQ+3PPhDjRFQFoYwPN9UixyqLtzoqUrjz50CBvxH+i6vtMu9EzRvG5PJZ5aXeJxf1nNRlyTfbarILNBrwtIUXFKIUlEAmQAIFRlxowZWLFiBVavXo0ePXq4cvZbLBbExsbCYrHgjjvuwMMPPwyr1YqEhATcf//9GDNmDEaPHg2gK69rZmYmbr75Zrz88suw2+146qmnMGPGDJcH/z333IPFixfjsccew+23346NGzfi448/xtq1a4N27t5EiijK4lVpiTWKGgA46MEZmVDxTcIduYXACUItuHRy3i+B7h5iRHAZO3Ysxo4dG+xmhARCTiKhSrK5aw3e6XDC4XAijke0Z8FbKBVK0VDX3IEvi4/Jb6hM9LquApoclpgojMtMQU7GWegVb8LDHxcDiEwDQEOEGjbkcHV2b5yTFIcx/XuiobkD89cKR20LEej3G1OUHm2nHEzbRor4707hwd+R3tOMeJMBJ9si7/z85fPi3/B58W9IjA2/NEkLCw7go+1H8fRVmdh1pA5vnU775E5tUwfeK6zAhacjBV4tOICFBfs1b1tFdbPmxyAIrSEDAKEqS5YsAQBceumlHp8vW7YMt956KwBg4cKF0Ov1mDp1Ktra2jB+/Hi88cYbrm0NBgO++uor3HvvvRgzZgzMZjNuueUWPPvss65t0tPTsXbtWsyaNQuvvvoqzjnnHLzzzjsYP3685ufISqSIoixelbflsHloUe7lyISKbxIcUinPCEJrwi2dXHdi+/bt2LRpE44fPw6Hw1O8+sc//hGkVgUHMSeRUOXhj4txYboVWw5UMzl9qMHBAAgud4xNQ+5AG+98UVRWgyoV0jO5o9NBdv0EQjvOSYrFrHHnua75+Czf5wcAj7RV3s+UQL/fsIr/SpDj2BUsFm8qC3YTwoJQvoZicHUzxHACeHzVXjy9+ifV52ghFhXsx/m2eHqfIcIaMgAQquJkWNHGxMTg9ddfx+uvvy64Tb9+/XxS/Hhz6aWXYteu0M3xGUmiqJRX5bhMGz7afpRyL3dTqPgmAVAdCCkoMiJwUDq50OOFF17AU089hfPPPx8pKSnQ6c6Mffd/dxeknERCkaoTbfhqjzZFhoPJV3vsePwK/vRgctboEwb3QvHRRtgbxX/DvSrdkZOGhNhorNx2RPI3hHYs3lSGz3YeczkqeD8/WBwbRqVbkRhnDOsiuxxOALf+oR8WbTgY7KYQASIxxA0+QgTjfguH7A0EIQYZAAhCIyJNFJXyqqTcy90XKr5JRErKM62gyAiiu/Pqq6/ivffec0WDdnfCwfmju1DZ0IqF6/cjZ0CyX57dI/v1RB+rGUu/901Z4Y0OwLoSO7bMzsXM3AHYWlaDGSt2hqUIFwkIOSp0V8eGZT9UBLsJBAM9YgwYnZ6M9fuqFO/j7ovTMbxvUlilowsW4ZK9gSDE0Ae7AQQRqXCiqJDUpUOXABROoijnFTMl+2yM6e9ZBIuLErBZPF+WbJaYiF0ghxKdDieKymqwuvgYispq0OkI3DKOSxMFwGe8kwGoeyAn5Vl3gxMQvPuHExDySyLPo5YgvNHr9cjJyQl2M0KGcHH+6C4s3nQQ05duxdgFGz3m5FHpVtgSTEz7eH7dPryzRVr8BzyfiQa9Dnq9jsT/IMKtmJ/5stS1fpZybHDfflt5rV/eyAkxoeWTSbUhwoMTrZ04LyVe0W/jTQa8ccNwzJnYFcn/UN55MEcbVG5hZEIGfCKcIQMAQWhEdxRFJ2SlYsvsXKy8czRenZaNlXeOxpbZuST+a0x+SSXGLtiI6Uu34sGPinlfYrWGDEDdm0hKeaYmcgQEgohkZs2aJZr6sbsxsl8SrObooLYhKS78CkRqjbdh1qDXYd7kwcy/l5vbn3smFpTa5f2QYCLWqMeVQ1NhS5A2uHk7KshxbPBnbdPDZMBNF/VT/Huie7NcYbRGvCkK47NSXe+QCwv2R2TBaC0gAz4RzoSWuZkgIgyp3PmRKIpS7uXAEkrhyVR8s/sSaSnP1CJSisEThL888sgjmDRpEvr374/MzEwYjZ7i86pVq4LUssDDpQSrbWoPajscVInWB76UdROyUvHmTSPw+Kq9quec7tUjBp0OJz4vPqbqfokunACuHJqKf1yfjeHzv0FTm7TAyYn5chwbKqqbFLex0wm88R0VtVUbc7QBd118LhYWHAh2UzRFqWhvb2zD4o0HsahgP6X+OU28SY94kxFVjW2U0paIWMgAQBAaQ6IooRVq511Xo0gpGYC6J1QHgh+KjCCILh544AFs2rQJl112GXr27NktC/8Cwkb7YEBpPvjhM8xya/n3tpTj+XX7/D6G+zNxW3ktapu6V/qfVEsMJg9Lxdubu1ImaXU/tHY4cM8HOzErL4NJ/AfOOCqwOiwkm0140Y8x0Uxe15oQbdBhRN+ksC1wqwTvOnxSLCssD4lnUahwss2BKIPD9Q5NNQ2JSIQMAAQRAEgUJbRATe9iKlJK+AOX8owKgXtCkREE0cU///lPfPbZZ5g0aVKwmxI0xIz2HD1iDDjRqkwQ5OZeuSJQJJEYZ0RzeyfaTzn83pe3Ydag16EXYz0AFrhnYnczAM/Ky8DM3AwY9DoM75vks/bU6wC1s+ItK6xg2i4xzuhyVGB1bICuy5s6HLgiKwVflygvGBtO1LWcws3vbQt2MwB0paJq6ZCek2KMeuT074kNP/+uaB5PMkfLiixjMYxMGZaK/5RWoZWh/ZEAF+VliTN6RHxFcvYGontBNQAIgiDCFLW8i6lIKaEGVAfCl0gsBk8QSrBarejfv3+wmxFUpIz2QFdRR6s5WnDOEIMTiyzdNLf/lUNTUd/coYr4DwAHqk6iqKzGo0aLGsbanuZoj2diJBqA43iKiSbGRuHNm0bgwbzzXM4A7rXDbs9JA6C++A+wCZ0AMHZAsqttrLXcqk+Gh/gPAP9vTDrevGkEElWYI3qY9OimgVyyaelwSM7pZpMBe54ej3dvHYU3edbSLEwZlspUW0YHIDGWbQz0scZ1G/HfnZgoPT78n4uopiERcZABgCAIIkxRw7uYipQSakKFwD3pjsXgCYKPefPm4emnn0Zzc3OwmxI0WI32V2f3BuA7Z7Cgg6dwMfOyAUy/s8RIB4V7T1OJsUZckWVT0Ep1SbXE4I0bhuO/FbWq7nfxpoOYvnQrxi7Y6HKEGJVuhc2PKACr2YiiOZd7PBOlDMXhhF4H3H1xOv73z8N8hMgYI/8YM+h1GJVuxapd2tZBSIw1Svbx2j2VHk4vLI4NSgw4JkNgrzbnbDCyXxIssdF4+spM/HnE2bB4icByDANTss+RXfRaLlZz5Bgzpbrqrj+ei69LKlFUVoNxmTaPtfSTEwcxHWPZD4eZIgCcAPIG9WLap7InUfhjb2wDnMCU7LMxpn9PWqcTEQOlACIIgghT1Mi7TkVKCbWhlGeedMdi8AThzWuvvYaysjKkpKQgLS3Npwjwzp07g9SywMEqFI7LtGFUutVnzmDBiS7hQq/TYUr22Sgqq8HiTQclf/fGjSOxvaIWizb4FszkZI/F04cjyWzyqBO0rbwWX5fYZbVRDWblZSAt2ezRDjlpWMzRejS1s3m1ctGQnOA7Jbs33jqdu54Vrg9fuGYIoqM8/e/EUuiFGw4nTveNb/9UNXr2oztbD9WoXmDZm9ty0rGwYL/kdt61s6RquXUZhWJgb2S/V9s6A3uVnQAmD0vFJa9s8lyHJJhwe47nvfSfkkrMXLlLMBKDe7cIRB2XU50OJMYZ0dDcEdb3hRhx0QbodTqPYsXeKVg7HU68V1gu+L4HyE+d9enOY6K/4a7zmP49mZ4hQuh0kGUouu/S/vho+1FZqYy0YsaKnXjhmiyf5x4ZA4hwhgwABEEQYYoaedepSClBaA8Vgye6O1dffXWwmxB0pIz2QFcNgHV7K5HWMw4b/3opdh6uw53/+q/sQqH2hhbmY+p1wLf7j+OrPfzp/sSMlUrET38Qqk0kd43CKv4DZ9ZWj3+2F7FRBnyyQ76nepI5Gs9NGQxLbDQ+3/krapvaYY03wZZwxiv7tpw0fFH8W0gIX1rA1afwFtgBoKisRtNjp1picO+l/XG0thmf7vxVtI18Ti9clAL3DN9WXut6hq8vtaOxNbSLzMZFG3iNVvbGNiwsOIA7ctKQl9kVzTNxaG+86gTuX7nLZ3v3d4uCUu1rCTS2dgIIbJHkeJMBJxkLRqsB39zubXQ06HWYOykT963wNZRz739KArXFxH+g6zqPPren5DNEDKcTeHLiIByta8b7RYcltz/Zdgq3jEnDooL9QTf61Ld04L4VnvcB1ccjwh2d06l18BZBhCaNjY2wWCxoaGhAQkJCsJtDEIrxp4BvUVkNpi/dKnmMlXeOJq9ugiAIhdCaI7zQ6npxNXcANk/v/smxKKtukX2cpDgjbv1DGtKSzaiobvZLTHnt+mE4yxILe0MLqk+2ob6lAzp0RXo1NHfgiS/2au69zTHj0v4Ym3GWjwF10fr9vNELoUK0HtDr9WjlqU/g7SEbZ9QjIdYYNoVllTDzsgHIGZDsuo7/+5+fsXhTmWbHy+5jQdnvTTjReoqxff2RkdIDvXp0GWiWfFuGZYXlHrUEzCYDLslIxroIKqprNRsx7JxE/PdwHW9f2RJMmD6qLxpaOvAeY2HlcKJHTBTzGAkEtgQTCh+/HP8pseOp1SW8xsG4aINsA7EU8SYDXp46FBOHdqWj455bSp8hU4alQq/T4fPi35h/w6WjCtSzhRXuqaN2bTNaIxKBggwARLeFJloikuh0OBV5F3c6nBi7YKNkGqEts3PJW5kgiIhC6bypBFpzhBdaXq/8kko8vipwojmAsE8t402CyYBhfRJhijLgaG0TfjneFOwmEQqIi9bjiiwbeiXEYMm3h4LdHEICgx7o7H71YIPK8D6J2HW0PuDHjYnS4cqhvXHRuT1RfLQOe39txE+VDQG//lcPTcEXe0LLyKbFuzGtEYlAQSmACKIbEEiRgwgOSvOuq5FGiCAIItzwJ3KKYMNqtWL//v1ITk5GUlKSaM7o2lp1C7iGOoH2aowk8R8AGts68f1BbdPGENrT3O7AZzvZvYKJ4ELif+AJhvgPAK2nnPh05zF8ulPb4txShJr4D1B9PCK8IQMAQUQ4JHIQUlCRUoIguhNC4ezeeXcJ/1i4cCF69Ojh+ncgikaGOp0OJx5ftTfYzSAIgiAIwg+oPh4RjpABgCAiGBI5CFaoSClBEN2BTocTz3xZyusRLVakkpDPLbfc4vr3rbfeGryGhBBbD9WEXE5jgiAIgiDkUVHdHOwmEIRs9MFuAEEQ2iAlcgBdIkenI9ICwwmlcGmEpmSfjTH9e0aM+NXpcKKorAari4+hqKyGxjxBdGO2ldd6RDp54x7aTaiHwWDA8ePHfT6vqamBwWAIQouCQ1EZpa0hCIIgiHDno+1H6J2SCDsoAoAgIhQ5IgflryMiFUqBRRCEO6wh2xTarS5OJ/9LcltbG6KjowPcmuDR6aQk2gRBEAQR7pCOQoQjZAAgiCChdWFeEjmI7g6lwCIIwptePWJU3Y4Q57XXXgMA6HQ6vPPOO4iPj3d919nZic2bN2PgwIHBal7AOdFC6X8IgiAIIhIgHYUIN8gAQBBBIBBeySRyEN0ZyvNNEMFBa+O2v4xKtyLVEgN7Qyvv/KBDVwH0UenWQDctIlm4cCGArgiAN9980yPdT3R0NNLS0vDmm28Gq3kBhwohEwRBEERkQDoKEW6QAYAgAkygvJJJ5CC6M5QCiwhnQl1EFyIcUm4Z9Do8fVUm7v1gJ3SAx/OR6+Gnr8oMi/4OB8rLywEAl112GVatWoWkpKQgtyi4pPU0B7sJBEEQBEH4idUcTToKEXZQEWCCCCCBLMzLiRzAGVGDg0QOItKhFFhEuJJfUomxCzZi+tKtePCjYkxfuhVjF2xEfkllsJsmCmfc9ja8ccbtUGr/hKxULLlpBGwWT88tmyWGUoNpxKZNm7q9+A8AN49JAy27CIIgCCK8eW5KFukoRNhBEQAEEUAC7ZXMiRzeHpm2EPPIJAi1oRRYRDgSrnUrwjHl1oSsVIzLtIVlpAURvkRH6XHH2DQs/b4i2E0hCIIgCEIBd/4xHROHht56nCCkIAMAQQSQYHglk8hBdEcoBRYRboSjiM4Rrim3DHpdSLWH6B7kDrSRAYAgCIIgwpA7/5iGJydlBrsZBKEIMgAQRAAJllcyiRzhTbjmAw8mlOeb0Aqt7sdwFdEBSrlFEHKQcx+YDDr8KTMF1SfbUNPcjh6mKAy0JWBkPyuO1Dbj3cJynGg9pVrbbAkmXJBmxeZfjqOxrVPxfszRBjS1K/99OHHbH/qhrrkd6/ZWob3TEezm+BBv0uNkm3S7rsnujWtHnAMA+LG8BmW/N+HrErvk76J0gMMJeB8hMc6I5yYPxoafj+Pz4t+UNN0DkwE435aArLMtMOh1MOh0WLOnErVN7cz7iDXqcd3Ic9DHGof6lg7ooINeB3zw4xFZ+wl1+iTG4Gi9ts/bcxJNaDvlwO8nOzQ9Tihi1AMdbgM+zqhHc0fo3fuhhlEP6PV6tJ1Sr6+83/G0ZvG04bgyu3cAj0gQ6kIGAIIIIOSVTMglHIpqhiqUAotQGy3vx3AW0SnlFkGwI+c+eHX6cNG5pV+yGbP+XaxCq4ArslKw60gDvtrjf72OHjFG3HBRH7y7pQIqlLUKSbzn/r9f32UcXl9qx3uFFUy/nztpEJLMJry9+SA2/VKtSTvN0VGIMjjR0NwhKJRZzUZcfH4vRBn0GJVuxR/POwsA/zPPlmDC9FF9kZZsRq8eMahraseMFTt99tnQ3IH7PyrGQ3kZqpxHeyew51gjjtS1oL75jOhsNRtxTfbZyB2Ygu0VtXj7+0No9jI+xUUbcPfF52Jmbgavwf7BvPNchv3qE22Yv3afojZ6C8OBxn1M5pdUYt6aUtgbz1w7b7HUajbi2asGo6y6GcsKy1Hfwibm/3nEOUiIjWIa54Hkwcsz8PF/jwq+ZwOAJSYKBoPeL4PP8tsugl6vczmC1JxowwP/3hXUuW7xtGxERel97lcWYqL0aFVRlPeGu+P+74YRrqwE60vt+KL4N4/rwI1fAILzTl9rHGqb2mGNN8GW4Dn/aN39b9wwHBOHkvhPhDc6p9MZocsyghCnsbERFosFDQ0NSEhICNhxuRzPAL9XcqjmeCYCj1A+cBor8qAIiu6HFtdc6/uxqKwG05duldxu5Z2jgxoBwNe3ADB2wUZJ4/aW2bnd9t4L1pojlKivr8e2bdtw/PhxOByeYsP/+3//L0it4kfL69XpcIreLwCg1wGLp4+QzDH8asF+LCw4oGr71CCQXpmJcUbERBk8hE5O2Hxu3c8en6uF1WxE4ezLUXy0nvc5wyKcc9tz40FKtEuMM3oI36zIvRbehg2x52n7KQdGv7hBUEzVAUhJMAHQoapReLz7g/szGIDfz2mW+1OIxdOG4/mv98kWYIWINxlwUiQSx5Zgwt+vz0b1yTbetY73tRvZLwk7DtfxXstOhxNby2owY8VOUUOA/nTEh1aYTQY0KYg+MpsMeO7qIThS04xFBfsB8L9nP5SXoXjO5FvLCK0NxbDGGfF/N4zAf36y4/2iw7LaYDVH84rmnLBub2hxCeRlx09i8aaDkvtceP0w9OoRI3ntlSLkKCM2t8hZx/PNt2rS0xyN56/J0vSdm9aIRKAgAwDRbQnmREte3YQUUi+EJKgRBD9azK+BuB+lRIdQuOfF+hYAGbdF6O4vd19++SVuvPFGnDx5EgkJCdDpzoxhnU6H2traILbOF62vl5AzCAeLp2F+SSXu+cDX87o78uEdnh65nFgk1c/+ICTEsQjn7rAaf/912yjsPFqPhafFTa1gnbPzSyrxxOd7UdskLRjOyjuPV5RVC3dDg5DBR84zVMm4ufvidMyZmKnafXn3xekY3jdJVFzmjqkmWt0zPWIMONEqLezPyjvP7zGeGGcEAA+DGXd/tp1y4MGPihXtVwfP+4LVeOfN7Tlp+NtVg5nvfe7YNksMvnv0Mg8jzsh+SVjybZlPBEeqJQbTLuzDZOzgHEvUvPaz8jI8jJ0ANHXGcp9v/Yni8cZqNmLrnDxER+lV2Z8Q3X2NSAQOMgAQ3ZZgT7TklUyIES7ewAQRSmjlpR+o+zGUI8RY+hbwDdsm43YXwV5zBJvzzjsPEydOxAsvvIC4uDi/93fs2DHMnj0bX3/9NZqbmzFgwAAsW7YMF1xwAQDA6XTi6aefxtKlS1FfX4+cnBwsWbIEGRls6UgCcb38MVYqFZ7CBW9xXYpXp2VjSvbZvN/x9bO3F7MtwYTWUw7RNDlSyPUy594BDlSxeekmmAxwQIeTberVfBBCSiyX6/X86rRsmBSmJ1Eb1uc037jhE5atZiOem5LlYbCb/+VPeJchPc7tOWn4usTucQzv/b24rhRvbS7n/b23IC0HsfdQlnuGBXO0AdMu7IO8TBtG9kvCJa9sYnJyeGFtKVP/CcFFvXiL0Aa9Tpbo7g7f3Kx0X9wYZI02EZpb8ksq8fiqvbyRQVwfJMYZBec1oYgGf+5Tvn7y1zFHrmbiTxQPR6DX3d19jUgEDqoBQBBBggrzEmKEcz5wwhcy+GlPp8OJZ74s5V3sO9G1mH/my1KMy7TJ7vtA3Y+hWreCtW+3zM51haHTWCfcOXbsGB544AFVxP+6ujrk5OTgsssuw9dff42zzjoLBw4cQFJSkmubl19+Ga+99hr++c9/Ij09HXPnzsX48eNRWlqKmJjQqEUxIStV8f0iVTQ83Jk7aRBsllhsOfA7Xv+2THJ7sboKfP3MlwplfandZYBVAutzRqnA5k9RZrmIFZ0Xex4I0atHDMb07+mRpmT+2n2oa2oPaAFPgP05LXR/AtKezHmZNiYBe1ymDU9OyhRNg7Jmt3hNDiXrGilB1vvclXpUN7V34r3CClyYbkV0lB5PX5WJez/Y6ZOWimv501dlwqDXMfefENy9+NH2oz5GrFHpVtgSYmSlBpuVl8FbP0LJmi/VrdafQa8T7BN3+NaAUpEmXB9wSPU5h/e1TzabUFrZiOfXsV3/uZMG+bSTz1hob2jFvR/sZIo0kms8YO1XMYK97iYIrSADAEEQRAhCRTUjB0r5FRikBDExQUOKQN6P/oiCWiG3b8m4TXgzfvx4/Pe//8W5557r974WLFiAPn36YNmyZa7P0tPTXf92Op1YtGgRnnrqKUyZMgUA8P777yMlJQVffPEFpk2b5ncb1EKpM0ikG/9tlliM6d8TI/slYeX2o6I55m1ugpoQfP3s/TdngJ235ifYG9sUtVtKOF+88aDmKXzUhG+cyTE+eV8f9+sQG23wS6BTipzntND9KXXPjkq3ItUSI+ntzj3bhfanxbqGVZB1b9fq4mNM+xaCM1KwOjlI9R8LQn2zvtSO1lNsxjSpWixyxpKY4M7XJ1xx67xMG29th2e+LJU8phNd0Sqz8s7DR9uPMDuWeI/J6ib2+XD+2n0Yf3r8+OuY44/xQKhfE2ONGJuRjP9W1HkYgYRqtBBEpEEGAIIgiBBEzssDEbr46/lCsKOll36g78dQixCjiCTCXyZNmoRHH30UpaWlGDJkCIxGo8f3kydPZt7XmjVrMH78eFx33XX47rvvcPbZZ+O+++7DnXfeCQAoLy+H3W5HXl6e6zcWiwUXXXQRioqKeA0AbW1taGs7I3I0NjbKPcWAIld40kpgtZqjRb245aYNcZ9LOeO5mPgP+Apq/sAZYP0V6r3nwvySSr8MC8GCb5zJneeFro+QQKcElmLDgVw3i3kgyxm3aj97lQqy/jg3eAvxLE4O7v3nL+59Izd11eLpw0ULscsxVIgJ7lJ90ulwoqisxvWdw+mUdc+kJcdhy+xcD69+6IDqk20oKquRFLvlXH/uWo9Kt2J5YbliA5YaUb3u8zlXI6G+pQNf7amELcHEmyKKICIdMgAQBBGSdPeUKf68PHT3vgsVtExJQ/iipZe+Wi/z4QpFJBH+wonzzz77rM93Op0OnZ3s6U0OHTqEJUuW4OGHH8YTTzyB7du344EHHkB0dDRuueUW2O12AEBKSorH71JSUlzfefPiiy/imWeeYW5DsJEjPFnijLw5ojmUGAg4MXXupEzMWCEs0skV/4GuuZRLxyP2c61SNBj0OjyYl4HzbfG8XrksRW/d50K5omMoICaWs87zPc3ReP6aLNHr4y58cmmB5NR+4NoKAPMmDwaAkHlOq5HST+1nr9KIAjU88t2FeHcnB6F3FrUMRFzfyEldlRhrxC1/6AdLXDRWFx8TfJfi1oZSRZ+vGmrD368fjh2H6wT3J+T4wVuLItbos50YvXrEuPafX1KJRz7dLSsqmbv+rNdhfakdD39czLy9kkgjbqwuLyxHcg+T4DVaX2rHooL9Pte9qrENiwoOYMlNI3j7nd6liUiFDAAEQYQclDKlCyUvD+v2VOKp1SUeL1Ddse9CAS1T0gSCcFv8au2lH6r5+QMBRSQR/uJwOFTd1wUXXIAXXngBADB8+HCUlJTgzTffxC233KJon3PmzMHDDz/s+ruxsRF9+vRRpb1awCo86QDEROnx4f9chOqTbaiobsbKbUc8Ux+cnsN+sZ/AwoIDzG3g5r27fk3H0u/LPcR+vQ647PyzsOHn35n3x7VjXKYNYxdsFBXqrGYjvnv0MkRH6Zn3Lxeh2gEshUy5uVBJvvxQwAlgYpbN5cnrnUNdSgy2mo0omnM50/XhhMmishom8d+ngLPXMziUntP+pvRT+9mrNKJAjZzqfEYKObUI1pfa8UXxbx5jRCzCyLtv5KSuqm/pwKsbDgI4U5xb6F0qd2AKdDrAKdIpX+2xY3vFJo95l+XdTMh4WN8ibYR0Pw7XB0qjklmfNxzvyazf4E+kkXttCu8+VeqIRToEEcmQAYAgiJCCUqZ4Iufl4cV1pXhrc7nP55XdtO+CTTinTQnHxW8gvPRDMT9/IOjuERBEaJGamorMzEyPzwYNGoTPPvsMAGCz2QAAVVVVSE09M19VVVUhOzubd58mkwkmk0mbBmvEhKxUzMrLEBXtnQDsjW3Q63SYkn02AGBm7gDeOWxcpg0rtx2VLI7J5aa2xEZj3Z5KvL253GfN5nSCWfyfedkA5AxIdrWjqKxGUqirberAjsN1ATeey50LlRRrlkqrxIfcVEss+3q3sALvFlb4PPtZxOAXrhki2zjDuhZyOIEnJw5EQ0sHgC7jwehzz4yDUHtO+5PST61nL+fQcaDqBNNxq0+0odPhZMpVb0swofWUAw3NHbKMFHJrEYzp39OnYHJdU7srAkmqb/xdawu9h/6rqEJU/Ofa5j2vSr3XqmE81OFMH/gblTwhKxVv3DAcM1fuEp1r5MxFakQauePdp0ocsUiHICId7dwmCIIgZCK1OAG6Fiedar3lhAnc4ndK9tkY078n78Js3Z7feMV/Die6Z98Fk3BNm8Itfr0XzdziN7+kMkgtk4Z7QbVZPPvUZolRbdHOcj9GIoHoWyKy+e6773DVVVdhwIABGDBgACZPnozvv/9e9n5ycnLwyy+/eHy2f/9+9OvXD0BXQWCbzYYNGza4vm9sbMSPP/6IMWPG+HcSIUZasplpO770G95zmEGvw7zJmdDhjIDmTbwpCrVNHXi3sALTl27FzJX8qW24z/Q64X3p0GVYnjXuPI92hIrxPL+kEmMXbMT0pVvx4EfFmL50K8Yu2AgAzHOhnDZy/fHclCzX3yxYzUa8Om246HVjIS7aAMBXvON79nPPA0ucbyqSRJ7PWJCzFnp9UxkWbyrD4k0HceM7P2Lsgo0e7RN7TnP51FcXH0NRWU3Ir4v9ffa6j+PFm8qYjjl/7T6PPuX6rO2UA//752H48H8uwqvTsrHyztEofPxyvHTtEAC+40/ISKH0fc/7uk4cKtw3r98wHJbYaNd1To73z8Ar1K7Dtc2q7o9DifHQnaQ4o8f4kCOGCzFxaG8snj6C9zvu6soR/wFhAxYX/SJnTvPuU9b5d31pV2pA0iGI7gBFABAEETKEe8qUYNHpcOKp1SWS21HfBZZwTJsSCXULQs37L5KgviWU8sEHH+C2227DtddeiwceeAAAUFhYiMsvvxzLly/HDTfcwLyvWbNm4Q9/+ANeeOEFXH/99di2bRvefvttvP322wC6ago89NBDeO6555CRkYH09HTMnTsXvXv3xtVXX63F6QUNtQ3NnNjoXbA2MTYK9S2ncLLtlMf2UjoI970c7+VQMJ6zeIG6F9UUmgvltpHztF+il859zh3phWuGYEJWKowGnV/50pvb+etwiD37G3hqSzQ0dyjylB2VbmWuseCdAoXVOzccoxsB5c9ef+pPVDa04p4PduLui9OxZnclb59x7xNyUiR2Opx4b4vy4rDe8PVNXVM75q/1jVRIjDMKRiqwwLVra1kNcjKSAQD9rHEK9yZ+nqzidWKs0eN+SIw14racNMzMzfAYH2oZVicOTcWbPPNTktmIKcN6Y9kPh5mOI5WWS2naKfc+ZZ1/3yuswKh0Kyyx0aRDEBEPGQAIgggZQsXrK9zYVl7L9MIEUN8FknBMmxIpRjh/Qu4JcahvCSU8//zzePnllzFr1izXZw888AD+8Y9/YP78+bIMABdeeCE+//xzzJkzB88++yzS09OxaNEi3Hjjja5tHnvsMTQ1NeGuu+5CfX09xo4di/z8fMTEhFbElb9oZ2j2fC41tJ4S2E6a23PS8HWJnTknu1bnxFrXRo4hXGouZC2e6i1Ce4uaYrUb3H+TOzAFo1/cILuQrhTez34tnAUMeh2em5KF+1bsUtQ+qWOGe2oPuc9etepP8EUX8/UZi5Eiv6QSj6/aK1qU3B3Wdxb3vskvqcSMFb7XuaqxzfWZ0joGHDNW7MRLU7sMbzePScPz6/b5lYKL7zxZxevXbxgBvV4nOa+paVidkJUKhwMeNedqmzqwevdvTMeYO2kQbs1Jl5wbJmSl4q6Lu2rMSKVZ8mZ9qR1PTspkKl7MzR2PTRjItG96lybCGTIAEAQRMoSC11c4ImchQn0XWMKtcCwZ4QiC0IJDhw7hqquu8vl88uTJeOKJJ2Tv78orr8SVV14p+L1Op8Ozzz6LZ599Vva+wwm1Dc1CIqlc8cWdcZk2V+5ue0MLapvaYY03wRIb7ZNnHNDGeC7H81uuIVzMsMDixTorL8PHW5f7rbvgK1S7wZ0dh+tUF//d4Z79WjkLTBzaG3f/Wi+a0lLJMYMR3eg+LpLNJkAHVJ9s87l2rIYpufibQkYMoT4TM1Lkl1QyF5HlkPvOwnKdLXFGxEQZJGudiFHf0hXl8voNw5FkNuHS88/CRhkFz73hO09WQ+hoxlSUahpWhYwsUs5o3DFYxH8AWLenUtFcAJzx6mcpXszNHbUn20S346B3aSKcIQMAQRAhQzimTAkFWBciPc3R1HcK8ecFLZzSppARLrLRSmggCCn69OmDDRs2YMCAAR6fFxQUoE+fPkFqVWSglqFZLY9hDvc1m0GvQ0NLO17+zy9MIryaxnO5nt9yDOEshgWhc5GbesZbXOXysrvP51ob57lnv5bOAnMmZmLYOUke3sWAb6oTIewNLT6fBTq6kW9cuMNdewCqpiRyf8YfqDqprPGMyOmzTocT89b8xLxvpe97LNe5vrkDH95xxms+2WzCXz/ZjapG8Sgdvn1JFcTVoau2RnN7p+z3WrUNoWrsr9PhxNayGjz88W7JvvK3zev2/IaZK+VHA7kf75kvS7Fldi7uyEnDu4UVkr85WtdMOgQR8ZABgCCIkCHQKVMiRQzjDCdSnj7zp2SF5fkFGzVyxoZL2hQywkUuUuM4UuZDIjT561//igceeADFxcX4wx/+AKCrBsDy5cvx6quvBrl14Y8ahmY1PYa912xK0q+ocU5KPL9ZDdwV1c1YVLDfZ99c7vQ3bhiOiUN7q3Yu7gjN59Mu1M6YZjUbYW9slVVQVamzwMShqRif5dlfDqcTN77zo+Rv56/dh9hog2Kjjr+w5N23nx4jQt8pSUkkZXTQCpY+21Ze61FThAUl73usXv0bfq7C364a7Pp73mT5ueYB4Rool56XjD9mnIWbx6Rh489Vit9rhYyHSWYjnpuSJdtI5I9hVe74SjJHexjw5Bhv80sqFaUCc8fdQJWXaWMyACz/4TDuvjgdb28uD5vUrQQhF53T6U9QJ0GEL42NjbBYLGhoaEBCQkKwm0O4EYgiXeFaCEwIqReOuy9Ox5yJmQFtUyQg1K/c0i/Uc8YqgTtngH/xG4nnHOlIjeO7RIr80bVWB1pzAJ9//jn+/ve/Y9++fQCAQYMG4dFHH8WUKVOC3DJfIvV6eRv6RvZLwo7DdS6P4cWbDirar17nKYalWmIwd9IgJJlNsDe0YP7afYKpaTjD8pbZuaoKK50OJ5YXlmP+2n2S2668c7TLSN9+yiGaR18HICXBBEAnKjjqdcDi6SMwcai6c+i6PZW4b4WveMwJVlKFTvW6rpRO/ggAtgQTWk85BI+jxTXtdDgxdsFGyXoKfGuVorIaTF+6VfIY7uPAnzb6K8LL7T9/iv36C0ufrS4+hgc/KmbaX2KcES9dO8R17VidE/JLKvHE53uZa6LNystAWrLZtc/1pXZVDCh8187fd851eyp9ImLUihRhMUYqGV8Lrx8GmyVWtsFTrXuI49Vp2bhyaG+mfXLX7omJg/D0mp9U628WInXNQYQeZAAgui000YY2WnqjRqqoy7fAtJ72EuG80Ah2pBahWokWoUCkGci6M0pfpsJ9Pgw1aM0RXkTi9eKb172Fe7lw8wSXC5tbs9U1tWP+Wnlimr/iqztyvVVfnZaNKdlnS/6OO9+H8jKwsOAA077fVHEO5dJiCF0zLsd5w+kiq3xG/LtOe7h6fy8Hd+9YIU9ZLZ4drEKk9/pMynjgvj0Axe8frIYGVljuCbUFUznodcDP869AdJRedDs5/fLhHRchJyMZAPta1F8DCLdPNYtoe187pe+1Uu+s3nOv2tGbSscX39hl6QOt7iE5NSisXtELgXiXjsQ1BxGaUAoggiBCEq1SpgSjEFigCKdc8+FAoHPGhhI0liIHpWk9wn0+JAjiDEIikj/iP8Cf1kGoQKQUauWvVyIG9uoRw/Q77nzbTjmY963WHMqSFoPLcT4r7zx8tP2IYJoPvhz7chArqKqkTgMrXAoTKU9v7/UZa4pRPi9wOc4PatdgYE2vEwzxH+iaP3YcrpNcA49Kt8ISG4WGllOi26WeLmoLsNfuUKN2CbfPh/IyVCui7X3tlLzXSr2zAr51CNR21lEyvhLjjD6pQlmNOXLuIbFoJu+UpROyUplrAXiPgbqmDsxYsQtL9DpyiCHCHjIAEATRrYh0UTdccs2HA4HMGRuK0FiKDPwZn+E+HxLBxWq1Yv/+/UhOTkZSUhJ0OmEBtLa2NoAt616oXdzXbDLguauHwJbgaxj251hqFJeXe3xOJBrZLwmXvLJJ9HdWsxHfPXoZoqP0KCqrYW6TGnNo+ykHnvi8hHn7tOQ4bJmdy2vEzy+pxPy1pR4il+60kCYHzthw36V90dMcDWu8iXdMCOHuDZxsNgE6oPpkm6TDwYSsVLR0ODDr38WSx3B//knlPwcgu06FN2qMYbn7C/YalPX4YvM/x9xJma6IDVZnLTUMINw+lzGIw6yoMRZYzs3biKu0hoQQSsbXbX9I97h/5dSAkdNvd/5RXr5+1loA3pBDDBFJkAGAIIhuRXcXdSMFsTzGanmrsy5C1X7hIwg1UWN80nxIKGHhwoXo0aOH698sAhChPmp7CEcb9Jg8rLeP8L+tvBaFB39XdKwkHo9RFrzXAg6nk/n47iLRjsN1kr+rbepweTuPSrci1RLDfCx/5lC5uc2Brnmfz4gvJMT5kxD4jW/LAJzx5mVNayKWaknKi9mWoGx9JhTdCABjF2wU9bR+4vO9aOlwoFe8sLGCGxdSdQqkcPdelkqbEuw1KMvxt5XXor5ZevwmmaNd27M6a6m1PnECqG9hv8fESHXzPJeD97WurG+RvQ+1xWq54ysxzoiZuQNcf7NEMbi3dVS6FYlxRtHxotMBr5+urzK8bxJzUWN/7k9yiCEiBTIAEITGaJnLnpAPibrhD0seYzVCYKUWit7hpQQRiqghSNB8SCjhlltucf371ltvDV5DujlqG/Dqmjs8RBC5+fb56OiUPzvxHTcx1sj8e3eRaHXxMabfcH3JpZRhzSmtdA5Vks5ISHxUOxLEG1bPY5ZzktqXP+szPsNIUVkNkwGIL+rAfb0plmrIu31SNRRYUxLVNbX5XctDKXodMLJfkuR2cp2vCkrtzNurvT5JjDWioUW4iDYLk4elyn7X55vPlKoFaorVcteQL107xOPcWQzQctuaEBOF8Vk2APJSlrLen2KQQwwR7ohXbCEIwi/ySyoxdsFGTF+6FQ9+VIzpS7di7IKNyC+pDHbTui3cQkZoUaWDcs8NQnu4F0fvxaRQCKw/9xq3UAR8F+FC4aUEEWqIjWMpaD4k1GLnzp3Yu3ev6+/Vq1fj6quvxhNPPIH2dnVyLhP8aGHA40QQoWeyXE62ncK2cvY0UELHZfXgnTtpELbMzpWddsJ9uwlZqXjjhuEQWwLImUM7HU4UldVgdfExFJXVoP2UQ5FgL7Qu0TpXvLs3b/sph8e5dJ5epLEaIdz31cmjbKu9PvNH1PNeb3KphmwW4TFls8TgzZtG4E2e7WyWGCy5aQQA8I5x9+N11dsQLgqtNVwNACmS401M++NqcbCmaeHEXrH3OrnclpMOQLn4DgD//u+vvONWCKH5zN/LqoZYzbqGTD09pr0NdqxtWH/a6MMSLdLQ4vm84Ix6U7LPdtX8EELo/rSa2YzH5BBDhDsUAUAQGiEn3x0ROFgLgZGoG3rI8V5TKwRWKmcs3cNEOCA0jlMtMZg8LBVvby4HQPMhoR133303Hn/8cQwZMgSHDh3CX/7yF1x77bX45JNP0NzcjEWLFgW7iSGBFlGjctPVsNCrR4zqHuWsQpG/x021xODWHM8c1Uo9yicO7Y3F0OG+Fb6RAHLmUD7vX6vZKCvtj14HLJ4u/G4RCM9VzvN49IsbPGoMcF7rltho5nEo5cWsdH3Gl0Ky+kSbrPP0bqf3etPbK1msxoFQSqKcl4RTEukAzFvzEwCdZhEdrHx92vAhNFfll1Sebqsw3rU4pHC/H9Xw6nbf58zcATjfFu8zruKiDdDrdDjZJl7IGOiqjbG1rAY5GcmS22oZmaOWWC10r1nNRlyTfTbyMm2C17+iuonpGKuLf8OTkzIDkqqXL2qAG3sU9U1EOmQAIAgNkFO8iISVwEOibngi13tNrRBYOeGlBBGqiI1jOTlUCUIJ+/fvR3Z2NgDgk08+wSWXXIIVK1agsLAQ06ZNIwMA+EVgNdLZyU1XI4a7CKK2RzlnVBB71nY6nFheWO7XcfnSc/jjHDJxaCre1CtfUwo5DMkR/wFg8fThmDhU+FhKxECuL6RycnvjLv4DZ5yfbs9Jk90GMaFP7vqMJYWkEvjWm3yphvjg2+7Vgv2wN4rnwLc3shst/BHGpXi/6DDeLzrMO1expHuSW4sD6DoX9/tRzMlh7qRBOHC8CQsL9kvul9snN662ltWg6FA1gK5rdGGaFY99uhtfFP8mua+iQ9VMBgCl86jYuPVHrBaag5W8C+WXVGJhwQGm49Y0tWNbeW3AUvXy3XdzJ2X6bcwliFCHDAAEoQFyihdRIZngQKJu+KHU20OtEFi6V4lwR2gc03xIaI3T6YTD4QAAFBQU4MorrwQA9OnTB9XV1cFsWkggJJRVNrTing92YlZeBmbmZvgVzTYrL4NZjOHDWwRR06M81RKDuqZ2jF2wUdAAokatAQB4e3M5hvdN8hHm/XEOUTqHquH929McjeevycK4TBuKymoEj8+Sy9tbVOTOnTu3woO/Y/GmMtlt5JyfPmesteCOlNDHuj4TusfUTJ+jxj0hRzRl4YqsFOw60iBqUFAD7wh31rGtpBbH7TlpvPevUDTF/AUbRffHFz3jXX9h8aaDSLXEILtPIlMbxRLmuIvsB6pOMu7Pk1vG9MPyHw4D8C96070tFdXNWLntiMdY8a5xwfouxF1/OXxdUonxmTbYEmJQ1RhYT/z8kko8+xV/e8khhogkyABAEBoQiPC1UCZcCh+TqBteKPX2oHyNBCE9L7PMh+EytxOhxwUXXIDnnnsOeXl5+O6777BkyRIAQHl5OVJSUoLcuuDCIpQtLDiAlduOYt5k5SLEzNwMrNx2VLEQ6C2CsD5bZ142ABU1TfhqD39NHh26vPJnrBBOm3nXxel4e3O5al7MQlG4/hhDlawp/Y2isJqNKJpzOTb+XCVqPOHaJxXlsHj6cCSZTbznPqZ/T4xKt+KznccUFZV3oiuqwWqORl1Tu+Tv1RT6tC6AzOHvelOJaCrF1yVVsCWY8ODlA/DPHw4z18mQi3eEO+vY/t8/D3N5yrP237hMG+/nSgs8O5xAkjna9bdYGt+vG9gKFAvNBWoZMv80OBUXndvTr+hNlrZwRug7ctJEU/14o2Ru46JJEuOMrvEUiNSU+SWVohFycycNIvGfiBjIAEAQGhCo8LVQRKsQdoJg8V5zh/I1EpGAGqK7GvMyze2EPyxatAg33ngjvvjiCzz55JMYMGAAAODTTz/FH/7whyC3LriwCiX2Rv9qSBn0Osyb3CUAA+IpQTjhZVZeBtKSzT5zT6fDCYfDicRYo6CgyD2DZ407Dwa9DhOzKvHU6hKf3PBzJw3C/LX7BNNmAsDb36sn/ktF4QbSOUSpIxD3BHjhmiHY+HMVc80xf1NgqpFv/ers3lhWWCH5eyeAaRf2UXAEX5QaWuJNBpxs65TcTmy9KecZLqedtgQTAJ2gp7Q7VY1teG3DQZchDdAmJZD7vcU6tqubzqQyUlqLQwy5TnmdDifmrRFO4wsAOh3gFOnApDgjRp/rO4ewpESSwrv+gVKDpdy2vFtYgXcLK5jXff44OXLpxsymKI+aC1p44nc6nHh81V7RbZ78ogTjs3xTxxFEOEIGAILQAC0WMKEG34J2famdCh8TmmHQ6zB5WCreOv3yIgblayQiAbWEe3/nZSpqT/jL0KFDsXev70v2K6+8AoPBEIQWhQ5yhRJ/akgJCcDeqV+SzEY8NyULE4f29tkHi9co3zN44tBUjM/yFatYRE8xsc37uKyCVihE4bI6AlnN0R6GE/fUPGMXiBeL9R4v/qZ8EysIylK3YFymDRf0s/oYg/hYWHAAH20/6rfop/Ra/zEjGV+XVElu552TnkPuM1xOO+dNHgwATMYYbiys2V2J128YgflrPduUFBeF9lNONLULGzusZiMmDemNf209LNk2blyx4L6d0locYkYWue1YvPGAZJSU1Hz04rVDeNuoRhSK91hTYrD0py2s6z41nBxPtp1CUpwR1w4XLzTsD1sP1UjWN6lr7sDWQzXIGSBd04EgQh0yABCEBvhTTCwc4FvQ2hJMaD3loMLHhGbkl1S6PJekoHyNRLijhuiuRkF6KmpPqMHRo0eh0+lwzjnnAAC2bduGFStWIDMzE3fddVeQWxdc5AglnIftwvX7kTMgWZEgwicAV59sw9NrfnIJsrVNHXj2q1IcOH7SIwJAyNHDG6FnMJ9YpWZucpslBtMu7MOUQz0UonBZHYa+e/Qy7Dhc5yNwSqU3EYp28DfKwX0M2RtaUNvUjsS4aDy95icPj11vEuOMqGtqx/y1pR7if1JcFHL6J+Orvb7pVVifeWqIwN70P6sHAGkDAF9OeiXPcNZ2zso7z/VbPmMMH9xYSDJHY8vsXEEnLm5bDvdoE0tsNJMBgNunEmc4IQNTktmIa7LPhiU2Gp0Op+vaShlZWNuR3ScRj3xcjE93stchWLfXLpgv3xu1iqbzjTW5+NMWrg/nrflJdN0nN2pbiLrmDrxXWIELNUo5WVRWw7wdGQCISIAMAAShEf6G2YYqggvaxjbe7Tmo8DHhDyzeKlazEXOvHAxbAuUmJ8IbtUR3NQrSU1F7Qg1uuOEG3HXXXbj55ptht9sxbtw4DB48GB9++CHsdjv+9re/BbuJQUOJULJ400FXUUola0p3ATi/pBIPrNzFu65zF9LFHD04EmONeP3GERh9bk/mNBTzv/pJVtuFmDtpEG7NSQcAfLT9aFhE4bI6DEVH6Xnn12DWHDPodWhoacfL//mFWUzsOOXgrfVQ13yKV/wHfJ95AHjFazERuK5J/B2Fj8Q4I8b074nFmw5Kbuudk17pM5xlLrAlmDAzd4Drb84Ys3D9fqa2fl1S6TqW+7FZ3ls7HU5mUd8fZzh3A9P6Uju+KP4NtU3tPmloAIgaWV6/oaumxRVZNrzHk3aKO3LW2QnI/Fu+LKF6XKYNT07KZI6kUesetMRGS28kgRptsTe2YfHGg3gwL4P3ezXShbmjlaOJk7llWlcQIYjAQAYAgtCQCVmpyB2Ygn8VVeBwbTP6WeNw85g0REfpg900RagRvhgKIddEeODuzVV9ok3yBbO2qQO2hBgSIYmwRy3RXQ1xqLsXtSfUoaSkBKNGjQIAfPzxx8jKykJhYSG++eYb3HPPPd3aAOAulMiFK9A4Ky8DM3MzZIsjctZ1Uo4eAFDf0oGfKxt58197o0Y+bOCM6HhrTrrr/NWKwg1E4XN/HIa0rjkmdv5Krp9YihkxuGfe7E93o2DfcY+6E4lxRt4UHu4i8Py1+2Qfs765Aw3N7Yq82JU+w1lE83mTB/uMQYNeh5wByUwGAK7QKp/xUCo9lFxR35+xzRmYlhVW8Ar893yw01Us1hvus5krd3mkNvPO3W+zxCDr7ASsLz0u2A4+Ut2MHKzvHGpFHH20/Qhm5g7wax5Sqy0LC/bjfFu84HUUuv6pMiK1AO0cTfJLKrHiR+mIFgAYcy55/xORARkACEJD+MIS39lSHrYRAGqEL4ZCyDUR+rDkGOaDREgikGglDqkluqshDnXnovaEenR0dMBkMgEACgoKMHnyZADAwIEDUVlZGcymhQScUPLXj4vR1O6Q/fuFBQewcttRzJssb32pVloKd+av3Se51lUrHzaf6NjpcMISG43bctJcnsMccqJwA1n4XElefjmFmJVEO4id/7hMmyrXTy586VmE8ndzbZu9ag9OtCozPDy1ugRTss/mLVosZkzy5xmuVDSXG0kklIpIStSW2z6lNSekoigA4WvP4XDy/31HThryMm3I7pOIwU/ni+6DD+/5huXcWFIRxZkMaJIoOq2GEK5Weh5A2jNf6PoD4pFafKj5jifHgJkYZ8Roci4jIgQyABCERkRi0UR/HryhFHJNhDb+eAWSCEkECi3FIbVEdzUK0neHovaE9gwePBhvvvkmJk2ahPXr12P+/PkAgN9++w09e9KLNdCVUiLKYAAg3wAAdOXSl7u+1MpoLrXWVcvw4J0XnC8VjPX0NnKKSAqtQ7iIizc1WMPL8SZWWoiZFal3mIfyMlQ3HGmFUvEf6IosXVZYAYDfe1zoee/vM1yJaC435Yo/NXzktk9JzQktjJNA1zmvK7HjiUmZWF5Y7mMkkMK9/oKcdSBL9MS0C/rg3dPjTYz//NRlNJdrUHG/XnMnZWLGCv/T84gZJLyPeeXQ3h7tlBv5JvcdT8g4I9cA/RJPUWeCCFfIAEAQGhCpRROViquRUPiYCAxKvQJJhCQCidYGXrVEdzUK0kd6UXsiMCxYsADXXHMNXnnlFdxyyy0YNmwYAGDNmjWu1EDdnW3ltWgQ8OSWg5z1pVZGc6m1rj+GB6vZiCnZZ2O1V15woVQwdU1sRSQ5scje0IL5a/eJrkMeX7U3aGt4VicJpTXHWN5hljGIlJGGt/e4mOjKPcPFBOxUr2c4n1gpVzQX8s4Xwp/UKkKivvd5jOyXxFvAWgqtjJPu53y4tlnWb93rLyhZB0pFT1hio5kMAP/84TCW/3AmdY0twYR5kwcL3utChoq7Lk7Hmt2Vnm1JMGH6qL5oaOmaN1ngu1YsxhGuP+at+Uk0xZySdzyx41tio5nuD2ucES9cOyTsHDYJQgwyABCEBkRq0UQWUcoSZ0RMlAH2xsgpfEwEDiUePyRCaoPa6W0CkUs5EATCwKum6K5GQfpILWpPBI5LL70U1dXVaGxsRFJSkuvzu+66C3FxcUFsWeighuAld32pZioIOW1RYnjgZrvrRp6DtzeX+7RXLBWM1LycX1IpKUJ5H0usAKa/dDqc2FpWg6JD1QC6hFauroKUk4TcQszesLzDCKUcUgM1CoZqhbv3uJThfPKwVLy1uVxwm8nDUj3qKagVUejunf91SSXeL5LOca6W2M53HnqdZyoe1vPSOqL3+IlW9LPKe/ZMH9UXgH/rQLHoiU6HE1azEbVN4vcXX8F2ocgkMUPF25vLXYWS+Qw2fx5xDj7d+atkv/TqEeOxxq+obsaigv1MxhGuPxZvPIiFBft99i2U5k3sfULKOHN7TprkOQHApKGpruiycHxfIQg+yABAEBoQqUUTWUSpl64doijXI0EAyu4JEiHVR+30NoHMpaw1gTLwqim6K83Bq/Y+iO6NwWDwEP8BIC0tLTiNCUHUFLxYn6Vy04ao1RYWw4O3cGizxGDupEGS3vl8iM3L+SWVuEdBAeZlP5R7FONUy8idX1KJx1ft9TBoLN50EIlxRtz2hzRJJwk5hZg53Nt+oOok028SY41oaOlQdczczeORHEqwPt87HU6s2S1e22TN7ko8NmEQ1pfaVY8o5Lzzt5XXMG3PzT3+jGEh0dU7xQ7rebE6nTWcvk/kjsNePWJwRVYqnl+3jzkNEFdrZfqoPn6tA4WiJwx6Ha7JPpspCoAP78gkFkPF/LX7sGV2Lgx6HfJLKnHJK5tEDTjucJ75dU3tGLtgo+R9K2YcGZVuxe0MdVuk3idYzvnzYt9aInz8a+sR/GvrkbB9XyEIPsgAQKjO5s2b8corr2DHjh2orKzE559/jquvvtr1vdPpxNNPP42lS5eivr4eOTk5WLJkCTIyznjR1NbW4v7778eXX34JvV6PqVOn4tVXX0V8fLxrmz179mDGjBnYvn07zjrrLNx///147LHHAnmqgkRy0URWUSqcIhuI0IH1npg7aRCSe5hIhNQAtdPbRFo9lEAaeNUU3ZXk4NViH0T3YcSIEdiwYQOSkpIwfPhw6HTC43bnTvkCbKShpje+nPUlt67zFp2lmDIsFaslRE6htrA4lCyePhyW2GgPL3gAfonD3vNy+ykHHvlkj6J91Td3uAQ+tYzcYsaI+uYOLCw4wLQflkLMHOv2VOKp1SUeohsLt+WkY1HBftUMR4lxRjw2YRAemzDI9cz7fn81kweyUuKiDWhu75R9Dl+XdI17oecxSzRrZUMrtpbVSIqV89b8hB4xRlSfbBNcA7gL98lmE6ADjje2YvkPFZLnwqUi8mcMy0nfyRop6T5HeOPudAZA1tzlnk7GoNfhzj+mi0ZqeGNvbGW+DwsP/i577ZaXaVNsAKhv7sDWshrkZCQDkOew0tDSzmTA4eDOZPKwVMxYwV63zds4wjfu+Oq2dDqcglEC7u8TPWKMkudc29QBqzkadU3tfhXMJohwhAwAhOo0NTVh2LBhuP3223Httdf6fP/yyy/jtddewz//+U+kp6dj7ty5GD9+PEpLSxET0/WScOONN6KyshLr169HR0cHbrvtNtx1111YsWIFAKCxsRF/+tOfkJeXhzfffBN79+7F7bffjsTERNx1110BPV8+Ir1oInmCElrBeu/cmpNO400D1E5vEwn1ULw94pLjTUy/U8vAS6I7Ea5MmTIFJlPX/eLuCELwo5Y3vi3BpGh9KUf8B4DNB6pFv9cBSEkwweF0YnXxMZ+14pn8z6W8aSMB4JFPd7vEnMWbDiIx1iirjd64z8v5JZWYs2oPTradUry/4ydaVTNydzqcmLfmJ8Vt8Ybl+C+uK5UlfgJn1mH3XtofALCssFyVlEDuBhVOGJQj/ptNBjS1SRf89XYg4SscLcX7RYfxftFhQYG8oNTOtJ+iQ9WSYqW9sQ03vvOj6zPvY7IUhBZj2oV9/Y5CkJu+U06kpCXW6DO+EuOMePF0bvb8kkpXFIAUfOlk5kzMhMMJvLOl3KPIsxos3lTm+re3l7rQO7S/huCiQ9UuAwCrI4q9oQUv/+cX0eOpGZHFtU1o7vSu2yKVoo17n3h81V7ma3h1dm8sK6zQvGA2QYQaZAAgVOeKK67AFVdcwfud0+nEokWL8NRTT2HKlCkAgPfffx8pKSn44osvMG3aNOzbtw/5+fnYvn07LrjgAgDA//3f/2HixIn43//9X/Tu3Rsffvgh2tvb8d577yE6OhqDBw9GcXEx/vGPf4SEAaA7FE0kUYrQgu5w74Qyaqe3Cfd6KHwv1rYEExJPh51raeCNlJoJRPfl6aef5v03IYxQlKVQgVs+mttPYfanuxFnikI/axxuHpOG6Ci94JyiVHiuE2kP9/xu6ej0EC/5i1V6zqROpxO7jtTx5/n3U2iuO+3lzlpIV4pkswl//WS3KkbubeW1zDUIWJA6/ro9vykS/4Eur1/vVCGJsUbclpOGjF49MH9tqc93LNeOEyw55wEWzCYD/n7dMOQOTMHoFzdIRjKkWmIxceiZ8efu1MQVgJbjGXzPBzsxKy8Daclm9OrRlQ6F3YNb/jPdXZQH4Pc4rmtuwzNfHvFrDLMaPLwRE6jFomG4uUdO5AHgGa3OzYfrS+34ovg3D+E4xqhDa4e61gDuuvEV3nU3DnDvQUrSknVx5hqxOqLUNrVLGnAcTuDm0X2h0+lcz5Udh+sUG56SzSY88qn03OlwgCnCwAl5Ruxxp6MLWKNHQv19hSBYIQMAEVDKy8tht9uRl5fn+sxiseCiiy5CUVERpk2bhqKiIiQmJrrEfwDIy8uDXq/Hjz/+iGuuuQZFRUW4+OKLER0d7dpm/PjxWLBgAerq6nxyzAJAW1sb2trOLKwbGxs1OssuqGgiQSiju947oSD4qp3eJpzroQgJRFWNba7PtDJSRVLNBILw5uTJk3A4HB6fJSQkBKk1oYdQlCWrp3Jjayc+3Xkmx/Fza/dhZL9E/FrX6uFpz80plthoVYVnoCs3d31zBxpaPL3r3YtVOhzAfSt8RS57Y5tsYZqV+WtLkZeZIks0FKKnORrbK2o9+tQbOaKRFs9B7vjLC8s9Iic7HU48tbpE9v4S44y4/gL+IswNLR1YVHAAS24agS2zcz3Gr8Pp9DAECcEJlnI8ynuYolzi9HNTBuO+FbtEt5+/thTjs2yu43ivuWKjDcziK9cH7ilhWJ/8VrMRF6VbsXgT4w/cjsmlBgJ0fo/jVTuPobFVOArGfQzxpd7ML6lUnLJGSKDudDjx1493i/52zqq9kulevBmfmQJLbDTW7an0MVK5o7b4D5wZK3xzm3ekxbhMmyyjrzvu8wxrVLWVMbL1X1uPuP79+rcHMWVYb9ntA7qePdCJp3Pjxt3sVXtUrTPi7qSzvtTOHD3CEYrvKwQhBzIAEAHFbu/yEEhJSfH4PCUlxfWd3W5Hr169PL6PioqC1Wr12CY9Pd1nH9x3fAaAF198Ec8884w6J8IIpcohCGV0t3snVARfteuXhGs9FJbURZY4I2KiDLypK/y5ZpFWM4EggC4HkJkzZ+Lbb79Fa+uZe8bpdEKn06GzUzp1RyThbfAd2S8JOw7XeTzvvAVjPk9llrztTgD/PVzv8zk3p9yek8bcbtY0KydFBEUAeGDlLpxirbypIpUNrfhXUYUqRWaH9bFg0Qa2XOAsopGWz0HvmgDbymtR2yRfXIw26LC6uJLJW9x9/HY6nJJpTZLijBjZr+v9TY7IZm9scxlYkszSQmZlQysWbzyIj7Yf8ck7/tyULEwc2huz8jKY87x7wzqqa5s68Oinu0UjCsWOoZbRTkz8d2f+2n2uf3Pr03GZNuZIDW8SY6ME04P934b9aGoXn2fqmjvwQ5l4GjJvlhcdxvKiw4raqyXctX/8sy6jBiA/JRvQdQ9dmGZFUVmN61kyd1ImZqwQj6r+xX5C9rFqmzqw7AdlfTl5WCo27qti2vYE4/iUA5diTokhOJlhjiGIUIYMAES3Yc6cOXj44Yddfzc2NqJPnz6aH5dS5RCEMrrLvRNKgq/a9UvCtR4KS+qi+uYOfHjHCOj1OtWMVJFQM4Eg+LjpppvgdDrx3nvvISUlRbQgcKTDZ/D1zq/sLrB5G8LH9O+JorIa2UVbveEO9/GOo8y/uXVMGl7/tkxyOylxv70z8OI/x+HaZlX2s+tIPfO2LOL+yH5JSIoziqZW8gf3dDU1CsdO1Qnx33Feu+6FSAG2+hZ1zR0Y9UIBXrp2CHOtHY7Cg79jVLqV2XDAV0i0tqkD963Yhbt/rUdmb4us4ytFLKIwlOHWpw/lZSg2pjW0nvKpbTB30iBYYqOxhGGOAYBjdS2Kjh2q1Ld04MZ3flRc6+T6C87xSc2VaonhTTvkXmtFqbFLKV/sOobmDof0hipjiY3C7TnpaDvlwPLCcmVjt/suXYgIgQwARECx2bpCLquqqpCaekbQqqqqQnZ2tmub48ePe/zu1KlTqK2tdf3eZrOhqsrTcsz9zW3jjclkchWjIwiCCAVCTfBVuwZDuNZ0YBURqpvaMCX7bNWOG+41EwhCiN27d2PHjh04//zzg92UoCJk8PXWyzmx1jsNBGcYaDulnnhyopUt+sKWYMIfBiQzGQBCmX7WOL/3YTUbmT3oe5qjMbJfEorKamBvaEFtUzus8SbYEs4YjdftqcRTq0s0E/8B/nQ1WnHfip1YMHWIh/MCl95RLOd2fXMH7vlgJyyx8iSKxZvK8NnOY5h2of+OXW9tLscDlw3wez8scNckLtoAvU7nV0Fqf7Cao5nrHgBn1qfvFSpP1eVdrLWyoVUyfZM3vRNjFKfKCWXk1jpJtcRg8rBU3tRclQ2teGtzOd64YTiSzCYPYzIAjHxuvUqtZkfKkKgVLe2dfs9/x0VSvhFEOKAPdgOI7kV6ejpsNhs2bNjg+qyxsRE//vgjxowZAwAYM2YM6uvrsWPHDtc2GzduhMPhwEUXXeTaZvPmzejoOPOAXL9+Pc4//3ze9D8EEQ50OpwoKqvB6uJjKCqrQWcQwuOJwCJH8A0U3Eu6zeLpsWizxCiKRlB7f4EgWKmLwrlmAkGIceGFF+LoUXZP80hETsFKbhtvYavytGGg/PeTqrdPitZTDnz7SxXCNXhDhy6h7OYxaTBHGxTvQwfgGhmG32F9LLj45Y2YvnQrZn28G/PX7sOsfxdj+tKtGLtgI+58fzvuW7HT74iOUKKhpUvIzy+pBHBmfdvS3snkQOtdO4KFyoZWLCw4gMQ4o99Ouv+36aAq+2Glub0zaOK/LcGE56ZkAZDn3OyEsuukJmPSk6U3ilCS4qJw76Xn4urs3picnYoV246KPlue+KIEo9KtmJJ9Nsb07wmDXofFGw9EjPHEHG2QHL9qRJ7NX7vPNa8RRDhCEQCE6pw8eRIHDx50/V1eXo7i4mJYrVb07dsXDz30EJ577jlkZGQgPT0dc+fORe/evXH11VcDAAYNGoQJEybgzjvvxJtvvomOjg7MnDkT06ZNQ+/eXcVmbrjhBjzzzDO44447MHv2bJSUlODVV1/FwoULg3HKBOE3oZIDnggsoSr4ql2DIdxqOgQrdVG41kwgCCneeecd3HPPPTh27BiysrJgNHqmOBg6dGiQWhY45BQ2lWLRhoOKcof7Q31zB5Z+XxGgo6mPE10RZwWldsn84kaDDi9PHYaX//OzT9qMuZMGybqOG3/+XfC7yoZW1cZEKDJn1V44HBAtuKoVfFGHcjzcI0UYlaL1lAN6PbDkphGYt+Yn1QuCa0W8KQp6g67bXCcObhy3nXJiybeHmH9X39yB25ZtQ1qyGX2SYnFerx546zv234c6UnO6WtQ1tVM9LiKsIQMAoTr//e9/cdlll7n+5vLu33LLLVi+fDkee+wxNDU14a677kJ9fT3Gjh2L/Px8xMScETQ+/PBDzJw5E5dffjn0ej2mTp2K1157zfW9xWLBN998gxkzZmDkyJFITk7G3/72N9x1112BO1GCUIlQygFPBJZQFnzVrsEQTjUdgpW6KFxrJhCEFL///jvKyspw2223uT7T6XTdqgiw2obc7iZ8qcH2ihp8vus3ye06Op14+JNi/M/YNOQOtOH4iVYkm03YXlGLJz4vkZ2io7tS19yB+1bsDOgx65s7MCvvPJ8ivzZLDKYO743FMkTTuGgDmgMkLGrJuWfFofZkB++4bWjuwL0f7MRdF6cjnBKcvzx1KKpPhoexQk1io/VobncoGpebD1Rj8wF5hZMJT6geFxHu6JxO7wxsBNE9aGxshMViQUNDAxISEoLdHKKb0ulwYuyCjYKeUZzgt2V2Li0yIhDu+ksJvnT9g0MwInM4gyDAb3ggg2B40t3XHJmZmRg0aBAee+wx3iLA/fr1C1LL+NHiehWV1WD60q2q7IsIHHdfnI7hfZNEc9cTocWr07Jx5dDerqhDa2w0Xv/2ILYGMJ1iqOFdaDycuXJICqZflIYfDlaHfU0SInxZeedo1RybuvsakQgcFAFAEAQRRKjoZ/cmXIvkdheCkbqIq5ngbXiwUUowIow5fPgw1qxZgwED/C+uOW/ePDzzzDMen51//vn4+eefAQCtra3461//io8++ghtbW0YP3483njjDaSkpPh9bH/gInwiOeVLJPLW5nIAyoudEoHnQNVJbCuvxch+JPsWegAAVGBJREFUSXj442J8tYdydkeK+A8AX+2twld7q4LdDKKbQ/W4iHCEDAAEQRBBJFRzwBOBgwTf0CYYqYvCrWYCQUiRm5uL3bt3q2IAAIDBgwejoKDA9XdU1JlXmlmzZmHt2rX45JNPYLFYMHPmTFx77bUoLCxU5dhKMeh1ePKKgZj5UXFQ20EQkc7iTQexeNNB6Q0JgiAUkhxvCnYTCEI2ZAAgCIIIIqGcA54IHCT4Et6EU80EgpDiqquuwqxZs7B3714MGTLEpwjw5MmTZe0vKioKNpvN5/OGhga8++67WLFiBXJzcwEAy5Ytw6BBg7B161aMHj1a+UmoQNWJ7pezmiAIT+QUJCYIIkShm5gIQ8gAQBAEEUSo6CfBQYIvQRCRyj333AMAePbZZ32+U1IE+MCBA+jduzdiYmIwZswYvPjii+jbty927NiBjo4O5OXlubYdOHAg+vbti6KiIkEDQFtbG9razojzjY2NstrDyuHaZk32SxCRgjnagKYIKLwrBumGBBH+VDeRQZ8IP/TBbgBBEER3hssBD5zJ+c5BOeAJgiCISMDhcAj+J1f8v+iii7B8+XLk5+djyZIlKC8vxx//+EecOHECdrsd0dHRSExM9PhNSkoK7Ha74D5ffPFFWCwW1399+vRRcpqS9LPGabJfgogUIl38JwgiMqAUQEQ4QgYAgiCIIMPlgLdZPNP82CwxWHLTCMoBTxAEQUQc9fX1in53xRVX4LrrrsPQoUMxfvx4rFu3DvX19fj4448Vt2XOnDloaGhw/Xf06FHF+xIjpQcJBgRBEAQR9lAoDxGGUAoggiCIEIBywBMEQRCRyoIFC5CWloa//OUvAIDrrrsOn332GVJTU7Fu3ToMGzZM8b4TExNx3nnn4eDBgxg3bhza29tRX1/vEQVQVVXFWzOAw2QywWTSVpzvdDjx/Nc/a3oMgiAIgp//N6YfeppNWLntCOyNra7PbQkmtHR0oqHlVBBbR4QblAKICEfIAEAQBBEiUA54giAIIhJ588038eGHHwIA1q9fj4KCAuTn5+Pjjz/Go48+im+++Ubxvk+ePImysjLcfPPNGDlyJIxGIzZs2ICpU6cCAH755RccOXIEY8aMUeVclLKtvBaVDa3SGxJEmBGlB045/NuHDkBKggmADlWN/HWxCMIfrshKxZj+PTEzd4CPw9X6Ujvu+WBnsJtIhBG9esRIb0QQIQYZAAiCIAiCIAiC0Ay73e7Kq//VV1/h+uuvx5/+9CekpaXhoosukrWvRx55BFdddRX69euH3377DU8//TQMBgOmT58Oi8WCO+64Aw8//DCsVisSEhJw//33Y8yYMYIFgAPF8RMk/hORiRriPwDMmzwYAHDvBzuhg2eGDe7veFMUTraRp3aoYNTr0DPe5OFRH4rodcDIfkkA+B2uJmSl4s2bRuDxVXtR39yhyjFH9LFg59EGxb/3vgeI0ECHrjS9o9KtwW4KQciGagAQBEEQBEEQBKEZSUlJrrz6+fn5yMvLAwA4nU7ZRYB//fVXTJ8+Heeffz6uv/569OzZE1u3bsVZZ50FAFi4cCGuvPJKTJ06FRdffDFsNhtWrVql7gkpoLt4CypNXHh7ThoSY8k3TWtMhtBLLele80qsLtasvAwS/1ViZF+LKvsxmwx4ctIgWM3RquxPKxxO4LUNB1BUVoNOB7+sPiErFTueGocP77gI9116LuJNBr+OyYn/Ytlcvb9LjDViVl4G3rjB9x6QgylKD3O0f+0nhHn6qkxK00uEJTqn00mGRaJb0tjYCIvFgoaGBiQkJAS7OQRBEARBRCjdfc0xc+ZMfPXVV8jIyMCuXbtQUVGB+Ph4fPTRR3j55Zexc2dopV7Q4np1OpwYu2Aj7A2Rm97EajaicPblKD5aj+MnWnGg6iQWbzrI9NuVd47GqHQrtpbV4IMfK/B1SZXGreXnzj+mIXegzZUepK6pHfPXlmqSvim7TwKKjzaqvl8+EmONuC0nDRekWXHjOz+qtl+lXspXZ/fGZQN7Cda86nQ4fdK0fLXnNzz4UbEazfYhKS4KN4/uh/eLjqC+RR0P8FDm6uze+KL4N82PMyErBd/98jtaOvwME1GRVEsMnr4qExOyUgW3KSqrwfSlW1U97h05acgdmALogOqTbejVIwYj+yVhybdlWFZY7jHurGYjpgzrjXOS4pAYF43n1+1DXVN72D879Drgtb8MR88eJtgbWlDb1I7th2uRH6T5Xgl3X5yOORMzVd1nd18jEoGD3CwIgiAIgiAIgtCMhQsXIi0tDUePHsXLL7+M+Ph4AEBlZSXuu+++ILcuMBj0Ojx9VWZE5pnmpNsXrhmC2GiDK71GUVkNkwGgpznaJQLnZCQjJyMZ+SWVeOZL/4V3VoE63mTAS9cMQc8eMR6is0Gvw/gsG7aW1WDGip2qisOBEv9n5WVgZm4GDHodOh1OpFpiRA1RckR9pYLkdSP7ICcjWfB7vjQtWkXRWM1GPDclCxOH9kZmbwvuPX2PaiG2xpsMONkmL+qJD+4aJcYZPVLWWM1G1DZJj9HeibF+t4GF3UcbsPvp8VjybRkWFuwPyDGlsDe04t4PdrqiTvhQO2WbDsC6EjuemOTpOZ5fUolFBft9xlptUweW/XAYQJfB4rqRZ+PtzeVhnxZo8fThmDi0t8dnt+akY+gz/0ET432RaonBtAv7YGHBAS2aKMma3ZV4bMIgigAgwhIyABAEQRAEQRAEoRlGoxGPPPKIz+ezZs0KQmuCx4SsVMzKywiacKEVNgGP2lHpVqRaYiRF/PlTsnzElAlZqRiXacO28lrYG1owd/VPstO/3J6Thq9L7ExGhJNtnXhqzU8eYqq7p7Ber9PEM1wNQS8xzoj2Uw40t3sKaElxRrx47RCP68IZooTy7APA6zcMx4HjTT5eyWqhA3ChgvzZo9KtSIw1qt6muqYOzFixC0v0OlcKIjVzwbvz1k0XYNWuX/HZzmN+7Ye757h7hDNajeyXhEte2SRo4OHyl+cMSMYb35b51QYWKhtaseNwHR7My8D5tngfo15inBEAfO67ycNS8e///qrJNXCiqx+e+bIU4zJtvEKu2sYmJ7r6Ylt5rcuw1elw4pkvSyXvf3tDK97eXI67Lk7Hmt2VmheTt5qjUdvU7vqbux5vby73a65KjDNCz9PXBr0Or0wdivtW7BL9vSU2Cm/cOBKjz+3qv4+2Hw1KRJ33dSSIcIIMAARBEARBEARBaMqBAwewadMmHD9+HA6HZzqIv/3tb0FqVeBJSzYHuwmqMnfSINyak84rormLzUIizd0Xp2PiUH4vXHcv8Nhog+h++BiXacOTkzJdRoT5a/d5CFveeIuN7p7Cbf5WuhXAH/EqzmjA3Zeci5m5GQCArWU1KDpUDaCr30af25P3unAit7cY623ImZk7ANvKa1F48Hcs3iQtFnsLh0I4Aew4XCdbQDPodbgtJ011A5q3IDwu04Z5a0oBqCc+c8L7t/uP+yX+35GThrxMm0faJO9+lDLwPH1VJi5Ms0Kv68qNL4Y1Lhq1zdLXVIz1pXaM6d/Tw6jnHmUDwOczg16HxyYMwuKNB30MUamWGMydNAhJZhPTfc0HnyDvDme8VFtgdo8s2FZeyyTmc+Nzze5KfPfoZfhXUQXmr92nYqs8mTtpEGyWWJ/rMbxvkl9RWQ3NHYKRFxOH9sa44mNYX3qc97c6AAumDkXOgDNRQ0LjPBCoHSFCEIGCDAAEQRAEQRAEQWjG0qVLce+99yI5ORk2mw063RlRUqfTdSsDgBLPUqvZiOmj+uJ1BhE20CT3MImmQhASm93TrrAgtB8+OLGVE67G9O+JorIaRSIhJwz/73XDZP1WDrkDz8LGn3+X/bvmjk4sKjiA8209MCEr1ZU+iQUhMdb9WnJ9xyp2PXnFQGw5WI3PGXLLKxXQMnrFK/qdFO6CMADYG9UT+LgevXKoDUu/L1e0D5a89RwsBp6ishpJ8R8AbvlDmt+pe1YX/4YnT6e+4UvtBPgaMYCu8fdgXobLEMU3TpXc1+4IjUOxSBl/cJ//5dwD3PjccbgOt+ak450t5Zp5v9sssbzXg5szlheWKzJAiEVe5JdUokBA/AeAuy5O9xn7cp4JHLkDz8K3v/zONPbF0CodGUFoDRkACIIgCIIgCILQjOeeew7PP/88Zs+eHeymBB0lnqW1TR3QITD5huWKXSxCCIvYzIL7ftaX2vFeYYWol7P7/pUKzpzwBidEr5sOQEqCCa/8eRju+WAHmtrZ87zf+cf++POIPnhqdYkiMVMslYkYQmKsN6xi1/Nf/8zcfiUCWqfDqannM6CNZ6/VHI35UwbjqdUlzL+xJZjw9+uzXcVi5d4vYt72RWU1+Lqkkmk/NU1t+POIc/Dpzl+Zj+27j3a/UqaIjVN/r5fYOBQSmL0jJ1jmTHejJMuxhTh+olUz4wRfG70x6HW4NScdS78/BHtjm+xjKE2FJJR3nxvn720px/PrpOeGO8aeizdvugD/KqpAeU0TjtY2o/hoAxrcIkzEImNY+oggQhkyABAEQRAEQRAEoRl1dXW47rrrgt2MkEC5eKNc5kmKi0L7KaeoKJ0YZ8QLVw/B/LVs3pRyhRBWsZmVYX0SMSvvPKzcdsTDW1uoHoG/HpvVTW2SqVXmTR6MP553Fl75s3Q+a+537pEKAGQbAaRSmagBq9GKpd3+CGisKVP8QQvP3qdOp6thKc7LMW/yYI90J0rwvueUFNZ+v6irEC1LuiAxtEqZ4s/10uuAOokxy2dIGdkvCTsO17mMkCziP+BrlFRiDObOV8g44Z6vH5D/1PBuIx8GvQ5/uzKTaY4TQm4qJLE5zqDXITM1ge3ATiA6So+zk2LxzpZyz3oUsUbclpOGc8+Kx/0rfc9N6DoSRDhBBgCCIAiCIAiCIDTjuuuuwzfffIN77rkn2E0JCZSkLhhzbjI+23lMllgUF21AjNHAJMy+dLpY7PisM2JXRXUzFp1O/8HiZa81fAKmLcGEWXkZSEs2i3pK+5vTu1ePGIzp35Mpd/7Eob1x96/1eGuzdLoXrg/zSyoxY4W8GgfuaJmTWi2PY3/HjZbn6G2YUDP/O5dPnZVZeecxpfqRQ35JpewaGu6EasoUf+5rhxOYsWInluh9c9K7w2e8HJVuxcMfFzMdR8go6X5fScFnOBOLrJKbr7+nORrPX5PFPO6SzCam7YRQkgpJbLvqJrZohOqmNsF7oaGlAwsLDrgKU3sjdB0JIpwgAwBBEARBEARBEJoxYMAAzJ07F1u3bsWQIUNgNHq+YD/wwANBalnw4MSbrWU1mLFip0eRS3c44Wd0/57MIiz3fXN7J5olUtF45xb3FrvOt8VLCt6BQEi0qWpsw6KCA1hy0whRD3ilIra38MaazmjOxEwMOydJ0KPfvd9ZUmBIIVdg7XQ4ZaVkEqvlwOrZ7u+4kXOOfFEaTpHvAE/DhFS0x+WDeqFgn3DOcm5bbuxwtQWksMYZMTN3ANO2rKgxvji8IwFsCSa0nnKgoblDMDWWlilTxO5r7m+dDnCKnLySFFqs0ShiRdIBNmOwmOFMKLKK9fkCdN3DRXMuR3SUXvJ8OJQa4/xJhSS2Hes+ks0mPPLpbt6xyn3mXQyeY+6kQST+E2EPGQAIgiAIgiAIgtCMt99+G/Hx8fjuu+/w3XffeXyn0+m6pQEA6BJvcjKS8dLUIS4vUDFhkjUndcppUU5IyAC60h28fuMIjD63p6Twq0b+fn8QEzDFCkt6I9R/iXFG1Dd3MNcTYE1nNHHomYgKe0MLapvaYY03wZZwpg87HU4sLyxXnNpGicDKF0nBUmSWbyzYG1sx69/FkseceVl/zBp3vl/jhsXb22o24pnJWXhh3T5eoxUAJoMWSyHddXsq8dhne3Cy7ZRPO7zHDtd2qev83NVDVL+31Eyd5HB2CaHJPUyuuWB9qV3UWKJ1pJDYtZp2YR8sLDgg+FulKbRYBXCpIumAb22TL4p/8zAaKjWcsT5fXrhmiCzxH1AW0aE0FRLLHMe6D+ig6F7QAZi/dh/GZ6VS+h8irCEDAEEQBEEQBEEQmlFeLp0KpTvDIja6byuUk5r72+F04sZ3fhQ9Zn1LB/Q6HZOYoXb+frlICZhyRDwhg8b6UrsmkQ5ifackJ7s7SgRWoUgKe0Mr7v1gJ5bcJC8dSlFZDdNxcwac5bdwxhLFUdvUgRfW7cPc03n3+YxWrAYtKeMXZ+BZvPEglhWWe3hZe48d97YLGS/uvjgdE4eq72HMKlb/MSMZ3x+oltwuuYcJU7LPdv0tZ/7SCqFr9dWe35h+L9ejXQ2vdXe4+2pM/554clKmqgZXLa4PizHOJ1qEIRWSUiMS6z6qT8ovXAwEptYKQQQCMgAQBEEQBEEQBEEEETme9nyisvvfq4uPMR1Ty5zqaqJGjmh3+Pov0JEOSnKyW83RfnkGqxVJ4Y4a3rtyYEmZYm9oxYwVu7DkphEeQjWHHIOW1LYGvQ4P5mVgZu4AybEjlkbpuSlZmDi0N1Ob5MIqQl963llMBgC+/YVCpBDftVJbqOfQctxrYXBV+/qwCO6Lpw8XNMLxtc9fIwXLPlgNlkKEyzOTIIQgAwBBEARBuCE3L253bxdBEAQLv/76K9asWYMjR46gvd0zJ/o//vGPILUqtFBL+NFK9AoWgTqfQEU6yM3JzomJ3z16mUekh9x1gJqRFBxqeO/KZUJWKnIHpmD0ixt46ysoNWb4A+vYCYZQzipW3zwmDe9sKVcsagc7UogPrYT6YIx7f1H7+qgdWaDGvSG1DzWKwRNEOEMGAIIgCII4jdK8uN21XQRBECxs2LABkydPxrnnnouff/4ZWVlZqKiogNPpxIgRI4LdvIgj0F7ZWhNp5yMnJ7u7mBgdpfdLwFM7koIjGClgdhyu4xX/OUI5ZUeghXJWsTo6Sh92orYUWgr1oZD6KNhoEVng770htg+1isETRLhCBgCCIIgIgTzE/cPfvLjdrV0EQRCszJkzB4888gieeeYZ9OjRA5999hl69eqFG2+8ERMmTAh28yKOcPROFSPSzkeOwK6mmKhlJEWgPdu1MmZEKqxidSSK2lqeUyikPgo2oRj5IYZaxeAJIhzROZ1OJdEvBBH2NDY2wmKxoKGhAQkJCcFuDkH4BXmI+0enw4mxCzYKeuRxnh9bZucGdPEXqu0iCEIe3X3N0aNHDxQXF6N///5ISkrCli1bMHjwYOzevRtTpkxBRUVFsJvoQaRcr0hbG0TK+RSV1WD60q2S282dNAi35qSr9nzn1hRSkRThsKZg7cOVd44OK3FSa1idhSLRqSgSz4lQDt944CsGH4hnTKSsOYjQhyIACIIgwhzyEPcfLfLiRnK7CIIg5GA2m115/1NTU1FWVobBgwcDAKqrpYtOEsqINO/USDkf1pRGaor/QGRFUkRaWqhAweqtHW5e3SxE4jkRygmFYvAEEWjIAEAQBBHGiBWSC0YRtHAlVEPJQ7VdBEEQchg9ejS2bNmCQYMGYeLEifjrX/+KvXv3YtWqVRg9enSwmxfRRJroFQnnE0whPlJSvESSMYMgiNAhEp4xBCEEGQAIgiDCGPIQVwct8+LKxT0ktfpEG9NvAtEugiAIpfzjH//AyZMnAQDPPPMMTp48iX//+9/IyMjAP/7xjyC3jiACTzCF+Ejxco0UYwZBEARBBAIyABAEQYQx5CGuDqESSs6X31ivAxwC1XooxJ0giFCns7MTv/76K4YOHQqgKx3Qm2++GeRWEUTwCaYQHylerpFizCAIgiAIrSEDAEF0A7yL3Izsl4Qdh+uYFsrcb+0NLahtaoc13gRbgnqL62AXZAr28f1Fa8/1QPVPsK9DKISSC9VyEBP/A9GuQBGsMRDssceKWDu1PodQ76PuXNQwHDAYDPjTn/6Effv2ITExMdjNIYiQIlKE+GBCfUgQBEEQ0pABgCAiHBaPYqHq9ny/lfqNv21TY78Am9Cj5fEDhZae64Hqn1C5DkKh5JZYI27LScO4TJtmxxar5SBEJIW4840Bq9mI56ZkYeLQ3or2GUlzgFg7HQ7gqdUlqG1q9/lOjXMI9T5ibV+on0ekk5WVhUOHDiE9PT3YTSEIgiAIgiCIbofO6XTK0RsIImJobGyExWJBQ0MDEhISgt0cD9TyUhTyKPaG2/PrNwxHktmE4ydaUVHdjEUF+0V/qwOw5KYRTOKJ9znVNbVjxgrftnFtYd0v33EWbzyIZYXlqG/pcH3uLvRw2yws2M97Tv4cPxhw1xng91xXci5CY0ft/gnUcThY7i3WMaSmN3ZRWQ2mL93KdA535KQhL9MWFO9lLTyopeapuy9Ox5yJmbL3KSb2htMcIHaPqDU/Kzk2VNg/C2JjTmrscPeKVs8bOYTymiMQ5OfnY86cOZg/fz5GjhwJs9ns8X2o9Ul3v14EQRAEQQQGWnMQgYIMAES3ReuJVqlQppaXYqfDibELNooWiPVGLNc4H5x3+ZbZuaLnpjSvudR++Y7z+Kq9qG/u8PmO28tdF6djdfFvsDcKF1dVevxgoqZ3q9TYUat/AnUcDjmewmKi510Xp2PN7kre/QBgvg7uc8SBqpNYvOkg03mkBmlsauFBzTpPvXHDCEwcynYMlusXLnOAknncHX/GSqDvTz7Exty4TBtz32jxvJFLd325e/bZZ/HXv/4VPXr0cH2m053pZ6fTCZ1Oh87OzmA0T5Duer0IgiAIgggstOYgAgUZAIhui5YTrVKhTE1vSzkexf6y8s7Rgrk3WaMQ5O6X7zj3nPaCVws5xw8F/Kn14A7r2PG3fwJ1HID93lIquIp5Y/Pdv2LptVgI9NjUyhOcdQz0NEdj25N5kuPXX8Hcm2DPAWrM40rPgfXYH95xEXIykpU0TRSpMfdQXgYWFhxQ7XhaX+vu+nJnMBhQWVmJffv2iW53ySWXBKhFbHTX60UQBEEQRGChNQcRKKgGAEGojJBoYW9oxb0f7BQUysRygDvRJXo882UpxmXamETc4yfUEcBYcD9W+ykH/lVUgcO1zeiTFIt3t1QoEv+99ysG13dqE8g+9Adv4f/Kob2xvtSOS17ZpMhbm/W8/e0f1t/bG1pQVFajOO2MnHtrW3mtIvFYbIx7H2N9qV2xUYwjkGNT7bnJHdbzqGlqx7byWkmBVun1E4KvfYEsJKvGdS48+LuiNrIee8aKnXhp6hDVU3VJjbllhRWqHQ8In/k+3OD8jEJN4CcIgiAIgiCI7gQZAAhCRfwRyqSEKyeAyoZWJhEMAJLjTbLa7g+9esQAAF5cV4ql35fLSiMkxoGqkyg8UA3ogOqTbYJe7WqLfhzceWkJq5gotB2fJ3linJE3DRJnhHKv9cB3TNax490/coVR1v6dv3Yfb4FTTrCXOh7rvbW8sBxWje4b7hhby2pkF/vlIxBjk2ProRpV5yZ35JwHi0Crtoh7oOokispqRO83LQvJqnGdF28qw2c7j8luI+ux61s6RI3bSmC5Z93rc6hBIO+p7oZ7yh+CIAiCIAiCIAIPGQAIQkWUividDicKD1YzHYNF4MovqcS8NT8x7U8N6pra8eK6Ury1uVzV/S7edNAnL7p3LudUSwwmZtlUPS6XE3pUutXnOzW9f/nERKvZiOemZGHi0N6i26VaYjB5WCre3lzuIybzif/AGS/1mSt3+fQhJw6yjB2uf0b2S0LhgWoUHapG2e9N+LG8lleodxcF3fsv2WyCLSEGVY2tooK4+z6BLkPGPR/s9DF0CAmxrKLw/LX7kBRnZNpWKUWHqv0yVomNTS3IL6nE45/tZdpWifg+Kt0Kq9mI2iZpMVdIoOWijsprmlClsiGQm4PE7jep6C458KXxSrXEwN4gfo9IUXn6npmVl4GZuRlMc9aodKusYwsZt7lzsje0oLapHdb4rvtezNjJ+jxUC6vZCHtjq4exh1CP8847T9IIUFtbG6DWEARBEARBEET3gwwABKEirALY1yWVALoElvWldlm5wKW8ruua2jFjhX/pReTyzJcl+P1ku/SGKuAdXWBvaMW7KqeCAICnr8r0EYHU9P5dt6cS963wrVlQ29SB+1bswt2/1mPOxEzBlFKVDa2KDS58fXjvBztx18XpvAKnO1yPTB6WilEvFAgaG9z3ywmjQtEKcscqt733sYWEWDmevXUi56MGZb83+b0PvrHpL3yGLbmpilj6me84z03Jwn0rdon+LlXA6KF21JEQYvcbd2ilaZA4pAx9YnUmWFlYcAArtx3FvMnicxZ3na7IsuE9hvlVyLgtVutCqAC3P7UxlFLb1IFZ/y4WbBfhH8888wwsFkuwm0EQBNHtCGTaQoIgCCK0oSLARLdFi2Ircgs2CqVq4YPz/N0yO9e1cOMTS7w95Hn3pQMi7c7Xnz4nf09LSPxRswjquj2/+Xjh87F42nA8//W+gIlhLGOHEyRZjQ/cuH1i4iDcv9JX5OVETbXGpA5ASoIJf78+25U2KrtPIgY/na+5SCyFOVoPvV6PE62nFP1erwMWTx+BiUPVFSb55hFbggmtpxxM8xPf3MR6HO5+23WkTnBM6cB/f2kRdeQvSgvJSs0vd12cjjW7K5lSfbEg1KdcW7yvE6vx4dVp2ZiSfbZrP1IGJPd2+FMwnhWm5+Pp/6uZ0gjovgXe9Ho97HY7evXqFeymyKK7Xi+CIPgJRyE90GkLCYJQBq05iEBBEQAEoSJyUybIFW/cPX+FxBIWkdNdaDWbDGhq65TVjlCEO28hoSopzojrLzhH1MP9qqE2/P364dhxuA6ri4+5FvgAVCuCml9SKentzPHEF3vRqFAsVgLL2Hnp6iF46JNi5n1ynsEPfMR/ztwh1TJIOQHYG9tw4zs/uj6zmo1BF/8BoKndAcCh+PcOJ5BkjlavQRApWt7YxrwPJ4BpF/ZRdhy3qI03bkjCU6tLJNNIAV1pf5Z+H1riPwCsL7XzGgD4hAMArtQ489fuE5xfAGB18W/Y/FiuT/0TuRFk7vDNWUKRSXKjQMTq4fC1I3dgiiq1MaQwRekxaUgqxvRPxvPr9vmkFwP8L2xNeEL5/wmCCHfCUUhnWXeFatsJgiAIbSADAEGoiEGvw9NXZeLeD3aqkq6BQ6cDXp9+ZqEmR1yRIhLEf47bc9LwdYnd00s21ojbctI88l4LeQ1/uceO7w8W+OSVn3ZhH1WKoHLXjZVAiv+s3LdyJ5ra5Y+ZYEacsOSXDxfULHKr5jyysOAAPtp+lLfmw9ayGjz+2V5JA9qW2bkYn2XzyYHvbZAz6HX4V1GFLKNOrFGPlg7lxhdWVhf/hicneaZo4hMO4k0GRBn0zEZge2MblnxbhgfzMjw+n5CV6iqGXXjwdyzeVMa0P74566vi33D/v9mMk3zYEkwehg0WowTXjn8VVQQk0qmlw4FPdx7D1z/ZRZ99/hS2JjyhQGOCIMKZcBTSxdZ3ZOQmCILovpABgCBUZkJWKpbcNELVPMZOJ3Dg+EnX36ziilqIpU3QAegRY0Bja/ANCeMybXhyUqZgiG6nw4k1uytF98GXV35hwQGm40uJs4G+blqgRPwn1ENOPQM+OEG+6FA1fq1rUXU8stR84IMTW5cXliO5hwnJZhOS401YX2rHjBU7eSMCDtc2y2pbIMR/AKhpavcQjYWEg5NtnQDk3UsLC/bjfFu8j9Bg0Oswpn9PjEq34rOdx2QVDObmLDXSKbWecmB9qR0TslJhb5Q3ruReT39hNXyraXDrrjgcgbn3wg6nE2gO7LgnCEIenQ4nFny2AzHt/FGROgALPtuBcf0uDSkh/b+HalD/ez1iRbap/70V//3pKC46l4zcBMFMXFyXZyZBhClkACAIDXD3yvy6pBLvFx32e5/LfijHzNwBMOh1ARMluMfbnX/sKg4LeEY1cFEOwRb/uRzknNgvlIJjeWG5bMFTju+ilDir5LpZzdGoa2oPSFFnteooEOrjPsaVkl9SicdX7VWcN14Kd68yhwOyi5HPX7tPchvOyDB1xNlKm6lqdBYf3H2uZoQFh7fHnndqobmTMjGDJ4WPEL16xGDdnt9kif9x0QY08xgCG5o7XMXEP9nxK/P+AKCfNU7W9oHCX4MbQQjS3AzExwe7FQRBiGAAsIllw3natkMuFwGQXlEBWKhxQwgi0jh5EjCbg90KglCMPtgNIIhIhROir1ApLLS+uQPbymsBBE6USIwzYslNIzBnYiaW3DQCNovncVMSTEiMM8rap1Y2c/f6CN7kl1Ri7IKNTAKjEnTo8kyWEmflXrdUSwyem5LlR8v48e4l3en/7vxjOu/3gUDOODJHGwAEp53epFpicPfF6aq2he/6AOJjXIr8kkrc88FOzcR/Ds6b/6nVJZqI7Nw+vz/wu2IHHO86CtzYU+saJsebAGgT8cOlpQHOzGvTl27Fgx8VY/rSrZi/thR3XZyOlB7StSJ0OiC7TyKeWl0iqw0xRgPv587T/721uZw57RY3d948Jg2plhjBa6BD13Xi5qpAwDKnE6HBSy+9BJ1Oh4ceesj1WWtrK2bMmIGePXsiPj4eU6dORVVVVfAaSRAEQRAEQRBBhCIACEJj5BYGFoPzLOX2qXU6GR260uoAnlENnLepw+n0KLbKgu10Co9TpxyY+VGx3220mqPxwjVZgvk3hVJwKMXbe1iOOCt3LHD51JfoR+CJz/eqkss+Mc6ImCiDR4oOm1shs+F9k3zStiTGGlHfoq1w/NK1Q/CL/QRTuiVTlB6v/HkY5q9VL80WC9y1n5WXgbRks0cx17hoI976rgzNHcqjYRLjjHjh6iE+52Xzs9Bcp8OJp1f/pLhdSuArrqoWTgBVJ5Tvf+6kQbBZYlUrpsvbQGiXPub4iVbRnMRvby7H/Zf1x2sS9QCcTuCDrYdlzStWs1HVa+vEmblz2oV9sbBgv8823Kz60rVDAMB3fjptwFHbuDXtwr4hldKB4Gf79u146623MHToUI/PZ82ahbVr1+KTTz6BxWLBzJkzce2116KwsDBILfUiLq7Lk5AgiJDlx0M1uHXZdsntlt92YUil0ul0OJH3j29R1dDG+76hA5BiMaHg4dBKXUQQIU9caEasEgQrZAAgCI0RKwzM/W2K0qPtlHSeXM6DnNvnPR+wp3pQQu3pqAMupY53ep3VxceY9jPzsv7ISOnhkZO/qKxGlTa++pds/PG8s3i/UzsFx6y88/DR9iOKxVk51y0xzuhhfMkdmILRL27wW3yrb+7Ah3eMgP50KinvOglqGXrkwAl4aclsIZW1zR1IMkdjy+xcVzuTzSb89ZPdqGr039AmBN+1Zs1zz0I9z3l5Xx8lLN54AFUn+PPXdkdsllifNGHe436//QRe/5atoK431U1dfa1VpFay2YRHPt0tWtzv3R8qmPa1vaJW1rGvyT4b7xay7ZuFxDgjHA5g7IKNgveQ933nPT+5Fx52nwvk1iHwJi2ZXvJCnZMnT+LGG2/E0qVL8dxzz7k+b2howLvvvosVK1YgNzcXALBs2TIMGjQIW7duxejRo4PV5DPodJRGgCBCnAsGxyHxrAOCjjtcesYLBvfpyqMZIhgAzJ46Eveeft/gc1yaPXUEDD0oDRlBEER3ggwABBEAhAoDc8JG7sAUjJi/HifbTvH+ni//94SsVMzKy2AuUKsUMS9WVoErZ8BZPoKbWt6xtc3CgrhaKTi4/p+ZOwAzcwf4Jc6yXrd6L+NLdJQeL1yTpUo0Q3VTG6Zk++ZQ984nfuXQ3jDodeh0OP2OYhHLu87lDn8oL4N5f8dPtHoYpDodTkwfxe9BrIQrsmy46aJ+gA6oPtnGe63Vji4BfM/LX/JLKjWfI9zhUrXUaZxqSAlSdRTc+72orEaxAYCbF0elW097zKvXFzoAq3b9KjqvOcFe5LZeZP50R68DFk8fgSRztKoGgPrmDtwnUrNgVl4GZuZmeNx3QveH+2fzJvtvIKf8/6HPjBkzMGnSJOTl5XkYAHbs2IGOjg7k5eW5Phs4cCD69u2LoqIiXgNAW1sb2trOGEobGxu1bTxBECGPlBMX4F96Ri2RevdUGlVKEARBhC9kACCIAMHnWe0uKP7vdUN5xUSxBebM3Ays3HbUb09HMcREEKmUNmKCm1riith+lBgZWBb4/oqzrJ7u3u3nFvPz1vwEe6Nyj26+PuPzZE91e0kQegFiYVbeeVi57bBgmzmv5ZXbjiCJUTx2Pwc1vfABwJZgwuIbRoi+0GlR4BUAqk+0YXXxMVU8/7k2BgpubDic0r2SGGvEjMsG4Pl12tTl8Ebui7qS1G3cfDeyXxKKympw/EQrbh6dhlc3qGeAcQL4bCdb5BUL2yrqmLZ77S/DMXFoqirGQFZ0AD7afhQzc9kNgxwTslLx5k0jFBW9VqPgNqE9H330EXbu3Int233Tc9jtdkRHRyMxMdHj85SUFNjtdt79vfjii3jmmWe0aCpBEGFMOAvpUu+eBEEQRPeCDAAEEUDEPHuVLDANeh3mTc7kDfGUIvf8ZGz8pVp0G1uCCQ6nU1CQ9MczZlS61a/c8iwiTUV1k6x9/nnE2SjYd9yjTf4s8DsdTmwtq0HRoWoAXdd+9Lk9mY0ffNtxi/mZK3bi6xJ+IUMIoT4Tyyd+7wc7seSmEYLjU68DHAIDzz1y4oK0JNE0Qk4A9sY2TBicgvyfxAs1uhfnlOuF7z5OhcbsvMmDJV+OtCjwqtfBo1B1qp8vl1q0UQxLnBH1zR1oaOGPZALc8rlPHYJxmTa8V1guW2RXIjzLvY/F5jahdgHA5GGpuOSVTYr6Xexe0gKdrqsOgBR3X5yOK7N7A5DfL/7AFZR2j4Ti8I5W4hM0uLly8caDWFZY7jGvJ54eq+Hm0Ul0cfToUTz44INYv349YmLUcSaYM2cOHn74YdffjY2N6NOnjyr7JggivAlnIV3NqFKCIAgivCEDAEEECDmChZwF5oSsVLx+wwg8tbrEIz98qiUGVw5NxWc7j/l8zglhL64rxVubywX33XrK4SHa8gmSSj1jDHodbstJU5yexAlgYlZXX/H1kdzUJzod8KmbZ6052oA/ZiRjZD8rWjocKCqr8TiO1PXML6n08T5dvOkgEuOMuG6kb/odbxJjjXA4neh0OF1peNyPd9PofrINAHx9JubJzn321493Y++xBvyhfzK+e/Qy7Dhc52pHXVM7ZqwQzjH69FWZAMBc80FK/Ae6RFaptnN4i6rcuAR8i4nKEYlZo0suOe8sfLf/d6ZtvcVfbwOMO9x4sDe0oLapHYlx0ahvboc13gRbQtd41KoILR9/HNATB443ARA36Hn38dxJmaIpYPh+P3fSIMxfu0808iglwYS/X58tmL6JQ+w+Fprb+IrO2iwxmDwsFW9vLlckiifEROGHxy/Hv7cfwY/ltfimVPo+8BcW8f/ByzPwwOUZroiGXj1iMC7TxvvM0QrvcbxuT6XPsa1mI56bkoXxWak+1/PBvAze1G3/KbH77CccPDqJrhQ/x48fx4gRI1yfdXZ2YvPmzVi8eDH+85//oL29HfX19R5RAFVVVbDZbLz7NJlMMJlMWjedIIgwhYR0giAIItzROZ0sr4AEEXk0NjbCYrGgoaEBCQkJmh2n0+HEom9+wVvfl6O980yhX6vZiGevGoyePWJchQuhA443tqK2qUvI6xXf9Zm9vgU7j9bheGM74k0GXDviHFx0bk/8WFaD/9t0ALt/bfAoImzQAda4KNQ0n/IQFfU6IKOXGZednwJLnBE/VzZi77EG/FrX6tG2aD3QLlKTeFZeBs5JjPVo0+ShvXGwugmHa5ugAzDsnETUNbejvqUDTieQFBeN5B5nxElOwB353HpFKRrcJy5LTBTGZaZgTP9k1Da1obqpDf/84TBaO6QLK8vBEhOFvEG90NTRiS0HqnHSLc+20QBcmZWKa0f2waZfjuM9lfJkW81GDO+TiB2H61Dv5lkdFwV0OHToUOgynBhrxG05aRjRNwk3v7eN+XdGPXDZ+WehV0Ls6WvgxO8n2vHd/uNoO3WmLXFGHSYMTkV1czu2l9eiReVrsXhaNqpOtHl4zAuRN/AsnJeSAOgAS6wRja1dY7JHTBR+sZ9Ac3snLkyzYvqovli57TC2V9TBHH3mPttxuM4ltHMCO2th5FijAS0d4vnYpTypY4w6vHXTBRjTPxk/ltXgtY37UfxrAzo6hX8Vb9JjkC0B2w/XS7bRG1OUDh2dTk280XPOteKui/tDr9dhxbbD+N7rPuIjSt8lkPeIMWJwagLqmttRUduMygbhNFh35KQhL9OGkf2SPAxW2X0SseLHwzhc24zmtlPYcrDGI4Wa1WzENdlnIy/T5jFPbSuvxW91zSj+tR6ADn2tsRhoS0D1yTYcP9GKkl/r8fVPx3FKYael9IjGyfZO5tz9/nJushmHGCKkJgxOQfHRBo8+iovWQ6/TSV43tXh8/PkY0icRv9U1Y/Gmgzhc2yK4rUEHuN8WSXFGzJ88GJbYaHy68yiO1bfinKRY9LXG4eP//upz7Z+bkoWJQ3trch6BWnN0B06cOIHDhw97fHbbbbdh4MCBmD17Nvr06YOzzjoLK1euxNSpUwEAv/zyCwYOHChYA8Abul4EQRAEQQQCWnMQgYIMAES3ReuJttPhxOKNB/Hqhv0BTesQDiTFGXHt8C6RbePPVVj6vXAUgjuBTpFBEELERunQcooGYyQTZzRg4hAbXrh2KP7+zc9Y+n25x/yjQ5dHoFLRnwgtuPgQvogbNaCXO2259NJLkZ2djUWLFgEA7r33Xqxbtw7Lly9HQkIC7r//fgDADz/8wLQ/ul4EQRAEQQQCWnMQgYJSABGEBvClfyHOUNfcgXcLK/CuTC950tmIUIHE/8inuaMTn+485pEazB0nQOJ/BMFdyWe+LMW4TFtY5HYmhFm4cCH0ej2mTp2KtrY2jB8/Hm+88Uawm0UQBEEQBEEQQYEiAIhui1aW1vySStzzAXtOa4IgCIIgQoeVd45WPdczeXeFF3S9CIIgCIIIBLTmIAKFPtgNIIhIgitKShAEQRBEeLK+VF6BdYIgCIIgCIIgiFCGDAAEoSLbymtR2dAqvSFBEARBECHJ6uLf0EnpnQiCIAiCIAiCiBDIAEAQKnL8BIn/BEEQBBHO1DS1Y1t5bbCbQRAEQRAEQRAEoQpUBJggVCQ53nTmD6cTsR1twWsMQRAEQRDMtBj/f3v3Hh1Vfe5//LNnMrdcJiHkCiZpEBrlKhfBVKFnCUIo3usxR+lpQA8WBVcrXmmPUM85PbEtpVaq4jpdQk8vcpQfYJcKSwWiQtEq5SICkXARxCRcc79MZub7+yMrU0dAoE0YsvN+rZW1Zu/93Xs/3yd7wjM8s2c8ktX+5b+PLN+mdx+9NsYRAQAAAMA/jgYA0ImCbeHIY19bq3b98rYYRgMAAM7V5Q8sV7PbK0k6dLJZDS1BJXoplQEAAAB0b3wEENCJlm89FOsQAABAJ/j+sr/GOgQAAAAA+IfxtiZ0a88884x+/vOfq6qqSsOGDdOiRYs0evTomMVTXtkQedwc59aI2b+PWSwAAODcNce5o5a3H66NUSQAAAAA0HloAKDb+r//+z/NmTNHixcv1pgxY/TUU09p0qRJKi8vV0ZGRkxiSvL97SnlCwb0119/JyZxAACA8/PFjwCSJI+TG2UBAAAAdH+8skG3tXDhQs2YMUPTp0/XwIEDtXjxYsXHx+uFF16IWUwTB2bF7NwAAKDz3Dk6N9YhAAAAAMA/jDsA0C0FAgFt3rxZc+fOjaxzOByaMGGCNm3aFLO4pl+dr9LVuyVJzS6PLn9gecxiAQAA567Z5Yla/rdxl8YoEgAAAADoPDQA0C0dO3ZMoVBImZmZUeszMzO1e/fu0+7T2tqq1tbWyHJdXV2nx+WOc+h74/L1/Dv7JcuK+igBAADQPXxvXL7ccdwoCwAAAKD745UNeozS0lIlJydHfnJycrrkPHO/NVDfG5ffJccGAABd63vj8jX3WwNjHQYAAAAAdAruAEC3lJaWJqfTqerq6qj11dXVyso6/efwz507V3PmzIks19XVdWkT4MGJl2nJxn164+Nq1be2qSAjSYneOFXXtqjiaINagmE5ZRTnsFTXGlIwbJTkccrrilOCJ06Zfo98LqfKq+vV3BZSgjtOl2cn68Yh2Vq9q1Jvflyt5kBI7jhLSV63Ej1O9U5wq741pIZAUEkel666NFV1zW3aerBWgVBIX+vlVVV9QJ/XtMjldOjSjATFORxqCYbkcTrkcDjkdVmyLIeSfU69t/eEGgMhuZ2W8lJ9OlzbosbWkFxOh3JTE1Q0OEu3DL9E/7b0PX1c2aCgkeJdDqUlejQgI0GXZiSpsqZJ+441qbEtpL7JPn13dK5e3npYnx5vlIzRJanxCrSF1TvRI4fDUmayR7VNbdp1uFYVR+sVDEmuOIdyeyfomgFp6p3g0ZGGZr3xUZWONQRkySjJ51ZaklfDc1L0oykD5Y5zaEP5US1+p0L7jjUqzmEpp5dPxhhVHGtUMCzl9PJpznWXqfDS3vrfTfsjv6fLs5J16/C+kqQVWz7ToRNNag4EVd8aktMhpca7leKL0/4TLUpwO5We6FJ1fUBVNU0KhNu/NNLptOT3uuR0WpHjhcNGi9/eox2V9QqFwvK6nPL73EryxqlfRqIu6eWT3+vSrs9rtauqXuFwSG0hqTVklOx16ebhfTSgd6KeWr9H1XUtinc7leX3qqalTUmeOH09M0nJPrcqa5tlWZb69vJpdF6qdlTWatWWw6ppbJXlsORzxSnRE6evpcXrRENAxxpbZYyRy+FQTVNAda0hOWQU53TKG+eQLCnOaak5EFKy1yWPy6m2UFhhE1bIOOSLsxQ0UnqiWwkelyYNylJ2sk/BUFj/76+HtKuqXpYlXZbp1+C+yUr3e5UW79bu6np9eqJRxhgleVyqrG2WMUbHGgJqDYXVx+9RY2tQe481KRQOKzc1QUMvSVFyvEu7K+v02clmuRxSfWtI9a1tsmQpxRenk01tagmGFWdJCS5Lh2pa238vDik3NV7GsuT3uXTtZe1fFL5u91GFwyEFgmGVH2lUW8hEPZfjLCnB45TfGyePyynLkjKSfBrUx6+G1qCO1gcU77IU74nTsYY2Jbgduizbr9qWNh0+0aRjDQE1BdpU0xxSvMshd5xDlqTGtlDkb0LlySZtPVynYCiseE+cRuQk67OaVhkZZSf7NHFgpk42BbTz8zodPN6oYw2tqm8NqbUtpNaQUdhEx5uW4FbvJI/cTkuBkJEnziFP3N+e35Ily7KU6Hbqsmy/6luDaguFtaeqTh9X1isYMirIStK/XZ2vfceb9OmJRoXCYTU0B1V+pEFJHqf6ZySqORDWoRPt8dQ2tykQllJ8Ll3Tv7dcTqcOnWySN86h/hlJkiU1tAQVMkZH61oUNkZVtS1qbQvqZHObwsZSgtup3NR4pSd5JRkdb2yLxGuMUWVNs+pa2mP1xFkKhqWWoFFagktX5PZSSyCk3dV/u94G9mmfmzFSkjdOuyvrdLimRdl+t5oCIVXXB5TkccgT59Teow062diqUFgKSXI5HUr2uXRJskfVDW1qaA0q0ROnIX1TlJcWrxF9U/THDw/qk+oGJftc+sH4r8vltLRy62E1tgbVO9GtptaQPq9tP19zW1jNbWF54yx5XU59cqRBklHveLfqWoI61hiQ2+nQ8JwUDeqbrKONLVq786jaQmGlJ7p1Sa94Vda2yO205HA45HM7lJHkVYrPLVnt8+v42yEZpSV4ZFmWmtuCagtJmUluGUnH6lu071ijwmHJ63IoI9knX5xDrcGw2kJhyVJk35ZgSN44p1LjXdp7tEGVde1/K5J9LiV7nTp4skVNrSEZSV6XpQSvS4OyUzTyayn67ESTPjpcK2OkvN4+HTjWFJnj0D5J+uxkkyqONilkpEy/R4P7JKumuS1yzt4Jbh1raNXxpoDi4yw1tIbVEgwr2efS5CHZqm0J6M97jqu+tU0mbBSWJadl5ImLU3qSW/HuOPVLT1RVbbOO1ree8neuprlNxnLI73EqO9krp8Mhh8PSxIFZmnY17/wHAAAAYC+WMcacfRhw8RkzZoxGjx6tRYsWSZLC4bByc3M1e/ZsPfbYY2fdv66uTsnJyaqtrZXf7+/qcAFc5EJho7/sP6Ej9S3KSPJqdH6qnA4r1mF9pe4YM9ATUXN0L/y+AADAhUDNgQuFOwDQbc2ZM0clJSUaNWqURo8eraeeekqNjY2aPn16rEMD0A05HZYKL+0d6zDOS3eMGQAAAAAAXDg0ANBtFRcX6+jRo5o3b56qqqp0xRVXaM2aNad8MTAAAAAAAAAA9EQ0ANCtzZ49W7Nnz451GAAAAAAAAABw0eFbzgAAAAAAAAAAsCEaAAAAAAAAAAAA2BANAAAAAAAAAAAAbIgGAAAAAAAAAAAANkQDAAAAAAAAAAAAG6IBAAAAAAAAAACADdEAAAAAAAAAAADAhmgAAAAAAAAAAABgQzQAAAAAAAAAAACwIRoAAAAAAAAAAADYEA0AAAAAAAAAAABsiAYAAAAAAAAAAAA2RAMAAAAAAAAAAAAbogEAAAAAAAAAAIAN0QAAAAAAAAAAAMCGaAAAAAAAAAAAAGBDcbEOAIgVY4wkqa6uLsaRAAAAO+uoNTpqD1zcqBEBAMCFQI2IC4UGAHqs+vp6SVJOTk6MIwEAAD1BfX29kpOTYx0GzoIaEQAAXEjUiOhqlqHNhB4qHA7r888/V1JSkizL6pJz1NXVKScnR4cOHZLf7++Sc1zsyEE78kAOOpAHctCBPPScHBhjVF9frz59+sjh4BM4L3bUiBcGOWhHHshBB/JADjqQh3Y9IQ/UiLhQuAMAPZbD4dAll1xyQc7l9/tt+w/WuSIH7cgDOehAHshBB/LQM3LAu7q6D2rEC4sctCMP5KADeSAHHchDO7vngRoRFwLtJQAAAAAAAAAAbIgGAAAAAAAAAAAANkQDAOhCHo9H8+fPl8fjiXUoMUMO2pEHctCBPJCDDuSBHKDn4tonBx3IAznoQB7IQQfy0I48AJ2HLwEGAAAAAAAAAMCGuAMAAAAAAAAAAAAbogEAAAAAAAAAAIAN0QAAAAAAAAAAAMCGaAAAAAAAAAAAAGBDNACALvLMM8/oa1/7mrxer8aMGaO//OUvsQ6p0/z4xz+WZVlRP5dddllke0tLi2bNmqXevXsrMTFR3/72t1VdXR11jIMHD2rKlCmKj49XRkaGHn74YQWDwQs9lfPyzjvv6IYbblCfPn1kWZZWrVoVtd0Yo3nz5ik7O1s+n08TJkzQnj17osacOHFCU6dOld/vV0pKiu6++241NDREjdm+fbvGjh0rr9ernJwc/exnP+vqqZ2zs+Vg2rRpp1wbRUVFUWO6ew5KS0t15ZVXKikpSRkZGbr55ptVXl4eNaazngNlZWUaMWKEPB6P+vfvr6VLl3b19M7ZueThn/7pn065HmbOnBk1pjvn4bnnntPQoUPl9/vl9/tVWFio1atXR7b3hOtAOnse7H4dAOeLGpEakRqRGtHOtQE1YjvqRGpE4KJiAHS6ZcuWGbfbbV544QXz8ccfmxkzZpiUlBRTXV0d69A6xfz5882gQYNMZWVl5Ofo0aOR7TNnzjQ5OTlm7dq15sMPPzRXXXWV+cY3vhHZHgwGzeDBg82ECRPMli1bzOuvv27S0tLM3LlzYzGdc/b666+bH/3oR2bFihVGklm5cmXU9ieffNIkJyebVatWmW3btpkbb7zR5Ofnm+bm5siYoqIiM2zYMPPee++Zd9991/Tv39/ccccdke21tbUmMzPTTJ061ezYscO8+OKLxufzmeeff/5CTfMrnS0HJSUlpqioKOraOHHiRNSY7p6DSZMmmSVLlpgdO3aYrVu3mm9961smNzfXNDQ0RMZ0xnNg3759Jj4+3syZM8fs3LnTLFq0yDidTrNmzZoLOt8zOZc8fPOb3zQzZsyIuh5qa2sj27t7Hv70pz+Z1157zXzyySemvLzc/PCHPzQul8vs2LHDGNMzrgNjzp4Hu18HwPmgRqRGpEakRrR7bUCN2I46kRoRuJjQAAC6wOjRo82sWbMiy6FQyPTp08eUlpbGMKrOM3/+fDNs2LDTbqupqTEul8u8/PLLkXW7du0yksymTZuMMe0vEBwOh6mqqoqMee6554zf7zetra1dGntn+fILm3A4bLKysszPf/7zyLqamhrj8XjMiy++aIwxZufOnUaS+eCDDyJjVq9ebSzLMocPHzbGGPPss8+aXr16ReXh0UcfNQUFBV08o/N3phd3N9100xn3sVsOjDHmyJEjRpJ5++23jTGd9xx45JFHzKBBg6LOVVxcbCZNmtTVU/q7fDkPxrQX9d///vfPuI8d89CrVy/zm9/8psdeBx068mBMz7wOgDOhRqRGNIYa8XTslgNjqBE7UCP+DXUiNSIQK3wEENDJAoGANm/erAkTJkTWORwOTZgwQZs2bYphZJ1rz5496tOnj/r166epU6fq4MGDkqTNmzerra0tav6XXXaZcnNzI/PftGmThgwZoszMzMiYSZMmqa6uTh9//PGFnUgn2b9/v6qqqqLmnZycrDFjxkTNOyUlRaNGjYqMmTBhghwOh95///3ImHHjxsntdkfGTJo0SeXl5Tp58uQFms0/pqysTBkZGSooKNC9996r48ePR7bZMQe1tbWSpNTUVEmd9xzYtGlT1DE6xlysf0e+nIcOf/jDH5SWlqbBgwdr7ty5ampqimyzUx5CoZCWLVumxsZGFRYW9tjr4Mt56NBTrgPgq1AjUiN2oEakRuzQE2qDnl4jStSJEjUiEGtxsQ4AsJtjx44pFApF/SMlSZmZmdq9e3eMoupcY8aM0dKlS1VQUKDKyko98cQTGjt2rHbs2KGqqiq53W6lpKRE7ZOZmamqqipJUlVV1Wnz07GtO+qI+3Tz+uK8MzIyorbHxcUpNTU1akx+fv4px+jY1qtXry6Jv7MUFRXp1ltvVX5+vvbu3asf/vCHmjx5sjZt2iSn02m7HITDYf3gBz/Q1VdfrcGDB0tSpz0HzjSmrq5Ozc3N8vl8XTGlv8vp8iBJd955p/Ly8tSnTx9t375djz76qMrLy7VixQpJ9sjDRx99pMLCQrW0tCgxMVErV67UwIEDtXXr1h51HZwpD1LPuA6Ac0GNSI34RdSI1Igd7FobSD27RpSoEyVqROBiQQMAwHmbPHly5PHQoUM1ZswY5eXl6aWXXuIf2B7uX/7lXyKPhwwZoqFDh+rSSy9VWVmZxo8fH8PIusasWbO0Y8cObdiwIdahxNSZ8nDPPfdEHg8ZMkTZ2dkaP3689u7dq0svvfRCh9klCgoKtHXrVtXW1mr58uUqKSnR22+/HeuwLrgz5WHgwIE94joA0I4aEWdCjdgz9eQaUaJOlKgRgYsFHwEEdLK0tDQ5nU5VV1dHra+urlZWVlaMoupaKSkp+vrXv66KigplZWUpEAiopqYmaswX55+VlXXa/HRs64464v6q33tWVpaOHDkStT0YDOrEiRO2zU2/fv2UlpamiooKSfbKwezZs/Xqq69q/fr1uuSSSyLrO+s5cKYxfr//ovpPlDPl4XTGjBkjSVHXQ3fPg9vtVv/+/TVy5EiVlpZq2LBh+tWvftXjroMz5eF07HgdAOeCGpEa8YuoEakRO9i1NujpNaJEnShRIwIXCxoAQCdzu90aOXKk1q5dG1kXDoe1du3aqM+6s5OGhgbt3btX2dnZGjlypFwuV9T8y8vLdfDgwcj8CwsL9dFHH0UV+W+++ab8fn/kdsDuJj8/X1lZWVHzrqur0/vvvx8175qaGm3evDkyZt26dQqHw5Fip7CwUO+8847a2toiY958800VFBRcVLc1n6vPPvtMx48fV3Z2tiR75MAYo9mzZ2vlypVat27dKbeid9ZzoLCwMOoYHWMulr8jZ8vD6WzdulWSoq6H7p6HLwuHw2ptbe0x18GZdOThdHrCdQCcDjUiNWIHakRqxA52rA2oEc+MOpEaEYiZ2H4HMWBPy5YtMx6PxyxdutTs3LnT3HPPPSYlJSXq2+u7swcffNCUlZWZ/fv3m40bN5oJEyaYtLQ0c+TIEWOMMTNnzjS5ublm3bp15sMPPzSFhYWmsLAwsn8wGDSDBw82EydONFu3bjVr1qwx6enpZu7cubGa0jmpr683W7ZsMVu2bDGSzMKFC82WLVvMp59+aowx5sknnzQpKSnmlVdeMdu3bzc33XSTyc/PN83NzZFjFBUVmeHDh5v333/fbNiwwQwYMMDccccdke01NTUmMzPT/Ou//qvZsWOHWbZsmYmPjzfPP//8BZ/v6XxVDurr681DDz1kNm3aZPbv32/eeustM2LECDNgwADT0tISOUZ3z8G9995rkpOTTVlZmamsrIz8NDU1RcZ0xnNg3759Jj4+3jz88MNm165d5plnnjFOp9OsWbPmgs73TM6Wh4qKCvMf//Ef5sMPPzT79+83r7zyiunXr58ZN25c5BjdPQ+PPfaYefvtt83+/fvN9u3bzWOPPWYsyzJvvPGGMaZnXAfGfHUeesJ1AJwPakRqRGpEakS71wbUiO2oE6kRgYsJDQCgiyxatMjk5uYat9ttRo8ebd57771Yh9RpiouLTXZ2tnG73aZv376muLjYVFRURLY3Nzeb++67z/Tq1cvEx8ebW265xVRWVkYd48CBA2by5MnG5/OZtLQ08+CDD5q2trYLPZXzsn79eiPplJ+SkhJjjDHhcNg8/vjjJjMz03g8HjN+/HhTXl4edYzjx4+bO+64wyQmJhq/32+mT59u6uvro8Zs27bNXHPNNcbj8Zi+ffuaJ5988kJN8ay+KgdNTU1m4sSJJj093bhcLpOXl2dmzJhxyn9qdPccnG7+ksySJUsiYzrrObB+/XpzxRVXGLfbbfr16xd1jlg7Wx4OHjxoxo0bZ1JTU43H4zH9+/c3Dz/8sKmtrY06TnfOw1133WXy8vKM2+026enpZvz48ZEXdcb0jOvAmK/OQ0+4DoDzRY1IjUiNSI1o59qAGrEddSI1InAxsYwxpvPvKwAAAAAAAAAAALHEdwAAAAAAAAAAAGBDNAAAAAAAAAAAALAhGgAAAAAAAAAAANgQDQAAAAAAAAAAAGyIBgAAAAAAAAAAADZEAwAAAAAAAAAAABuiAQAAAAAAAAAAgA3RAAAAAAAAAAAAwIZoAAAAYAPTpk3TzTffHOswAAAAcBGhRgQA0AAAAHSKadOmybIszZw585Rts2bNkmVZmjZt2oUPDAAAADFDjQgAQGzRAAAAdJqcnBwtW7ZMzc3NkXUtLS364x//qNzc3BhGhr+HMUbBYDDWYQAAgG6OGtFeqBEBoHuhAQAA6DQjRoxQTk6OVqxYEVm3YsUK5ebmavjw4VFjw+GwSktLlZ+fL5/Pp2HDhmn58uWR7SdPntTUqVOVnp4un8+nAQMGaMmSJZKkQCCg2bNnKzs7W16vV3l5eSotLY3su3DhQg0ZMkQJCQnKycnRfffdp4aGhqjz/8///I9ycnIUHx+vW265RQsXLlRKSkrUmFdeeUUjRoyQ1+tVv3799MQTT3zli52OW6wXLFig7Oxs9e7dW7NmzVJbW1tkjGVZWrVqVdR+KSkpWrp0qSTpwIEDsixLL730ksaOHSufz6crr7xSn3zyiT744AONGjVKiYmJmjx5so4ePXpKDE888YTS09Pl9/s1c+ZMBQKBc855WVmZLMvS6tWrNXLkSHk8Hm3YsOGM8wUAADgX1IjUiACA2ImLdQAAAHu56667tGTJEk2dOlWS9MILL2j69OkqKyuLGldaWqrf//73Wrx4sQYMGKB33nlH3/nOd5Senq5vfvObevzxx7Vz506tXr1aaWlpqqioiLxr7Omnn9af/vQnvfTSS8rNzdWhQ4d06NChyLEdDoeefvpp5efna9++fbrvvvv0yCOP6Nlnn5Ukbdy4UTNnztRPf/pT3XjjjXrrrbf0+OOPR8X37rvv6rvf/a6efvppjR07Vnv37tU999wjSZo/f/4Z579+/XplZ2dr/fr1qqioUHFxsa644grNmDHjvPI4f/58PfXUU8rNzdVdd92lO++8U0lJSfrVr36l+Ph43X777Zo3b56ee+65yD5r166V1+tVWVmZDhw4oOnTp6t37976yU9+ck457/DYY49pwYIF6tevn3r16nVecQMAAJwONSI1IgAgRgwAAJ2gpKTE3HTTTebIkSPG4/GYAwcOmAMHDhiv12uOHj1qbrrpJlNSUmKMMaalpcXEx8ebP//5z1HHuPvuu80dd9xhjDHmhhtuMNOnTz/tue6//35z7bXXmnA4fE6xvfzyy6Z3796R5eLiYjNlypSoMVOnTjXJycmR5fHjx5v//u//jhrzu9/9zmRnZ5/xPCUlJSYvL88Eg8HIun/+5382xcXFkWVJZuXKlVH7JScnmyVLlhhjjNm/f7+RZH7zm99Etr/44otGklm7dm1kXWlpqSkoKIg6d2pqqmlsbIyse+6550xiYqIJhULnlPP169cbSWbVqlVnnCMAAMD5oEakRgQAxBZ3AAAAOlV6erqmTJmipUuXyhijKVOmKC0tLWpMRUWFmpqadN1110WtDwQCkdvA7733Xn3729/WX//6V02cOFE333yzvvGNb0hqv436uuuuU0FBgYqKinT99ddr4sSJkeO89dZbKi0t1e7du1VXV6dgMKiWlhY1NTUpPj5e5eXluuWWW6LOPXr0aL366quR5W3btmnjxo2Rd0ZJUigUijrO6QwaNEhOpzOynJ2drY8++uh8UihJGjp0aORxZmamJGnIkCFR644cORK1z7Bhw6LiKiwsVENDgw4dOqSGhoaz5rzDqFGjzjteAACAr0KNSI0IAIgNGgAAgE531113afbs2ZKkZ5555pTtHZ+1+tprr6lv375R2zwejyRp8uTJ+vTTT/X666/rzTff1Pjx4zVr1iwtWLBAI0aM0P79+7V69Wq99dZbuv322zVhwgQtX75cBw4c0PXXX697771XP/nJT5SamqoNGzbo7rvvViAQOOOLstPF+MQTT+jWW289ZZvX6z3jfi6XK2rZsiyFw+GoZWNM1Jgvfv7r6Y5jWdZp133xuGdzLjnvkJCQcM7HBQAAOFfUiH9DjQgAuFBoAAAAOl1RUZECgYAsy9KkSZNO2T5w4EB5PB4dPHgw6nNFvyw9PV0lJSUqKSnR2LFj9fDDD2vBggWSJL/fr+LiYhUXF+u2225TUVGRTpw4oc2bNyscDusXv/iFHI7277p/6aWXoo5bUFCgDz74IGrdl5dHjBih8vJy9e/f/+/KwVfNqbKyMrK8Z88eNTU1dcqxt23bpubmZvl8PknSe++9p8TEROXk5Cg1NfWccg4AANBVqBHPjBoRANBVaAAAADqd0+nUrl27Io+/LCkpSQ899JAeeOABhcNhXXPNNaqtrdXGjRvl9/tVUlKiefPmaeTIkRo0aJBaW1v16quv6vLLL5ckLVy4UNnZ2Ro+fLgcDodefvllZWVlKSUlRf3791dbW5sWLVqkG264QRs3btTixYujzn///fdr3LhxWrhwoW644QatW7dOq1evjryLSpLmzZun66+/Xrm5ubrtttvkcDi0bds27dixQ//1X//1d+fm2muv1a9//WsVFhYqFArp0UcfPeUdYX+vQCCgu+++W//+7/+uAwcOaP78+Zo9e7YcDsc55RwAAKArUSOeGTUiAKCrOGIdAADAnvx+v/x+/xm3/+d//qcef/xxlZaW6vLLL1dRUZFee+015efnS5Lcbrfmzp2roUOHaty4cXI6nVq2bJmk9heHP/vZzzRq1ChdeeWVOnDggF5//XU5HA4NGzZMCxcu1E9/+lMNHjxYf/jDH1RaWhp17quvvlqLFy/WwoULNWzYMK1Zs0YPPPBA1G3bkyZN0quvvqo33nhDV155pa666ir98pe/VF5e3j+Ul1/84hfKycnR2LFjdeedd+qhhx4651vOz2b8+PEaMGCAxo0bp+LiYt1444368Y9/HNl+tpwDAAB0NWrE06NGBAB0Fct8+UPmAADogWbMmKHdu3fr3XffjXUoAAAAuEhQIwIAujs+AggA0CMtWLBA1113nRISErR69Wr99re/1bPPPhvrsAAAABBD1IgAALvhDgAAQI90++23q6ysTPX19erXr5/uv/9+zZw5M9ZhAQAAIIaoEQEAdkMDAAAAAAAAAAAAG+JLgAEAAAAAAAAAsCEaAAAAAAAAAAAA2BANAAAAAAAAAAAAbIgGAAAAAAAAAAAANkQDAAAAAAAAAAAAG6IBAAAAAAAAAACADdEAAAAAAAAAAADAhmgAAAAAAAAAAABgQzQAAAAAAAAAAACwIRoAAAAAAAAAAADYEA0AAAAAAAAAAABsiAYAAAAAAAAAAAA2RAMAAAAAAAAAAAAbogEAAAAAAAAAAIAN0QAAAAAAAAAAAMCGaAAAAAAAAAAAAGBDNAAAAAAAAAAAALAhGgAAAAAAAAAAANgQDQAAAAAAAAAAAGyIBgAAAAAAAAAAADZEAwAAAAAAAAAAABuiAQAAAAAAAAAAgA3RAAAAAAAAAAAAwIZoAAAAAAAAAAAAYEM0AAAAAAAAAAAAsCEaAAAAAAAAAAAA2BANAAAAAAAAAAAAbIgGAAAAAAAAAAAANkQDAAAAAAAAAAAAG6IBAAAAAAAAAACADdEAAAAAAAAAAADAhmgAAAAAAAAAAABgQzQAAAAAAAAAAACwIRoAAAAAAAAAAADYEA0AAAAAAAAAAABsiAYAAAAAAAAAAAA2RAMAAAAAAAAAAAAbogEAAAAAAAAAAIAN/X/S9AvcTqs+IgAAAABJRU5ErkJggg==;" vertex="1" parent="1">
          <mxGeometry x="-30" y="80" width="1536" height="754" as="geometry" />
        </mxCell>
        <mxCell id="qFrpL7xLVj3GtX8HjoZw-4" value="" style="rounded=1;whiteSpace=wrap;html=1;fillColor=none;strokeWidth=4;strokeColor=#66FF66;" vertex="1" parent="1">
          <mxGeometry x="170" y="710" width="520" height="30" as="geometry" />
        </mxCell>
        <mxCell id="qFrpL7xLVj3GtX8HjoZw-5" value="" style="rounded=1;whiteSpace=wrap;html=1;fillColor=none;strokeWidth=4;strokeColor=#66FF66;" vertex="1" parent="1">
          <mxGeometry x="820" y="500" width="520" height="230" as="geometry" />
        </mxCell>
        <mxCell id="qFrpL7xLVj3GtX8HjoZw-7" style="edgeStyle=orthogonalEdgeStyle;rounded=0;orthogonalLoop=1;jettySize=auto;html=1;exitX=1;exitY=0.25;exitDx=0;exitDy=0;entryX=0.004;entryY=0.113;entryDx=0;entryDy=0;entryPerimeter=0;endArrow=none;endFill=0;strokeWidth=3;strokeColor=#66FF66;" edge="1" parent="1" source="qFrpL7xLVj3GtX8HjoZw-4" target="qFrpL7xLVj3GtX8HjoZw-5">
          <mxGeometry relative="1" as="geometry" />
        </mxCell>
      </root>
    </mxGraphModel>
  </diagram>
</mxfile>
